<?xml version="1.0" encoding="utf-8" standalone="no"?>
<!DOCTYPE svg PUBLIC "-//W3C//DTD SVG 1.1//EN"
  "http://www.w3.org/Graphics/SVG/1.1/DTD/svg11.dtd">
<svg xmlns:xlink="http://www.w3.org/1999/xlink" width="1296pt" height="432pt" viewBox="0 0 1296 432" xmlns="http://www.w3.org/2000/svg" version="1.1">
 <metadata>
  <rdf:RDF xmlns:dc="http://purl.org/dc/elements/1.1/" xmlns:cc="http://creativecommons.org/ns#" xmlns:rdf="http://www.w3.org/1999/02/22-rdf-syntax-ns#">
   <cc:Work>
    <dc:type rdf:resource="http://purl.org/dc/dcmitype/StillImage"/>
    <dc:date>2022-03-03T00:26:29.114136</dc:date>
    <dc:format>image/svg+xml</dc:format>
    <dc:creator>
     <cc:Agent>
      <dc:title>Matplotlib v3.5.1, https://matplotlib.org/</dc:title>
     </cc:Agent>
    </dc:creator>
   </cc:Work>
  </rdf:RDF>
 </metadata>
 <defs>
  <style type="text/css">*{stroke-linejoin: round; stroke-linecap: butt}</style>
 </defs>
 <g id="figure_1">
  <g id="patch_1">
   <path d="M 0 432 
L 1296 432 
L 1296 0 
L 0 0 
L 0 432 
z
" style="fill: none"/>
  </g>
  <g id="axes_1">
   <g id="patch_2">
    <path d="M 162 384.48 
L 457.411765 384.48 
L 457.411765 51.84 
L 162 51.84 
L 162 384.48 
z
" style="fill: none"/>
   </g>
   <g id="PolyCollection_1">
    <defs>
     <path id="m0bac3c57d5" d="M 175.427807 -365.04 
L 175.427807 -361.545613 
L 199.842003 -340.156431 
L 224.256198 -338.956621 
L 248.670394 -338.227114 
L 273.084589 -338.828982 
L 297.498785 -341.776355 
L 321.91298 -344.167612 
L 346.327175 -345.118148 
L 370.741371 -346.465761 
L 395.155566 -347.444468 
L 419.569762 -348.929419 
L 443.983957 -346.697951 
L 443.983957 -347.805404 
L 443.983957 -347.805404 
L 419.569762 -349.427021 
L 395.155566 -348.268326 
L 370.741371 -346.923643 
L 346.327175 -345.717758 
L 321.91298 -344.899676 
L 297.498785 -342.239638 
L 273.084589 -339.547442 
L 248.670394 -338.943651 
L 224.256198 -340.521228 
L 199.842003 -340.865159 
L 175.427807 -365.04 
z
" style="stroke: #7f3c8d; stroke-opacity: 0.1"/>
    </defs>
    <g clip-path="url(#pc3d601d7ac)">
     <use xlink:href="#m0bac3c57d5" x="0" y="432" style="fill: #7f3c8d; fill-opacity: 0.1; stroke: #7f3c8d; stroke-opacity: 0.1"/>
    </g>
   </g>
   <g id="PolyCollection_2">
    <defs>
     <path id="m733deca004" d="M 175.427807 -182.975237 
L 175.427807 -182.823377 
L 199.842003 -157.980335 
L 224.256198 -159.806602 
L 248.670394 -162.713872 
L 273.084589 -164.621054 
L 297.498785 -181.765385 
L 321.91298 -183.584579 
L 346.327175 -183.70208 
L 370.741371 -178.53771 
L 395.155566 -174.300195 
L 419.569762 -172.031036 
L 443.983957 -170.652611 
L 443.983957 -170.987685 
L 443.983957 -170.987685 
L 419.569762 -172.564585 
L 395.155566 -174.859977 
L 370.741371 -179.394403 
L 346.327175 -185.139733 
L 321.91298 -184.899826 
L 297.498785 -183.054688 
L 273.084589 -164.854672 
L 248.670394 -162.778598 
L 224.256198 -160.115838 
L 199.842003 -158.194997 
L 175.427807 -182.975237 
z
" style="stroke: #11a579; stroke-opacity: 0.1"/>
    </defs>
    <g clip-path="url(#pc3d601d7ac)">
     <use xlink:href="#m733deca004" x="0" y="432" style="fill: #11a579; fill-opacity: 0.1; stroke: #11a579; stroke-opacity: 0.1"/>
    </g>
   </g>
   <g id="PolyCollection_3">
    <defs>
     <path id="me2696501c5" d="M 175.427807 -167.05806 
L 175.427807 -166.741018 
L 199.842003 -141.942095 
L 224.256198 -143.854686 
L 248.670394 -146.363779 
L 273.084589 -148.052917 
L 297.498785 -162.030129 
L 321.91298 -162.518783 
L 346.327175 -159.273689 
L 370.741371 -156.199278 
L 395.155566 -154.138371 
L 419.569762 -152.995854 
L 443.983957 -152.204474 
L 443.983957 -152.539869 
L 443.983957 -152.539869 
L 419.569762 -153.261721 
L 395.155566 -154.242068 
L 370.741371 -156.941983 
L 346.327175 -159.864399 
L 321.91298 -164.101072 
L 297.498785 -164.055545 
L 273.084589 -148.143589 
L 248.670394 -146.519111 
L 224.256198 -144.067829 
L 199.842003 -142.044992 
L 175.427807 -167.05806 
z
" style="stroke: #11a579; stroke-opacity: 0.1"/>
    </defs>
    <g clip-path="url(#pc3d601d7ac)">
     <use xlink:href="#me2696501c5" x="0" y="432" style="fill: #11a579; fill-opacity: 0.1; stroke: #11a579; stroke-opacity: 0.1"/>
    </g>
   </g>
   <g id="PolyCollection_4">
    <defs>
     <path id="m07acaf2cac" d="M 175.427807 -160.176496 
L 175.427807 -159.890588 
L 199.842003 -96.230488 
L 224.256198 -81.445075 
L 248.670394 -76.306421 
L 273.084589 -73.888338 
L 297.498785 -74.233607 
L 321.91298 -74.878244 
L 346.327175 -74.559234 
L 370.741371 -74.099727 
L 395.155566 -74.121355 
L 419.569762 -74.053799 
L 443.983957 -74.190418 
L 443.983957 -74.258666 
L 443.983957 -74.258666 
L 419.569762 -74.174585 
L 395.155566 -74.220957 
L 370.741371 -74.352895 
L 346.327175 -75.004179 
L 321.91298 -75.072287 
L 297.498785 -75.10435 
L 273.084589 -74.261776 
L 248.670394 -76.565569 
L 224.256198 -81.68227 
L 199.842003 -96.588823 
L 175.427807 -160.176496 
z
" style="stroke: #3969ac; stroke-opacity: 0.1"/>
    </defs>
    <g clip-path="url(#pc3d601d7ac)">
     <use xlink:href="#m07acaf2cac" x="0" y="432" style="fill: #3969ac; fill-opacity: 0.1; stroke: #3969ac; stroke-opacity: 0.1"/>
    </g>
   </g>
   <g id="PolyCollection_5">
    <defs>
     <path id="mef4b7973e5" d="M 175.427807 -141.247747 
L 175.427807 -141.084353 
L 199.842003 -92.845068 
L 224.256198 -77.034704 
L 248.670394 -70.671388 
L 273.084589 -67.526254 
L 297.498785 -65.257658 
L 321.91298 -64.695091 
L 346.327175 -64.228292 
L 370.741371 -63.802359 
L 395.155566 -63.3504 
L 419.569762 -62.946764 
L 443.983957 -62.64 
L 443.983957 -62.674819 
L 443.983957 -62.674819 
L 419.569762 -62.979344 
L 395.155566 -63.403382 
L 370.741371 -63.854012 
L 346.327175 -64.307513 
L 321.91298 -64.779472 
L 297.498785 -65.286347 
L 273.084589 -67.574473 
L 248.670394 -71.910373 
L 224.256198 -78.179651 
L 199.842003 -92.88164 
L 175.427807 -141.247747 
z
" style="stroke: #3969ac; stroke-opacity: 0.1"/>
    </defs>
    <g clip-path="url(#pc3d601d7ac)">
     <use xlink:href="#mef4b7973e5" x="0" y="432" style="fill: #3969ac; fill-opacity: 0.1; stroke: #3969ac; stroke-opacity: 0.1"/>
    </g>
   </g>
   <g id="matplotlib.axis_1">
    <g id="xtick_1">
     <g id="line2d_1">
      <defs>
       <path id="md652abb32f" d="M 0 0 
L 0 3.5 
" style="stroke: #000000; stroke-width: 0.8"/>
      </defs>
      <g>
       <use xlink:href="#md652abb32f" x="199.842003" y="384.48" style="stroke: #000000; stroke-width: 0.8"/>
      </g>
     </g>
     <g id="text_1">
      <text style="font: 10px 'sans-serif'; text-anchor: middle" x="199.842003" y="399.078438" transform="rotate(-0, 199.842003, 399.078438)">2</text>
     </g>
    </g>
    <g id="xtick_2">
     <g id="line2d_2">
      <g>
       <use xlink:href="#md652abb32f" x="248.670394" y="384.48" style="stroke: #000000; stroke-width: 0.8"/>
      </g>
     </g>
     <g id="text_2">
      <text style="font: 10px 'sans-serif'; text-anchor: middle" x="248.670394" y="399.078438" transform="rotate(-0, 248.670394, 399.078438)">4</text>
     </g>
    </g>
    <g id="xtick_3">
     <g id="line2d_3">
      <g>
       <use xlink:href="#md652abb32f" x="297.498785" y="384.48" style="stroke: #000000; stroke-width: 0.8"/>
      </g>
     </g>
     <g id="text_3">
      <text style="font: 10px 'sans-serif'; text-anchor: middle" x="297.498785" y="399.078438" transform="rotate(-0, 297.498785, 399.078438)">6</text>
     </g>
    </g>
    <g id="xtick_4">
     <g id="line2d_4">
      <g>
       <use xlink:href="#md652abb32f" x="346.327175" y="384.48" style="stroke: #000000; stroke-width: 0.8"/>
      </g>
     </g>
     <g id="text_4">
      <text style="font: 10px 'sans-serif'; text-anchor: middle" x="346.327175" y="399.078438" transform="rotate(-0, 346.327175, 399.078438)">8</text>
     </g>
    </g>
    <g id="xtick_5">
     <g id="line2d_5">
      <g>
       <use xlink:href="#md652abb32f" x="395.155566" y="384.48" style="stroke: #000000; stroke-width: 0.8"/>
      </g>
     </g>
     <g id="text_5">
      <text style="font: 10px 'sans-serif'; text-anchor: middle" x="395.155566" y="399.078438" transform="rotate(-0, 395.155566, 399.078438)">10</text>
     </g>
    </g>
    <g id="xtick_6">
     <g id="line2d_6">
      <g>
       <use xlink:href="#md652abb32f" x="443.983957" y="384.48" style="stroke: #000000; stroke-width: 0.8"/>
      </g>
     </g>
     <g id="text_6">
      <text style="font: 10px 'sans-serif'; text-anchor: middle" x="443.983957" y="399.078438" transform="rotate(-0, 443.983957, 399.078438)">12</text>
     </g>
    </g>
    <g id="text_7">
     <text style="font: 10px 'sans-serif'; text-anchor: middle" x="309.705882" y="412.756563" transform="rotate(-0, 309.705882, 412.756563)">CPUs</text>
    </g>
   </g>
   <g id="matplotlib.axis_2">
    <g id="ytick_1">
     <g id="line2d_7">
      <defs>
       <path id="m7cf6f8fc88" d="M 0 0 
L -3.5 0 
" style="stroke: #000000; stroke-width: 0.8"/>
      </defs>
      <g>
       <use xlink:href="#m7cf6f8fc88" x="162" y="345.398296" style="stroke: #000000; stroke-width: 0.8"/>
      </g>
     </g>
     <g id="text_8">
      <text style="font: 10px 'sans-serif'; text-anchor: end" x="155" y="349.197514" transform="rotate(-0, 155, 349.197514)">50</text>
     </g>
    </g>
    <g id="ytick_2">
     <g id="line2d_8">
      <g>
       <use xlink:href="#m7cf6f8fc88" x="162" y="303.283287" style="stroke: #000000; stroke-width: 0.8"/>
      </g>
     </g>
     <g id="text_9">
      <text style="font: 10px 'sans-serif'; text-anchor: end" x="155" y="307.082506" transform="rotate(-0, 155, 307.082506)">100</text>
     </g>
    </g>
    <g id="ytick_3">
     <g id="line2d_9">
      <g>
       <use xlink:href="#m7cf6f8fc88" x="162" y="261.168279" style="stroke: #000000; stroke-width: 0.8"/>
      </g>
     </g>
     <g id="text_10">
      <text style="font: 10px 'sans-serif'; text-anchor: end" x="155" y="264.967498" transform="rotate(-0, 155, 264.967498)">150</text>
     </g>
    </g>
    <g id="ytick_4">
     <g id="line2d_10">
      <g>
       <use xlink:href="#m7cf6f8fc88" x="162" y="219.053271" style="stroke: #000000; stroke-width: 0.8"/>
      </g>
     </g>
     <g id="text_11">
      <text style="font: 10px 'sans-serif'; text-anchor: end" x="155" y="222.85249" transform="rotate(-0, 155, 222.85249)">200</text>
     </g>
    </g>
    <g id="ytick_5">
     <g id="line2d_11">
      <g>
       <use xlink:href="#m7cf6f8fc88" x="162" y="176.938263" style="stroke: #000000; stroke-width: 0.8"/>
      </g>
     </g>
     <g id="text_12">
      <text style="font: 10px 'sans-serif'; text-anchor: end" x="155" y="180.737482" transform="rotate(-0, 155, 180.737482)">250</text>
     </g>
    </g>
    <g id="ytick_6">
     <g id="line2d_12">
      <g>
       <use xlink:href="#m7cf6f8fc88" x="162" y="134.823255" style="stroke: #000000; stroke-width: 0.8"/>
      </g>
     </g>
     <g id="text_13">
      <text style="font: 10px 'sans-serif'; text-anchor: end" x="155" y="138.622473" transform="rotate(-0, 155, 138.622473)">300</text>
     </g>
    </g>
    <g id="ytick_7">
     <g id="line2d_13">
      <g>
       <use xlink:href="#m7cf6f8fc88" x="162" y="92.708246" style="stroke: #000000; stroke-width: 0.8"/>
      </g>
     </g>
     <g id="text_14">
      <text style="font: 10px 'sans-serif'; text-anchor: end" x="155" y="96.507465" transform="rotate(-0, 155, 96.507465)">350</text>
     </g>
    </g>
    <g id="text_15">
     <text style="font: 10px 'sans-serif'; text-anchor: middle" x="129.832812" y="218.16" transform="rotate(-90, 129.832812, 218.16)">Time (s)</text>
    </g>
   </g>
   <g id="line2d_14">
    <path d="M 175.427807 68.707194 
L 199.842003 91.489205 
L 224.256198 92.261076 
L 248.670394 93.414617 
L 273.084589 92.811788 
L 297.498785 89.992003 
L 321.91298 87.466356 
L 346.327175 86.582047 
L 370.741371 85.305298 
L 395.155566 84.143603 
L 419.569762 82.82178 
L 443.983957 84.748323 
" clip-path="url(#pc3d601d7ac)" style="fill: none; stroke: #7f3c8d; stroke-width: 1.5; stroke-linecap: square"/>
    <defs>
     <path id="mf0ebc8de06" d="M 0 3 
C 0.795609 3 1.55874 2.683901 2.12132 2.12132 
C 2.683901 1.55874 3 0.795609 3 0 
C 3 -0.795609 2.683901 -1.55874 2.12132 -2.12132 
C 1.55874 -2.683901 0.795609 -3 0 -3 
C -0.795609 -3 -1.55874 -2.683901 -2.12132 -2.12132 
C -2.683901 -1.55874 -3 -0.795609 -3 0 
C -3 0.795609 -2.683901 1.55874 -2.12132 2.12132 
C -1.55874 2.683901 -0.795609 3 0 3 
z
" style="stroke: #7f3c8d"/>
    </defs>
    <g clip-path="url(#pc3d601d7ac)">
     <use xlink:href="#mf0ebc8de06" x="175.427807" y="68.707194" style="fill: #7f3c8d; stroke: #7f3c8d"/>
     <use xlink:href="#mf0ebc8de06" x="199.842003" y="91.489205" style="fill: #7f3c8d; stroke: #7f3c8d"/>
     <use xlink:href="#mf0ebc8de06" x="224.256198" y="92.261076" style="fill: #7f3c8d; stroke: #7f3c8d"/>
     <use xlink:href="#mf0ebc8de06" x="248.670394" y="93.414617" style="fill: #7f3c8d; stroke: #7f3c8d"/>
     <use xlink:href="#mf0ebc8de06" x="273.084589" y="92.811788" style="fill: #7f3c8d; stroke: #7f3c8d"/>
     <use xlink:href="#mf0ebc8de06" x="297.498785" y="89.992003" style="fill: #7f3c8d; stroke: #7f3c8d"/>
     <use xlink:href="#mf0ebc8de06" x="321.91298" y="87.466356" style="fill: #7f3c8d; stroke: #7f3c8d"/>
     <use xlink:href="#mf0ebc8de06" x="346.327175" y="86.582047" style="fill: #7f3c8d; stroke: #7f3c8d"/>
     <use xlink:href="#mf0ebc8de06" x="370.741371" y="85.305298" style="fill: #7f3c8d; stroke: #7f3c8d"/>
     <use xlink:href="#mf0ebc8de06" x="395.155566" y="84.143603" style="fill: #7f3c8d; stroke: #7f3c8d"/>
     <use xlink:href="#mf0ebc8de06" x="419.569762" y="82.82178" style="fill: #7f3c8d; stroke: #7f3c8d"/>
     <use xlink:href="#mf0ebc8de06" x="443.983957" y="84.748323" style="fill: #7f3c8d; stroke: #7f3c8d"/>
    </g>
   </g>
   <g id="line2d_15">
    <path d="M 175.427807 249.100693 
L 199.842003 273.912334 
L 224.256198 272.03878 
L 248.670394 269.253765 
L 273.084589 267.262137 
L 297.498785 249.589964 
L 321.91298 247.757798 
L 346.327175 247.579093 
L 370.741371 253.033943 
L 395.155566 257.419914 
L 419.569762 259.70219 
L 443.983957 261.179852 
" clip-path="url(#pc3d601d7ac)" style="fill: none; stroke-dasharray: 5.55,2.4; stroke-dashoffset: 0; stroke: #11a579; stroke-width: 1.5"/>
    <defs>
     <path id="ma63c37b6b0" d="M 0 3 
C 0.795609 3 1.55874 2.683901 2.12132 2.12132 
C 2.683901 1.55874 3 0.795609 3 0 
C 3 -0.795609 2.683901 -1.55874 2.12132 -2.12132 
C 1.55874 -2.683901 0.795609 -3 0 -3 
C -0.795609 -3 -1.55874 -2.683901 -2.12132 -2.12132 
C -2.683901 -1.55874 -3 -0.795609 -3 0 
C -3 0.795609 -2.683901 1.55874 -2.12132 2.12132 
C -1.55874 2.683901 -0.795609 3 0 3 
z
" style="stroke: #11a579"/>
    </defs>
    <g clip-path="url(#pc3d601d7ac)">
     <use xlink:href="#ma63c37b6b0" x="175.427807" y="249.100693" style="fill: #11a579; stroke: #11a579"/>
     <use xlink:href="#ma63c37b6b0" x="199.842003" y="273.912334" style="fill: #11a579; stroke: #11a579"/>
     <use xlink:href="#ma63c37b6b0" x="224.256198" y="272.03878" style="fill: #11a579; stroke: #11a579"/>
     <use xlink:href="#ma63c37b6b0" x="248.670394" y="269.253765" style="fill: #11a579; stroke: #11a579"/>
     <use xlink:href="#ma63c37b6b0" x="273.084589" y="267.262137" style="fill: #11a579; stroke: #11a579"/>
     <use xlink:href="#ma63c37b6b0" x="297.498785" y="249.589964" style="fill: #11a579; stroke: #11a579"/>
     <use xlink:href="#ma63c37b6b0" x="321.91298" y="247.757798" style="fill: #11a579; stroke: #11a579"/>
     <use xlink:href="#ma63c37b6b0" x="346.327175" y="247.579093" style="fill: #11a579; stroke: #11a579"/>
     <use xlink:href="#ma63c37b6b0" x="370.741371" y="253.033943" style="fill: #11a579; stroke: #11a579"/>
     <use xlink:href="#ma63c37b6b0" x="395.155566" y="257.419914" style="fill: #11a579; stroke: #11a579"/>
     <use xlink:href="#ma63c37b6b0" x="419.569762" y="259.70219" style="fill: #11a579; stroke: #11a579"/>
     <use xlink:href="#ma63c37b6b0" x="443.983957" y="261.179852" style="fill: #11a579; stroke: #11a579"/>
    </g>
   </g>
   <g id="line2d_16">
    <path d="M 175.427807 265.100461 
L 199.842003 290.006456 
L 224.256198 288.038743 
L 248.670394 285.558555 
L 273.084589 283.901747 
L 297.498785 268.957163 
L 321.91298 268.690073 
L 346.327175 272.430956 
L 370.741371 275.429369 
L 395.155566 277.809781 
L 419.569762 278.871212 
L 443.983957 279.627829 
" clip-path="url(#pc3d601d7ac)" style="fill: none; stroke: #11a579; stroke-width: 1.5; stroke-linecap: square"/>
    <g clip-path="url(#pc3d601d7ac)">
     <use xlink:href="#ma63c37b6b0" x="175.427807" y="265.100461" style="fill: #11a579; stroke: #11a579"/>
     <use xlink:href="#ma63c37b6b0" x="199.842003" y="290.006456" style="fill: #11a579; stroke: #11a579"/>
     <use xlink:href="#ma63c37b6b0" x="224.256198" y="288.038743" style="fill: #11a579; stroke: #11a579"/>
     <use xlink:href="#ma63c37b6b0" x="248.670394" y="285.558555" style="fill: #11a579; stroke: #11a579"/>
     <use xlink:href="#ma63c37b6b0" x="273.084589" y="283.901747" style="fill: #11a579; stroke: #11a579"/>
     <use xlink:href="#ma63c37b6b0" x="297.498785" y="268.957163" style="fill: #11a579; stroke: #11a579"/>
     <use xlink:href="#ma63c37b6b0" x="321.91298" y="268.690073" style="fill: #11a579; stroke: #11a579"/>
     <use xlink:href="#ma63c37b6b0" x="346.327175" y="272.430956" style="fill: #11a579; stroke: #11a579"/>
     <use xlink:href="#ma63c37b6b0" x="370.741371" y="275.429369" style="fill: #11a579; stroke: #11a579"/>
     <use xlink:href="#ma63c37b6b0" x="395.155566" y="277.809781" style="fill: #11a579; stroke: #11a579"/>
     <use xlink:href="#ma63c37b6b0" x="419.569762" y="278.871212" style="fill: #11a579; stroke: #11a579"/>
     <use xlink:href="#ma63c37b6b0" x="443.983957" y="279.627829" style="fill: #11a579; stroke: #11a579"/>
    </g>
   </g>
   <g id="line2d_17">
    <path d="M 175.427807 271.966458 
L 199.842003 335.590345 
L 224.256198 350.436328 
L 248.670394 355.564005 
L 273.084589 357.924943 
L 297.498785 357.331021 
L 321.91298 357.024734 
L 346.327175 357.218294 
L 370.741371 357.773689 
L 395.155566 357.828844 
L 419.569762 357.885808 
L 443.983957 357.775458 
" clip-path="url(#pc3d601d7ac)" style="fill: none; stroke-dasharray: 5.55,2.4; stroke-dashoffset: 0; stroke: #3969ac; stroke-width: 1.5"/>
    <defs>
     <path id="mc8423e1940" d="M 0 3 
C 0.795609 3 1.55874 2.683901 2.12132 2.12132 
C 2.683901 1.55874 3 0.795609 3 0 
C 3 -0.795609 2.683901 -1.55874 2.12132 -2.12132 
C 1.55874 -2.683901 0.795609 -3 0 -3 
C -0.795609 -3 -1.55874 -2.683901 -2.12132 -2.12132 
C -2.683901 -1.55874 -3 -0.795609 -3 0 
C -3 0.795609 -2.683901 1.55874 -2.12132 2.12132 
C -1.55874 2.683901 -0.795609 3 0 3 
z
" style="stroke: #3969ac"/>
    </defs>
    <g clip-path="url(#pc3d601d7ac)">
     <use xlink:href="#mc8423e1940" x="175.427807" y="271.966458" style="fill: #3969ac; stroke: #3969ac"/>
     <use xlink:href="#mc8423e1940" x="199.842003" y="335.590345" style="fill: #3969ac; stroke: #3969ac"/>
     <use xlink:href="#mc8423e1940" x="224.256198" y="350.436328" style="fill: #3969ac; stroke: #3969ac"/>
     <use xlink:href="#mc8423e1940" x="248.670394" y="355.564005" style="fill: #3969ac; stroke: #3969ac"/>
     <use xlink:href="#mc8423e1940" x="273.084589" y="357.924943" style="fill: #3969ac; stroke: #3969ac"/>
     <use xlink:href="#mc8423e1940" x="297.498785" y="357.331021" style="fill: #3969ac; stroke: #3969ac"/>
     <use xlink:href="#mc8423e1940" x="321.91298" y="357.024734" style="fill: #3969ac; stroke: #3969ac"/>
     <use xlink:href="#mc8423e1940" x="346.327175" y="357.218294" style="fill: #3969ac; stroke: #3969ac"/>
     <use xlink:href="#mc8423e1940" x="370.741371" y="357.773689" style="fill: #3969ac; stroke: #3969ac"/>
     <use xlink:href="#mc8423e1940" x="395.155566" y="357.828844" style="fill: #3969ac; stroke: #3969ac"/>
     <use xlink:href="#mc8423e1940" x="419.569762" y="357.885808" style="fill: #3969ac; stroke: #3969ac"/>
     <use xlink:href="#mc8423e1940" x="443.983957" y="357.775458" style="fill: #3969ac; stroke: #3969ac"/>
    </g>
   </g>
   <g id="line2d_18">
    <path d="M 175.427807 290.83395 
L 199.842003 339.136646 
L 224.256198 354.392822 
L 248.670394 360.70912 
L 273.084589 364.449637 
L 297.498785 366.727998 
L 321.91298 367.262718 
L 346.327175 367.732097 
L 370.741371 368.171815 
L 395.155566 368.623109 
L 419.569762 369.036946 
L 443.983957 369.342591 
" clip-path="url(#pc3d601d7ac)" style="fill: none; stroke: #3969ac; stroke-width: 1.5; stroke-linecap: square"/>
    <g clip-path="url(#pc3d601d7ac)">
     <use xlink:href="#mc8423e1940" x="175.427807" y="290.83395" style="fill: #3969ac; stroke: #3969ac"/>
     <use xlink:href="#mc8423e1940" x="199.842003" y="339.136646" style="fill: #3969ac; stroke: #3969ac"/>
     <use xlink:href="#mc8423e1940" x="224.256198" y="354.392822" style="fill: #3969ac; stroke: #3969ac"/>
     <use xlink:href="#mc8423e1940" x="248.670394" y="360.70912" style="fill: #3969ac; stroke: #3969ac"/>
     <use xlink:href="#mc8423e1940" x="273.084589" y="364.449637" style="fill: #3969ac; stroke: #3969ac"/>
     <use xlink:href="#mc8423e1940" x="297.498785" y="366.727998" style="fill: #3969ac; stroke: #3969ac"/>
     <use xlink:href="#mc8423e1940" x="321.91298" y="367.262718" style="fill: #3969ac; stroke: #3969ac"/>
     <use xlink:href="#mc8423e1940" x="346.327175" y="367.732097" style="fill: #3969ac; stroke: #3969ac"/>
     <use xlink:href="#mc8423e1940" x="370.741371" y="368.171815" style="fill: #3969ac; stroke: #3969ac"/>
     <use xlink:href="#mc8423e1940" x="395.155566" y="368.623109" style="fill: #3969ac; stroke: #3969ac"/>
     <use xlink:href="#mc8423e1940" x="419.569762" y="369.036946" style="fill: #3969ac; stroke: #3969ac"/>
     <use xlink:href="#mc8423e1940" x="443.983957" y="369.342591" style="fill: #3969ac; stroke: #3969ac"/>
    </g>
   </g>
   <g id="patch_3">
    <path d="M 162 384.48 
L 162 51.84 
" style="fill: none; stroke: #000000; stroke-width: 0.8; stroke-linejoin: miter; stroke-linecap: square"/>
   </g>
   <g id="patch_4">
    <path d="M 457.411765 384.48 
L 457.411765 51.84 
" style="fill: none; stroke: #000000; stroke-width: 0.8; stroke-linejoin: miter; stroke-linecap: square"/>
   </g>
   <g id="patch_5">
    <path d="M 162 384.48 
L 457.411765 384.48 
" style="fill: none; stroke: #000000; stroke-width: 0.8; stroke-linejoin: miter; stroke-linecap: square"/>
   </g>
   <g id="patch_6">
    <path d="M 162 51.84 
L 457.411765 51.84 
" style="fill: none; stroke: #000000; stroke-width: 0.8; stroke-linejoin: miter; stroke-linecap: square"/>
   </g>
   <g id="legend_1">
    <g id="patch_7">
     <path d="M 359.380515 241.677188 
L 450.411765 241.677188 
Q 452.411765 241.677188 452.411765 239.677188 
L 452.411765 196.642812 
Q 452.411765 194.642812 450.411765 194.642812 
L 359.380515 194.642812 
Q 357.380515 194.642812 357.380515 196.642812 
L 357.380515 239.677188 
Q 357.380515 241.677188 359.380515 241.677188 
z
" style="fill: #ffffff; opacity: 0.8; stroke: #cccccc; stroke-linejoin: miter"/>
    </g>
    <g id="line2d_19">
     <path d="M 361.380515 202.74125 
L 371.380515 202.74125 
L 381.380515 202.74125 
" style="fill: none; stroke: #7f3c8d; stroke-width: 1.5; stroke-linecap: square"/>
     <g>
      <use xlink:href="#mf0ebc8de06" x="371.380515" y="202.74125" style="fill: #7f3c8d; stroke: #7f3c8d"/>
     </g>
    </g>
    <g id="text_16">
     <text style="font: 10px 'sans-serif'; text-anchor: start" x="389.380515" y="206.24125" transform="rotate(-0, 389.380515, 206.24125)">hmmscan</text>
    </g>
    <g id="line2d_20">
     <path d="M 361.380515 217.419375 
L 371.380515 217.419375 
L 381.380515 217.419375 
" style="fill: none; stroke: #11a579; stroke-width: 1.5; stroke-linecap: square"/>
     <g>
      <use xlink:href="#ma63c37b6b0" x="371.380515" y="217.419375" style="fill: #11a579; stroke: #11a579"/>
     </g>
    </g>
    <g id="text_17">
     <text style="font: 10px 'sans-serif'; text-anchor: start" x="389.380515" y="220.919375" transform="rotate(-0, 389.380515, 220.919375)">hmmsearch</text>
    </g>
    <g id="line2d_21">
     <path d="M 361.380515 232.0975 
L 371.380515 232.0975 
L 381.380515 232.0975 
" style="fill: none; stroke: #3969ac; stroke-width: 1.5; stroke-linecap: square"/>
     <g>
      <use xlink:href="#mc8423e1940" x="371.380515" y="232.0975" style="fill: #3969ac; stroke: #3969ac"/>
     </g>
    </g>
    <g id="text_18">
     <text style="font: 10px 'sans-serif'; text-anchor: start" x="389.380515" y="235.5975" transform="rotate(-0, 389.380515, 235.5975)">pyhmmer</text>
    </g>
   </g>
  </g>
  <g id="axes_2">
   <g id="patch_8">
    <path d="M 516.494118 384.48 
L 811.905882 384.48 
L 811.905882 51.84 
L 516.494118 51.84 
L 516.494118 384.48 
z
" style="fill: none"/>
   </g>
   <g id="PolyCollection_6">
    <defs>
     <path id="m37662a30cc" d="M 529.921925 -345.530836 
L 529.921925 -345.074419 
L 554.336121 -278.310092 
L 578.750316 -279.345248 
L 603.164511 -281.106469 
L 627.578707 -282.889209 
L 651.992902 -287.19402 
L 676.407098 -289.544385 
L 700.821293 -292.382278 
L 725.235489 -294.124446 
L 749.649684 -294.69672 
L 774.063879 -294.310156 
L 798.478075 -293.795341 
L 798.478075 -295.17387 
L 798.478075 -295.17387 
L 774.063879 -295.28021 
L 749.649684 -295.430712 
L 725.235489 -294.77336 
L 700.821293 -292.913566 
L 676.407098 -291.35198 
L 651.992902 -287.901853 
L 627.578707 -283.163884 
L 603.164511 -281.540249 
L 578.750316 -279.740631 
L 554.336121 -278.777138 
L 529.921925 -345.530836 
z
" style="stroke: #11a579; stroke-opacity: 0.1"/>
    </defs>
    <g clip-path="url(#p0e8e0fa559)">
     <use xlink:href="#m37662a30cc" x="0" y="432" style="fill: #11a579; fill-opacity: 0.1; stroke: #11a579; stroke-opacity: 0.1"/>
    </g>
   </g>
   <g id="PolyCollection_7">
    <defs>
     <path id="m97612f2d98" d="M 529.921925 -365.04 
L 529.921925 -364.391704 
L 554.336121 -183.648711 
L 578.750316 -124.387238 
L 603.164511 -97.542181 
L 627.578707 -85.374725 
L 651.992902 -77.447097 
L 676.407098 -73.83615 
L 700.821293 -70.84038 
L 725.235489 -68.210933 
L 749.649684 -66.178228 
L 774.063879 -64.132249 
L 798.478075 -62.64 
L 798.478075 -63.118182 
L 798.478075 -63.118182 
L 774.063879 -64.552935 
L 749.649684 -66.473389 
L 725.235489 -68.808529 
L 700.821293 -71.214289 
L 676.407098 -74.366562 
L 651.992902 -77.778648 
L 627.578707 -86.679666 
L 603.164511 -98.948656 
L 578.750316 -124.489944 
L 554.336121 -183.91438 
L 529.921925 -365.04 
z
" style="stroke: #3969ac; stroke-opacity: 0.1"/>
    </defs>
    <g clip-path="url(#p0e8e0fa559)">
     <use xlink:href="#m97612f2d98" x="0" y="432" style="fill: #3969ac; fill-opacity: 0.1; stroke: #3969ac; stroke-opacity: 0.1"/>
    </g>
   </g>
   <g id="matplotlib.axis_3">
    <g id="xtick_7">
     <g id="line2d_22">
      <g>
       <use xlink:href="#md652abb32f" x="554.336121" y="384.48" style="stroke: #000000; stroke-width: 0.8"/>
      </g>
     </g>
     <g id="text_19">
      <text style="font: 10px 'sans-serif'; text-anchor: middle" x="554.336121" y="399.078438" transform="rotate(-0, 554.336121, 399.078438)">2</text>
     </g>
    </g>
    <g id="xtick_8">
     <g id="line2d_23">
      <g>
       <use xlink:href="#md652abb32f" x="603.164511" y="384.48" style="stroke: #000000; stroke-width: 0.8"/>
      </g>
     </g>
     <g id="text_20">
      <text style="font: 10px 'sans-serif'; text-anchor: middle" x="603.164511" y="399.078438" transform="rotate(-0, 603.164511, 399.078438)">4</text>
     </g>
    </g>
    <g id="xtick_9">
     <g id="line2d_24">
      <g>
       <use xlink:href="#md652abb32f" x="651.992902" y="384.48" style="stroke: #000000; stroke-width: 0.8"/>
      </g>
     </g>
     <g id="text_21">
      <text style="font: 10px 'sans-serif'; text-anchor: middle" x="651.992902" y="399.078438" transform="rotate(-0, 651.992902, 399.078438)">6</text>
     </g>
    </g>
    <g id="xtick_10">
     <g id="line2d_25">
      <g>
       <use xlink:href="#md652abb32f" x="700.821293" y="384.48" style="stroke: #000000; stroke-width: 0.8"/>
      </g>
     </g>
     <g id="text_22">
      <text style="font: 10px 'sans-serif'; text-anchor: middle" x="700.821293" y="399.078438" transform="rotate(-0, 700.821293, 399.078438)">8</text>
     </g>
    </g>
    <g id="xtick_11">
     <g id="line2d_26">
      <g>
       <use xlink:href="#md652abb32f" x="749.649684" y="384.48" style="stroke: #000000; stroke-width: 0.8"/>
      </g>
     </g>
     <g id="text_23">
      <text style="font: 10px 'sans-serif'; text-anchor: middle" x="749.649684" y="399.078438" transform="rotate(-0, 749.649684, 399.078438)">10</text>
     </g>
    </g>
    <g id="xtick_12">
     <g id="line2d_27">
      <g>
       <use xlink:href="#md652abb32f" x="798.478075" y="384.48" style="stroke: #000000; stroke-width: 0.8"/>
      </g>
     </g>
     <g id="text_24">
      <text style="font: 10px 'sans-serif'; text-anchor: middle" x="798.478075" y="399.078438" transform="rotate(-0, 798.478075, 399.078438)">12</text>
     </g>
    </g>
    <g id="text_25">
     <text style="font: 10px 'sans-serif'; text-anchor: middle" x="664.2" y="412.756563" transform="rotate(-0, 664.2, 412.756563)">CPUs</text>
    </g>
   </g>
   <g id="matplotlib.axis_4">
    <g id="ytick_8">
     <g id="line2d_28">
      <g>
       <use xlink:href="#m7cf6f8fc88" x="516.494118" y="369.678182" style="stroke: #000000; stroke-width: 0.8"/>
      </g>
     </g>
     <g id="text_26">
      <text style="font: 10px 'sans-serif'; text-anchor: end" x="509.494118" y="373.4774" transform="rotate(-0, 509.494118, 373.4774)">20</text>
     </g>
    </g>
    <g id="ytick_9">
     <g id="line2d_29">
      <g>
       <use xlink:href="#m7cf6f8fc88" x="516.494118" y="305.097151" style="stroke: #000000; stroke-width: 0.8"/>
      </g>
     </g>
     <g id="text_27">
      <text style="font: 10px 'sans-serif'; text-anchor: end" x="509.494118" y="308.89637" transform="rotate(-0, 509.494118, 308.89637)">40</text>
     </g>
    </g>
    <g id="ytick_10">
     <g id="line2d_30">
      <g>
       <use xlink:href="#m7cf6f8fc88" x="516.494118" y="240.516121" style="stroke: #000000; stroke-width: 0.8"/>
      </g>
     </g>
     <g id="text_28">
      <text style="font: 10px 'sans-serif'; text-anchor: end" x="509.494118" y="244.315339" transform="rotate(-0, 509.494118, 244.315339)">60</text>
     </g>
    </g>
    <g id="ytick_11">
     <g id="line2d_31">
      <g>
       <use xlink:href="#m7cf6f8fc88" x="516.494118" y="175.93509" style="stroke: #000000; stroke-width: 0.8"/>
      </g>
     </g>
     <g id="text_29">
      <text style="font: 10px 'sans-serif'; text-anchor: end" x="509.494118" y="179.734309" transform="rotate(-0, 509.494118, 179.734309)">80</text>
     </g>
    </g>
    <g id="ytick_12">
     <g id="line2d_32">
      <g>
       <use xlink:href="#m7cf6f8fc88" x="516.494118" y="111.35406" style="stroke: #000000; stroke-width: 0.8"/>
      </g>
     </g>
     <g id="text_30">
      <text style="font: 10px 'sans-serif'; text-anchor: end" x="509.494118" y="115.153279" transform="rotate(-0, 509.494118, 115.153279)">100</text>
     </g>
    </g>
    <g id="text_31">
     <text style="font: 10px 'sans-serif'; text-anchor: middle" x="484.32693" y="218.16" transform="rotate(-90, 484.32693, 218.16)">Time (s)</text>
    </g>
   </g>
   <g id="line2d_33">
    <path d="M 529.921925 86.697372 
L 554.336121 153.456385 
L 578.750316 152.45706 
L 603.164511 150.676641 
L 627.578707 148.973453 
L 651.992902 144.452064 
L 676.407098 141.551817 
L 700.821293 139.352078 
L 725.235489 137.551097 
L 749.649684 136.936284 
L 774.063879 137.204817 
L 798.478075 137.515395 
" clip-path="url(#p0e8e0fa559)" style="fill: none; stroke: #11a579; stroke-width: 1.5; stroke-linecap: square"/>
    <g clip-path="url(#p0e8e0fa559)">
     <use xlink:href="#ma63c37b6b0" x="529.921925" y="86.697372" style="fill: #11a579; stroke: #11a579"/>
     <use xlink:href="#ma63c37b6b0" x="554.336121" y="153.456385" style="fill: #11a579; stroke: #11a579"/>
     <use xlink:href="#ma63c37b6b0" x="578.750316" y="152.45706" style="fill: #11a579; stroke: #11a579"/>
     <use xlink:href="#ma63c37b6b0" x="603.164511" y="150.676641" style="fill: #11a579; stroke: #11a579"/>
     <use xlink:href="#ma63c37b6b0" x="627.578707" y="148.973453" style="fill: #11a579; stroke: #11a579"/>
     <use xlink:href="#ma63c37b6b0" x="651.992902" y="144.452064" style="fill: #11a579; stroke: #11a579"/>
     <use xlink:href="#ma63c37b6b0" x="676.407098" y="141.551817" style="fill: #11a579; stroke: #11a579"/>
     <use xlink:href="#ma63c37b6b0" x="700.821293" y="139.352078" style="fill: #11a579; stroke: #11a579"/>
     <use xlink:href="#ma63c37b6b0" x="725.235489" y="137.551097" style="fill: #11a579; stroke: #11a579"/>
     <use xlink:href="#ma63c37b6b0" x="749.649684" y="136.936284" style="fill: #11a579; stroke: #11a579"/>
     <use xlink:href="#ma63c37b6b0" x="774.063879" y="137.204817" style="fill: #11a579; stroke: #11a579"/>
     <use xlink:href="#ma63c37b6b0" x="798.478075" y="137.515395" style="fill: #11a579; stroke: #11a579"/>
    </g>
   </g>
   <g id="line2d_34">
    <path d="M 529.921925 67.284148 
L 554.336121 248.218455 
L 578.750316 307.561409 
L 603.164511 333.754581 
L 627.578707 345.972805 
L 651.992902 354.387128 
L 676.407098 357.898644 
L 700.821293 360.972665 
L 725.235489 363.490269 
L 749.649684 365.674191 
L 774.063879 367.657408 
L 798.478075 369.120909 
" clip-path="url(#p0e8e0fa559)" style="fill: none; stroke: #3969ac; stroke-width: 1.5; stroke-linecap: square"/>
    <g clip-path="url(#p0e8e0fa559)">
     <use xlink:href="#mc8423e1940" x="529.921925" y="67.284148" style="fill: #3969ac; stroke: #3969ac"/>
     <use xlink:href="#mc8423e1940" x="554.336121" y="248.218455" style="fill: #3969ac; stroke: #3969ac"/>
     <use xlink:href="#mc8423e1940" x="578.750316" y="307.561409" style="fill: #3969ac; stroke: #3969ac"/>
     <use xlink:href="#mc8423e1940" x="603.164511" y="333.754581" style="fill: #3969ac; stroke: #3969ac"/>
     <use xlink:href="#mc8423e1940" x="627.578707" y="345.972805" style="fill: #3969ac; stroke: #3969ac"/>
     <use xlink:href="#mc8423e1940" x="651.992902" y="354.387128" style="fill: #3969ac; stroke: #3969ac"/>
     <use xlink:href="#mc8423e1940" x="676.407098" y="357.898644" style="fill: #3969ac; stroke: #3969ac"/>
     <use xlink:href="#mc8423e1940" x="700.821293" y="360.972665" style="fill: #3969ac; stroke: #3969ac"/>
     <use xlink:href="#mc8423e1940" x="725.235489" y="363.490269" style="fill: #3969ac; stroke: #3969ac"/>
     <use xlink:href="#mc8423e1940" x="749.649684" y="365.674191" style="fill: #3969ac; stroke: #3969ac"/>
     <use xlink:href="#mc8423e1940" x="774.063879" y="367.657408" style="fill: #3969ac; stroke: #3969ac"/>
     <use xlink:href="#mc8423e1940" x="798.478075" y="369.120909" style="fill: #3969ac; stroke: #3969ac"/>
    </g>
   </g>
   <g id="patch_9">
    <path d="M 516.494118 384.48 
L 516.494118 51.84 
" style="fill: none; stroke: #000000; stroke-width: 0.8; stroke-linejoin: miter; stroke-linecap: square"/>
   </g>
   <g id="patch_10">
    <path d="M 811.905882 384.48 
L 811.905882 51.84 
" style="fill: none; stroke: #000000; stroke-width: 0.8; stroke-linejoin: miter; stroke-linecap: square"/>
   </g>
   <g id="patch_11">
    <path d="M 516.494118 384.48 
L 811.905882 384.48 
" style="fill: none; stroke: #000000; stroke-width: 0.8; stroke-linejoin: miter; stroke-linecap: square"/>
   </g>
   <g id="patch_12">
    <path d="M 516.494118 51.84 
L 811.905882 51.84 
" style="fill: none; stroke: #000000; stroke-width: 0.8; stroke-linejoin: miter; stroke-linecap: square"/>
   </g>
   <g id="legend_2">
    <g id="patch_13">
     <path d="M 724.555882 89.19625 
L 804.905882 89.19625 
Q 806.905882 89.19625 806.905882 87.19625 
L 806.905882 58.84 
Q 806.905882 56.84 804.905882 56.84 
L 724.555882 56.84 
Q 722.555882 56.84 722.555882 58.84 
L 722.555882 87.19625 
Q 722.555882 89.19625 724.555882 89.19625 
z
" style="fill: #ffffff; opacity: 0.8; stroke: #cccccc; stroke-linejoin: miter"/>
    </g>
    <g id="line2d_35">
     <path d="M 726.555882 64.938437 
L 736.555882 64.938437 
L 746.555882 64.938437 
" style="fill: none; stroke: #11a579; stroke-width: 1.5; stroke-linecap: square"/>
     <g>
      <use xlink:href="#ma63c37b6b0" x="736.555882" y="64.938437" style="fill: #11a579; stroke: #11a579"/>
     </g>
    </g>
    <g id="text_32">
     <text style="font: 10px 'sans-serif'; text-anchor: start" x="754.555882" y="68.438437" transform="rotate(-0, 754.555882, 68.438437)">phmmer</text>
    </g>
    <g id="line2d_36">
     <path d="M 726.555882 79.616562 
L 736.555882 79.616562 
L 746.555882 79.616562 
" style="fill: none; stroke: #3969ac; stroke-width: 1.5; stroke-linecap: square"/>
     <g>
      <use xlink:href="#mc8423e1940" x="736.555882" y="79.616562" style="fill: #3969ac; stroke: #3969ac"/>
     </g>
    </g>
    <g id="text_33">
     <text style="font: 10px 'sans-serif'; text-anchor: start" x="754.555882" y="83.116562" transform="rotate(-0, 754.555882, 83.116562)">pyhmmer</text>
    </g>
   </g>
  </g>
  <g id="axes_3">
   <g id="patch_14">
    <path d="M 870.988235 384.48 
L 1166.4 384.48 
L 1166.4 51.84 
L 870.988235 51.84 
L 870.988235 384.48 
z
" style="fill: none"/>
   </g>
   <g id="PolyCollection_8">
    <defs>
     <path id="m0a0e351c19" d="M 884.416043 -333.577121 
L 884.416043 -332.082305 
L 908.830238 -149.304545 
L 933.244434 -99.269447 
L 957.658629 -79.723499 
L 982.072825 -68.841441 
L 1006.48702 -64.095982 
L 1030.901215 -66.283643 
L 1055.315411 -66.4445 
L 1079.729606 -65.325651 
L 1104.143802 -64.648527 
L 1128.557997 -63.362946 
L 1152.972193 -62.64 
L 1152.972193 -63.564869 
L 1152.972193 -63.564869 
L 1128.557997 -64.349764 
L 1104.143802 -65.619853 
L 1079.729606 -66.366729 
L 1055.315411 -67.760591 
L 1030.901215 -67.797692 
L 1006.48702 -65.857834 
L 982.072825 -70.178884 
L 957.658629 -80.224403 
L 933.244434 -99.860039 
L 908.830238 -149.974695 
L 884.416043 -333.577121 
z
" style="stroke: #11a579; stroke-opacity: 0.1"/>
    </defs>
    <g clip-path="url(#p1049ed8c8d)">
     <use xlink:href="#m0a0e351c19" x="0" y="432" style="fill: #11a579; fill-opacity: 0.1; stroke: #11a579; stroke-opacity: 0.1"/>
    </g>
   </g>
   <g id="PolyCollection_9">
    <defs>
     <path id="m42b9d36cb9" d="M 884.416043 -365.04 
L 884.416043 -363.339865 
L 908.830238 -173.868078 
L 933.244434 -129.777949 
L 957.658629 -111.096138 
L 982.072825 -100.32007 
L 1006.48702 -93.106842 
L 1030.901215 -91.841492 
L 1055.315411 -90.429794 
L 1079.729606 -90.308262 
L 1104.143802 -88.208419 
L 1128.557997 -89.990659 
L 1152.972193 -89.219496 
L 1152.972193 -90.094189 
L 1152.972193 -90.094189 
L 1128.557997 -91.734635 
L 1104.143802 -91.481295 
L 1079.729606 -92.43359 
L 1055.315411 -93.779385 
L 1030.901215 -92.678133 
L 1006.48702 -94.980502 
L 982.072825 -102.202218 
L 957.658629 -111.916147 
L 933.244434 -132.110638 
L 908.830238 -175.101608 
L 884.416043 -365.04 
z
" style="stroke: #3969ac; stroke-opacity: 0.1"/>
    </defs>
    <g clip-path="url(#p1049ed8c8d)">
     <use xlink:href="#m42b9d36cb9" x="0" y="432" style="fill: #3969ac; fill-opacity: 0.1; stroke: #3969ac; stroke-opacity: 0.1"/>
    </g>
   </g>
   <g id="matplotlib.axis_5">
    <g id="xtick_13">
     <g id="line2d_37">
      <g>
       <use xlink:href="#md652abb32f" x="908.830238" y="384.48" style="stroke: #000000; stroke-width: 0.8"/>
      </g>
     </g>
     <g id="text_34">
      <text style="font: 10px 'sans-serif'; text-anchor: middle" x="908.830238" y="399.078438" transform="rotate(-0, 908.830238, 399.078438)">2</text>
     </g>
    </g>
    <g id="xtick_14">
     <g id="line2d_38">
      <g>
       <use xlink:href="#md652abb32f" x="957.658629" y="384.48" style="stroke: #000000; stroke-width: 0.8"/>
      </g>
     </g>
     <g id="text_35">
      <text style="font: 10px 'sans-serif'; text-anchor: middle" x="957.658629" y="399.078438" transform="rotate(-0, 957.658629, 399.078438)">4</text>
     </g>
    </g>
    <g id="xtick_15">
     <g id="line2d_39">
      <g>
       <use xlink:href="#md652abb32f" x="1006.48702" y="384.48" style="stroke: #000000; stroke-width: 0.8"/>
      </g>
     </g>
     <g id="text_36">
      <text style="font: 10px 'sans-serif'; text-anchor: middle" x="1006.48702" y="399.078438" transform="rotate(-0, 1006.48702, 399.078438)">6</text>
     </g>
    </g>
    <g id="xtick_16">
     <g id="line2d_40">
      <g>
       <use xlink:href="#md652abb32f" x="1055.315411" y="384.48" style="stroke: #000000; stroke-width: 0.8"/>
      </g>
     </g>
     <g id="text_37">
      <text style="font: 10px 'sans-serif'; text-anchor: middle" x="1055.315411" y="399.078438" transform="rotate(-0, 1055.315411, 399.078438)">8</text>
     </g>
    </g>
    <g id="xtick_17">
     <g id="line2d_41">
      <g>
       <use xlink:href="#md652abb32f" x="1104.143802" y="384.48" style="stroke: #000000; stroke-width: 0.8"/>
      </g>
     </g>
     <g id="text_38">
      <text style="font: 10px 'sans-serif'; text-anchor: middle" x="1104.143802" y="399.078438" transform="rotate(-0, 1104.143802, 399.078438)">10</text>
     </g>
    </g>
    <g id="xtick_18">
     <g id="line2d_42">
      <g>
       <use xlink:href="#md652abb32f" x="1152.972193" y="384.48" style="stroke: #000000; stroke-width: 0.8"/>
      </g>
     </g>
     <g id="text_39">
      <text style="font: 10px 'sans-serif'; text-anchor: middle" x="1152.972193" y="399.078438" transform="rotate(-0, 1152.972193, 399.078438)">12</text>
     </g>
    </g>
    <g id="text_40">
     <text style="font: 10px 'sans-serif'; text-anchor: middle" x="1018.694118" y="412.756563" transform="rotate(-0, 1018.694118, 412.756563)">CPUs</text>
    </g>
   </g>
   <g id="matplotlib.axis_6">
    <g id="ytick_13">
     <g id="line2d_43">
      <g>
       <use xlink:href="#m7cf6f8fc88" x="870.988235" y="345.711609" style="stroke: #000000; stroke-width: 0.8"/>
      </g>
     </g>
     <g id="text_41">
      <text style="font: 10px 'sans-serif'; text-anchor: end" x="863.988235" y="349.510828" transform="rotate(-0, 863.988235, 349.510828)">60</text>
     </g>
    </g>
    <g id="ytick_14">
     <g id="line2d_44">
      <g>
       <use xlink:href="#m7cf6f8fc88" x="870.988235" y="284.176854" style="stroke: #000000; stroke-width: 0.8"/>
      </g>
     </g>
     <g id="text_42">
      <text style="font: 10px 'sans-serif'; text-anchor: end" x="863.988235" y="287.976072" transform="rotate(-0, 863.988235, 287.976072)">80</text>
     </g>
    </g>
    <g id="ytick_15">
     <g id="line2d_45">
      <g>
       <use xlink:href="#m7cf6f8fc88" x="870.988235" y="222.642098" style="stroke: #000000; stroke-width: 0.8"/>
      </g>
     </g>
     <g id="text_43">
      <text style="font: 10px 'sans-serif'; text-anchor: end" x="863.988235" y="226.441317" transform="rotate(-0, 863.988235, 226.441317)">100</text>
     </g>
    </g>
    <g id="ytick_16">
     <g id="line2d_46">
      <g>
       <use xlink:href="#m7cf6f8fc88" x="870.988235" y="161.107343" style="stroke: #000000; stroke-width: 0.8"/>
      </g>
     </g>
     <g id="text_44">
      <text style="font: 10px 'sans-serif'; text-anchor: end" x="863.988235" y="164.906562" transform="rotate(-0, 863.988235, 164.906562)">120</text>
     </g>
    </g>
    <g id="ytick_17">
     <g id="line2d_47">
      <g>
       <use xlink:href="#m7cf6f8fc88" x="870.988235" y="99.572588" style="stroke: #000000; stroke-width: 0.8"/>
      </g>
     </g>
     <g id="text_45">
      <text style="font: 10px 'sans-serif'; text-anchor: end" x="863.988235" y="103.371807" transform="rotate(-0, 863.988235, 103.371807)">140</text>
     </g>
    </g>
    <g id="text_46">
     <text style="font: 10px 'sans-serif'; text-anchor: middle" x="838.821048" y="218.16" transform="rotate(-90, 838.821048, 218.16)">Time (s)</text>
    </g>
   </g>
   <g id="line2d_48">
    <path d="M 884.416043 99.170287 
L 908.830238 282.36038 
L 933.244434 332.435257 
L 957.658629 352.026049 
L 982.072825 362.489837 
L 1006.48702 367.023092 
L 1030.901215 364.959333 
L 1055.315411 364.897455 
L 1079.729606 366.15381 
L 1104.143802 366.86581 
L 1128.557997 368.143645 
L 1152.972193 368.897565 
" clip-path="url(#p1049ed8c8d)" style="fill: none; stroke: #11a579; stroke-width: 1.5; stroke-linecap: square"/>
    <g clip-path="url(#p1049ed8c8d)">
     <use xlink:href="#ma63c37b6b0" x="884.416043" y="99.170287" style="fill: #11a579; stroke: #11a579"/>
     <use xlink:href="#ma63c37b6b0" x="908.830238" y="282.36038" style="fill: #11a579; stroke: #11a579"/>
     <use xlink:href="#ma63c37b6b0" x="933.244434" y="332.435257" style="fill: #11a579; stroke: #11a579"/>
     <use xlink:href="#ma63c37b6b0" x="957.658629" y="352.026049" style="fill: #11a579; stroke: #11a579"/>
     <use xlink:href="#ma63c37b6b0" x="982.072825" y="362.489837" style="fill: #11a579; stroke: #11a579"/>
     <use xlink:href="#ma63c37b6b0" x="1006.48702" y="367.023092" style="fill: #11a579; stroke: #11a579"/>
     <use xlink:href="#ma63c37b6b0" x="1030.901215" y="364.959333" style="fill: #11a579; stroke: #11a579"/>
     <use xlink:href="#ma63c37b6b0" x="1055.315411" y="364.897455" style="fill: #11a579; stroke: #11a579"/>
     <use xlink:href="#ma63c37b6b0" x="1079.729606" y="366.15381" style="fill: #11a579; stroke: #11a579"/>
     <use xlink:href="#ma63c37b6b0" x="1104.143802" y="366.86581" style="fill: #11a579; stroke: #11a579"/>
     <use xlink:href="#ma63c37b6b0" x="1128.557997" y="368.143645" style="fill: #11a579; stroke: #11a579"/>
     <use xlink:href="#ma63c37b6b0" x="1152.972193" y="368.897565" style="fill: #11a579; stroke: #11a579"/>
    </g>
   </g>
   <g id="line2d_49">
    <path d="M 884.416043 67.810068 
L 908.830238 257.515157 
L 933.244434 301.055706 
L 957.658629 320.493857 
L 982.072825 330.738856 
L 1006.48702 337.956328 
L 1030.901215 339.740188 
L 1055.315411 339.89541 
L 1079.729606 340.629074 
L 1104.143802 342.155143 
L 1128.557997 341.137353 
L 1152.972193 342.343158 
" clip-path="url(#p1049ed8c8d)" style="fill: none; stroke: #3969ac; stroke-width: 1.5; stroke-linecap: square"/>
    <g clip-path="url(#p1049ed8c8d)">
     <use xlink:href="#mc8423e1940" x="884.416043" y="67.810068" style="fill: #3969ac; stroke: #3969ac"/>
     <use xlink:href="#mc8423e1940" x="908.830238" y="257.515157" style="fill: #3969ac; stroke: #3969ac"/>
     <use xlink:href="#mc8423e1940" x="933.244434" y="301.055706" style="fill: #3969ac; stroke: #3969ac"/>
     <use xlink:href="#mc8423e1940" x="957.658629" y="320.493857" style="fill: #3969ac; stroke: #3969ac"/>
     <use xlink:href="#mc8423e1940" x="982.072825" y="330.738856" style="fill: #3969ac; stroke: #3969ac"/>
     <use xlink:href="#mc8423e1940" x="1006.48702" y="337.956328" style="fill: #3969ac; stroke: #3969ac"/>
     <use xlink:href="#mc8423e1940" x="1030.901215" y="339.740188" style="fill: #3969ac; stroke: #3969ac"/>
     <use xlink:href="#mc8423e1940" x="1055.315411" y="339.89541" style="fill: #3969ac; stroke: #3969ac"/>
     <use xlink:href="#mc8423e1940" x="1079.729606" y="340.629074" style="fill: #3969ac; stroke: #3969ac"/>
     <use xlink:href="#mc8423e1940" x="1104.143802" y="342.155143" style="fill: #3969ac; stroke: #3969ac"/>
     <use xlink:href="#mc8423e1940" x="1128.557997" y="341.137353" style="fill: #3969ac; stroke: #3969ac"/>
     <use xlink:href="#mc8423e1940" x="1152.972193" y="342.343158" style="fill: #3969ac; stroke: #3969ac"/>
    </g>
   </g>
   <g id="patch_15">
    <path d="M 870.988235 384.48 
L 870.988235 51.84 
" style="fill: none; stroke: #000000; stroke-width: 0.8; stroke-linejoin: miter; stroke-linecap: square"/>
   </g>
   <g id="patch_16">
    <path d="M 1166.4 384.48 
L 1166.4 51.84 
" style="fill: none; stroke: #000000; stroke-width: 0.8; stroke-linejoin: miter; stroke-linecap: square"/>
   </g>
   <g id="patch_17">
    <path d="M 870.988235 384.48 
L 1166.4 384.48 
" style="fill: none; stroke: #000000; stroke-width: 0.8; stroke-linejoin: miter; stroke-linecap: square"/>
   </g>
   <g id="patch_18">
    <path d="M 870.988235 51.84 
L 1166.4 51.84 
" style="fill: none; stroke: #000000; stroke-width: 0.8; stroke-linejoin: miter; stroke-linecap: square"/>
   </g>
   <g id="legend_3">
    <g id="patch_19">
     <path d="M 1079.05 89.19625 
L 1159.4 89.19625 
Q 1161.4 89.19625 1161.4 87.19625 
L 1161.4 58.84 
Q 1161.4 56.84 1159.4 56.84 
L 1079.05 56.84 
Q 1077.05 56.84 1077.05 58.84 
L 1077.05 87.19625 
Q 1077.05 89.19625 1079.05 89.19625 
z
" style="fill: #ffffff; opacity: 0.8; stroke: #cccccc; stroke-linejoin: miter"/>
    </g>
    <g id="line2d_50">
     <path d="M 1081.05 64.938437 
L 1091.05 64.938437 
L 1101.05 64.938437 
" style="fill: none; stroke: #11a579; stroke-width: 1.5; stroke-linecap: square"/>
     <g>
      <use xlink:href="#ma63c37b6b0" x="1091.05" y="64.938437" style="fill: #11a579; stroke: #11a579"/>
     </g>
    </g>
    <g id="text_47">
     <text style="font: 10px 'sans-serif'; text-anchor: start" x="1109.05" y="68.438437" transform="rotate(-0, 1109.05, 68.438437)">nhmmer</text>
    </g>
    <g id="line2d_51">
     <path d="M 1081.05 79.616562 
L 1091.05 79.616562 
L 1101.05 79.616562 
" style="fill: none; stroke: #3969ac; stroke-width: 1.5; stroke-linecap: square"/>
     <g>
      <use xlink:href="#mc8423e1940" x="1091.05" y="79.616562" style="fill: #3969ac; stroke: #3969ac"/>
     </g>
    </g>
    <g id="text_48">
     <text style="font: 10px 'sans-serif'; text-anchor: start" x="1109.05" y="83.116562" transform="rotate(-0, 1109.05, 83.116562)">pyhmmer</text>
    </g>
   </g>
  </g>
 </g>
 <defs>
  <clipPath id="pc3d601d7ac">
   <rect x="162" y="51.84" width="295.411765" height="332.64"/>
  </clipPath>
  <clipPath id="p0e8e0fa559">
   <rect x="516.494118" y="51.84" width="295.411765" height="332.64"/>
  </clipPath>
  <clipPath id="p1049ed8c8d">
   <rect x="870.988235" y="51.84" width="295.411765" height="332.64"/>
  </clipPath>
 </defs>
</svg>
