<svg xmlns="http://www.w3.org/2000/svg" xmlns:xlink="http://www.w3.org/1999/xlink" width="1152" height="576" version="1.1" viewBox="0 0 864 432"><metadata><rdf:RDF xmlns:cc="http://creativecommons.org/ns#" xmlns:dc="http://purl.org/dc/elements/1.1/" xmlns:rdf="http://www.w3.org/1999/02/22-rdf-syntax-ns#"><cc:Work><dc:type rdf:resource="http://purl.org/dc/dcmitype/StillImage"/><dc:date>2021-05-10T17:14:01.955892</dc:date><dc:format>image/svg+xml</dc:format><dc:creator><cc:Agent><dc:title>Matplotlib v3.4.1, https://matplotlib.org/</dc:title></cc:Agent></dc:creator></cc:Work></rdf:RDF></metadata><defs><style type="text/css">*{stroke-linecap:butt;stroke-linejoin:round}</style></defs><g id="figure_1"><g id="patch_1"><path d="M 0 432 L 864 432 L 864 0 L 0 0 z" style="fill:none"/></g><g id="axes_1"><g id="patch_2"><path d="M 108 384.48 L 412.363636 384.48 L 412.363636 51.84 L 108 51.84 z" style="fill:none"/></g><g id="PolyCollection_1"><defs><path id="m8b31b5945f" d="M 121.834711 -365.04 L 121.834711 -364.452808 L 146.98873 -342.409541 L 172.14275 -340.333161 L 197.296769 -340.243541 L 222.450789 -339.784613 L 247.604808 -344.949824 L 272.758828 -349.29098 L 297.912847 -350.968064 L 323.066867 -352.361269 L 348.220887 -355.212838 L 373.374906 -358.43635 L 398.528926 -357.606909 L 398.528926 -358.551014 L 398.528926 -358.551014 L 373.374906 -358.960874 L 348.220887 -355.692748 L 323.066867 -352.902895 L 297.912847 -351.419009 L 272.758828 -349.639181 L 247.604808 -345.406208 L 222.450789 -340.969111 L 197.296769 -340.841903 L 172.14275 -341.028098 L 146.98873 -343.04435 L 121.834711 -365.04 z" style="stroke:#7f3c8d;stroke-opacity:.1"/></defs><g clip-path="url(#pe68423a9cf)"><use style="fill:#7f3c8d;fill-opacity:.1;stroke:#7f3c8d;stroke-opacity:.1" x="0" y="432" xlink:href="#m8b31b5945f"/></g></g><g id="PolyCollection_2"><defs><path id="m01ccc6e44b" d="M 121.834711 -169.785788 L 121.834711 -169.654537 L 146.98873 -141.219412 L 172.14275 -143.358237 L 197.296769 -145.329216 L 222.450789 -147.31956 L 247.604808 -157.849587 L 272.758828 -158.798473 L 297.912847 -156.76733 L 323.066867 -154.874875 L 348.220887 -153.00798 L 373.374906 -151.746109 L 398.528926 -150.930159 L 398.528926 -151.086496 L 398.528926 -151.086496 L 373.374906 -152.101238 L 348.220887 -153.320194 L 323.066867 -155.035407 L 297.912847 -157.245532 L 272.758828 -159.724356 L 247.604808 -158.71286 L 222.450789 -147.48171 L 197.296769 -145.386567 L 172.14275 -143.403095 L 146.98873 -141.374706 L 121.834711 -169.785788 z" style="stroke:#11a579;stroke-opacity:.1"/></defs><g clip-path="url(#pe68423a9cf)"><use style="fill:#11a579;fill-opacity:.1;stroke:#11a579;stroke-opacity:.1" x="0" y="432" xlink:href="#m01ccc6e44b"/></g></g><g id="PolyCollection_3"><defs><path id="mecd94747b1" d="M 121.834711 -152.41821 L 121.834711 -152.290142 L 146.98873 -123.140809 L 172.14275 -125.819808 L 197.296769 -127.391803 L 222.450789 -129.383052 L 247.604808 -136.481319 L 272.758828 -136.853864 L 297.912847 -135.677105 L 323.066867 -134.492898 L 348.220887 -133.258762 L 373.374906 -132.410242 L 398.528926 -131.934637 L 398.528926 -132.290571 L 398.528926 -132.290571 L 373.374906 -132.598646 L 348.220887 -133.459165 L 323.066867 -134.64215 L 297.912847 -136.086722 L 272.758828 -137.071462 L 247.604808 -137.207533 L 222.450789 -129.567948 L 197.296769 -127.526015 L 172.14275 -126.175655 L 146.98873 -125.285671 L 121.834711 -152.41821 z" style="stroke:#11a579;stroke-opacity:.1"/></defs><g clip-path="url(#pe68423a9cf)"><use style="fill:#11a579;fill-opacity:.1;stroke:#11a579;stroke-opacity:.1" x="0" y="432" xlink:href="#mecd94747b1"/></g></g><g id="PolyCollection_4"><defs><path id="m5c33e1aae3" d="M 121.834711 -153.056512 L 121.834711 -152.627553 L 146.98873 -98.346106 L 172.14275 -82.162533 L 197.296769 -78.755551 L 222.450789 -89.501767 L 247.604808 -110.338422 L 272.758828 -131.382109 L 297.912847 -146.661088 L 323.066867 -152.749787 L 348.220887 -153.652805 L 373.374906 -153.352285 L 398.528926 -153.15429 L 398.528926 -154.90284 L 398.528926 -154.90284 L 373.374906 -155.452234 L 348.220887 -153.955354 L 323.066867 -153.867854 L 297.912847 -147.576624 L 272.758828 -133.783201 L 247.604808 -111.734791 L 222.450789 -90.578608 L 197.296769 -79.602345 L 172.14275 -82.580397 L 146.98873 -98.67083 L 121.834711 -153.056512 z" style="stroke:#3969ac;stroke-opacity:.1"/></defs><g clip-path="url(#pe68423a9cf)"><use style="fill:#3969ac;fill-opacity:.1;stroke:#3969ac;stroke-opacity:.1" x="0" y="432" xlink:href="#m5c33e1aae3"/></g></g><g id="PolyCollection_5"><defs><path id="m3dd9746072" d="M 121.834711 -135.230487 L 121.834711 -134.759019 L 146.98873 -80.290374 L 172.14275 -64.378595 L 197.296769 -62.64 L 222.450789 -72.271105 L 247.604808 -92.716565 L 272.758828 -113.77284 L 297.912847 -129.746751 L 323.066867 -135.826988 L 348.220887 -137.287887 L 373.374906 -137.792747 L 398.528926 -136.86397 L 398.528926 -138.232893 L 398.528926 -138.232893 L 373.374906 -139.195828 L 348.220887 -138.838543 L 323.066867 -136.585154 L 297.912847 -130.485524 L 272.758828 -116.448769 L 247.604808 -93.665886 L 222.450789 -74.156235 L 197.296769 -62.950543 L 172.14275 -64.640347 L 146.98873 -80.42619 L 121.834711 -135.230487 z" style="stroke:#3969ac;stroke-opacity:.1"/></defs><g clip-path="url(#pe68423a9cf)"><use style="fill:#3969ac;fill-opacity:.1;stroke:#3969ac;stroke-opacity:.1" x="0" y="432" xlink:href="#m3dd9746072"/></g></g><g id="matplotlib.axis_1"><g id="xtick_1"><g id="line2d_1"><defs><path id="md7b624931a" d="M 0 0 L 0 3.5" style="stroke:#000;stroke-width:.8"/></defs><g><use style="stroke:#000;stroke-width:.8" x="146.989" y="384.48" xlink:href="#md7b624931a"/></g></g><g id="text_1"><text style="font-family:DejaVu Sans;font-size:10px;font-stretch:normal;font-style:normal;font-weight:400;text-anchor:middle" x="146.989" y="399.078" transform="rotate(-0, 146.98873, 399.078438)">2</text></g></g><g id="xtick_2"><g id="line2d_2"><g><use style="stroke:#000;stroke-width:.8" x="197.297" y="384.48" xlink:href="#md7b624931a"/></g></g><g id="text_2"><text style="font-family:DejaVu Sans;font-size:10px;font-stretch:normal;font-style:normal;font-weight:400;text-anchor:middle" x="197.297" y="399.078" transform="rotate(-0, 197.296769, 399.078438)">4</text></g></g><g id="xtick_3"><g id="line2d_3"><g><use style="stroke:#000;stroke-width:.8" x="247.605" y="384.48" xlink:href="#md7b624931a"/></g></g><g id="text_3"><text style="font-family:DejaVu Sans;font-size:10px;font-stretch:normal;font-style:normal;font-weight:400;text-anchor:middle" x="247.605" y="399.078" transform="rotate(-0, 247.604808, 399.078438)">6</text></g></g><g id="xtick_4"><g id="line2d_4"><g><use style="stroke:#000;stroke-width:.8" x="297.913" y="384.48" xlink:href="#md7b624931a"/></g></g><g id="text_4"><text style="font-family:DejaVu Sans;font-size:10px;font-stretch:normal;font-style:normal;font-weight:400;text-anchor:middle" x="297.913" y="399.078" transform="rotate(-0, 297.912847, 399.078438)">8</text></g></g><g id="xtick_5"><g id="line2d_5"><g><use style="stroke:#000;stroke-width:.8" x="348.221" y="384.48" xlink:href="#md7b624931a"/></g></g><g id="text_5"><text style="font-family:DejaVu Sans;font-size:10px;font-stretch:normal;font-style:normal;font-weight:400;text-anchor:middle" x="348.221" y="399.078" transform="rotate(-0, 348.220887, 399.078438)">10</text></g></g><g id="xtick_6"><g id="line2d_6"><g><use style="stroke:#000;stroke-width:.8" x="398.529" y="384.48" xlink:href="#md7b624931a"/></g></g><g id="text_6"><text style="font-family:DejaVu Sans;font-size:10px;font-stretch:normal;font-style:normal;font-weight:400;text-anchor:middle" x="398.529" y="399.078" transform="rotate(-0, 398.528926, 399.078438)">12</text></g></g><g id="text_7"><text style="font-family:DejaVu Sans;font-size:10px;font-stretch:normal;font-style:normal;font-weight:400;text-anchor:middle" x="260.182" y="412.757" transform="rotate(-0, 260.181818, 412.756563)">CPUs</text></g></g><g id="matplotlib.axis_2"><g id="ytick_1"><g id="line2d_7"><defs><path id="m635dfca5a6" d="M 0 0 L -3.5 0" style="stroke:#000;stroke-width:.8"/></defs><g><use style="stroke:#000;stroke-width:.8" x="108" y="365.347" xlink:href="#m635dfca5a6"/></g></g><g id="text_8"><text style="font-family:DejaVu Sans;font-size:10px;font-stretch:normal;font-style:normal;font-weight:400;text-anchor:end" x="101" y="369.146" transform="rotate(-0, 101, 369.146049)">50</text></g></g><g id="ytick_2"><g id="line2d_8"><g><use style="stroke:#000;stroke-width:.8" x="108" y="319.269" xlink:href="#m635dfca5a6"/></g></g><g id="text_9"><text style="font-family:DejaVu Sans;font-size:10px;font-stretch:normal;font-style:normal;font-weight:400;text-anchor:end" x="101" y="323.069" transform="rotate(-0, 101, 323.068553)">100</text></g></g><g id="ytick_3"><g id="line2d_9"><g><use style="stroke:#000;stroke-width:.8" x="108" y="273.192" xlink:href="#m635dfca5a6"/></g></g><g id="text_10"><text style="font-family:DejaVu Sans;font-size:10px;font-stretch:normal;font-style:normal;font-weight:400;text-anchor:end" x="101" y="276.991" transform="rotate(-0, 101, 276.991057)">150</text></g></g><g id="ytick_4"><g id="line2d_10"><g><use style="stroke:#000;stroke-width:.8" x="108" y="227.114" xlink:href="#m635dfca5a6"/></g></g><g id="text_11"><text style="font-family:DejaVu Sans;font-size:10px;font-stretch:normal;font-style:normal;font-weight:400;text-anchor:end" x="101" y="230.914" transform="rotate(-0, 101, 230.913561)">200</text></g></g><g id="ytick_5"><g id="line2d_11"><g><use style="stroke:#000;stroke-width:.8" x="108" y="181.037" xlink:href="#m635dfca5a6"/></g></g><g id="text_12"><text style="font-family:DejaVu Sans;font-size:10px;font-stretch:normal;font-style:normal;font-weight:400;text-anchor:end" x="101" y="184.836" transform="rotate(-0, 101, 184.836065)">250</text></g></g><g id="ytick_6"><g id="line2d_12"><g><use style="stroke:#000;stroke-width:.8" x="108" y="134.959" xlink:href="#m635dfca5a6"/></g></g><g id="text_13"><text style="font-family:DejaVu Sans;font-size:10px;font-stretch:normal;font-style:normal;font-weight:400;text-anchor:end" x="101" y="138.759" transform="rotate(-0, 101, 138.75857)">300</text></g></g><g id="ytick_7"><g id="line2d_13"><g><use style="stroke:#000;stroke-width:.8" x="108" y="88.882" xlink:href="#m635dfca5a6"/></g></g><g id="text_14"><text style="font-family:DejaVu Sans;font-size:10px;font-stretch:normal;font-style:normal;font-weight:400;text-anchor:end" x="101" y="92.681" transform="rotate(-0, 101, 92.681074)">350</text></g></g><g id="text_15"><text style="font-family:DejaVu Sans;font-size:10px;font-stretch:normal;font-style:normal;font-weight:400;text-anchor:middle" x="75.833" y="218.16" transform="rotate(-90, 75.832812, 218.16)">Time (s)</text></g></g><g id="line2d_14"><path d="M 121.834711 67.253596 L 146.98873 89.273054 L 172.14275 91.319371 L 197.296769 91.457278 L 222.450789 91.623138 L 247.604808 86.821984 L 272.758828 82.534919 L 297.912847 80.806463 L 323.066867 79.367918 L 348.220887 76.547207 L 373.374906 73.301388 L 398.528926 73.921038" clip-path="url(#pe68423a9cf)" style="fill:none;stroke:#7f3c8d;stroke-linecap:square;stroke-width:1.5"/><defs><path id="m4217c3edba" d="M 0 3 C 0.795609 3 1.55874 2.683901 2.12132 2.12132 C 2.683901 1.55874 3 0.795609 3 0 C 3 -0.795609 2.683901 -1.55874 2.12132 -2.12132 C 1.55874 -2.683901 0.795609 -3 0 -3 C -0.795609 -3 -1.55874 -2.683901 -2.12132 -2.12132 C -2.683901 -1.55874 -3 -0.795609 -3 0 C -3 0.795609 -2.683901 1.55874 -2.12132 2.12132 C -1.55874 2.683901 -0.795609 3 0 3 z" style="stroke:#7f3c8d"/></defs><g clip-path="url(#pe68423a9cf)"><use style="fill:#7f3c8d;stroke:#7f3c8d" x="121.835" y="67.254" xlink:href="#m4217c3edba"/><use style="fill:#7f3c8d;stroke:#7f3c8d" x="146.989" y="89.273" xlink:href="#m4217c3edba"/><use style="fill:#7f3c8d;stroke:#7f3c8d" x="172.143" y="91.319" xlink:href="#m4217c3edba"/><use style="fill:#7f3c8d;stroke:#7f3c8d" x="197.297" y="91.457" xlink:href="#m4217c3edba"/><use style="fill:#7f3c8d;stroke:#7f3c8d" x="222.451" y="91.623" xlink:href="#m4217c3edba"/><use style="fill:#7f3c8d;stroke:#7f3c8d" x="247.605" y="86.822" xlink:href="#m4217c3edba"/><use style="fill:#7f3c8d;stroke:#7f3c8d" x="272.759" y="82.535" xlink:href="#m4217c3edba"/><use style="fill:#7f3c8d;stroke:#7f3c8d" x="297.913" y="80.806" xlink:href="#m4217c3edba"/><use style="fill:#7f3c8d;stroke:#7f3c8d" x="323.067" y="79.368" xlink:href="#m4217c3edba"/><use style="fill:#7f3c8d;stroke:#7f3c8d" x="348.221" y="76.547" xlink:href="#m4217c3edba"/><use style="fill:#7f3c8d;stroke:#7f3c8d" x="373.375" y="73.301" xlink:href="#m4217c3edba"/><use style="fill:#7f3c8d;stroke:#7f3c8d" x="398.529" y="73.921" xlink:href="#m4217c3edba"/></g></g><g id="line2d_15"><path d="M 121.834711 262.279837 L 146.98873 290.702941 L 172.14275 288.619334 L 197.296769 286.642108 L 222.450789 284.599365 L 247.604808 273.718777 L 272.758828 272.738586 L 297.912847 274.993569 L 323.066867 277.044859 L 348.220887 278.835913 L 373.374906 280.076327 L 398.528926 280.991673" clip-path="url(#pe68423a9cf)" style="fill:none;stroke:#11a579;stroke-dasharray:5.55,2.4;stroke-dashoffset:0;stroke-width:1.5"/><defs><path id="me9f7ac455c" d="M 0 3 C 0.795609 3 1.55874 2.683901 2.12132 2.12132 C 2.683901 1.55874 3 0.795609 3 0 C 3 -0.795609 2.683901 -1.55874 2.12132 -2.12132 C 1.55874 -2.683901 0.795609 -3 0 -3 C -0.795609 -3 -1.55874 -2.683901 -2.12132 -2.12132 C -2.683901 -1.55874 -3 -0.795609 -3 0 C -3 0.795609 -2.683901 1.55874 -2.12132 2.12132 C -1.55874 2.683901 -0.795609 3 0 3 z" style="stroke:#11a579"/></defs><g clip-path="url(#pe68423a9cf)"><use style="fill:#11a579;stroke:#11a579" x="121.835" y="262.28" xlink:href="#me9f7ac455c"/><use style="fill:#11a579;stroke:#11a579" x="146.989" y="290.703" xlink:href="#me9f7ac455c"/><use style="fill:#11a579;stroke:#11a579" x="172.143" y="288.619" xlink:href="#me9f7ac455c"/><use style="fill:#11a579;stroke:#11a579" x="197.297" y="286.642" xlink:href="#me9f7ac455c"/><use style="fill:#11a579;stroke:#11a579" x="222.451" y="284.599" xlink:href="#me9f7ac455c"/><use style="fill:#11a579;stroke:#11a579" x="247.605" y="273.719" xlink:href="#me9f7ac455c"/><use style="fill:#11a579;stroke:#11a579" x="272.759" y="272.739" xlink:href="#me9f7ac455c"/><use style="fill:#11a579;stroke:#11a579" x="297.913" y="274.994" xlink:href="#me9f7ac455c"/><use style="fill:#11a579;stroke:#11a579" x="323.067" y="277.045" xlink:href="#me9f7ac455c"/><use style="fill:#11a579;stroke:#11a579" x="348.221" y="278.836" xlink:href="#me9f7ac455c"/><use style="fill:#11a579;stroke:#11a579" x="373.375" y="280.076" xlink:href="#me9f7ac455c"/><use style="fill:#11a579;stroke:#11a579" x="398.529" y="280.992" xlink:href="#me9f7ac455c"/></g></g><g id="line2d_16"><path d="M 121.834711 279.645824 L 146.98873 307.78676 L 172.14275 306.002269 L 197.296769 304.541091 L 222.450789 302.5245 L 247.604808 295.155574 L 272.758828 295.037337 L 297.912847 296.118087 L 323.066867 297.432476 L 348.220887 298.641037 L 373.374906 299.495556 L 398.528926 299.887396" clip-path="url(#pe68423a9cf)" style="fill:none;stroke:#11a579;stroke-linecap:square;stroke-width:1.5"/><g clip-path="url(#pe68423a9cf)"><use style="fill:#11a579;stroke:#11a579" x="121.835" y="279.646" xlink:href="#me9f7ac455c"/><use style="fill:#11a579;stroke:#11a579" x="146.989" y="307.787" xlink:href="#me9f7ac455c"/><use style="fill:#11a579;stroke:#11a579" x="172.143" y="306.002" xlink:href="#me9f7ac455c"/><use style="fill:#11a579;stroke:#11a579" x="197.297" y="304.541" xlink:href="#me9f7ac455c"/><use style="fill:#11a579;stroke:#11a579" x="222.451" y="302.524" xlink:href="#me9f7ac455c"/><use style="fill:#11a579;stroke:#11a579" x="247.605" y="295.156" xlink:href="#me9f7ac455c"/><use style="fill:#11a579;stroke:#11a579" x="272.759" y="295.037" xlink:href="#me9f7ac455c"/><use style="fill:#11a579;stroke:#11a579" x="297.913" y="296.118" xlink:href="#me9f7ac455c"/><use style="fill:#11a579;stroke:#11a579" x="323.067" y="297.432" xlink:href="#me9f7ac455c"/><use style="fill:#11a579;stroke:#11a579" x="348.221" y="298.641" xlink:href="#me9f7ac455c"/><use style="fill:#11a579;stroke:#11a579" x="373.375" y="299.496" xlink:href="#me9f7ac455c"/><use style="fill:#11a579;stroke:#11a579" x="398.529" y="299.887" xlink:href="#me9f7ac455c"/></g></g><g id="line2d_17"><path d="M 121.834711 279.157968 L 146.98873 333.491532 L 172.14275 349.628535 L 197.296769 352.821052 L 222.450789 341.959813 L 247.604808 320.963394 L 272.758828 299.417345 L 297.912847 284.881144 L 323.066867 278.69118 L 348.220887 278.19592 L 373.374906 277.597741 L 398.528926 277.971435" clip-path="url(#pe68423a9cf)" style="fill:none;stroke:#3969ac;stroke-dasharray:5.55,2.4;stroke-dashoffset:0;stroke-width:1.5"/><defs><path id="m333f27e9df" d="M 0 3 C 0.795609 3 1.55874 2.683901 2.12132 2.12132 C 2.683901 1.55874 3 0.795609 3 0 C 3 -0.795609 2.683901 -1.55874 2.12132 -2.12132 C 1.55874 -2.683901 0.795609 -3 0 -3 C -0.795609 -3 -1.55874 -2.683901 -2.12132 -2.12132 C -2.683901 -1.55874 -3 -0.795609 -3 0 C -3 0.795609 -2.683901 1.55874 -2.12132 2.12132 C -1.55874 2.683901 -0.795609 3 0 3 z" style="stroke:#3969ac"/></defs><g clip-path="url(#pe68423a9cf)"><use style="fill:#3969ac;stroke:#3969ac" x="121.835" y="279.158" xlink:href="#m333f27e9df"/><use style="fill:#3969ac;stroke:#3969ac" x="146.989" y="333.492" xlink:href="#m333f27e9df"/><use style="fill:#3969ac;stroke:#3969ac" x="172.143" y="349.629" xlink:href="#m333f27e9df"/><use style="fill:#3969ac;stroke:#3969ac" x="197.297" y="352.821" xlink:href="#m333f27e9df"/><use style="fill:#3969ac;stroke:#3969ac" x="222.451" y="341.96" xlink:href="#m333f27e9df"/><use style="fill:#3969ac;stroke:#3969ac" x="247.605" y="320.963" xlink:href="#m333f27e9df"/><use style="fill:#3969ac;stroke:#3969ac" x="272.759" y="299.417" xlink:href="#m333f27e9df"/><use style="fill:#3969ac;stroke:#3969ac" x="297.913" y="284.881" xlink:href="#m333f27e9df"/><use style="fill:#3969ac;stroke:#3969ac" x="323.067" y="278.691" xlink:href="#m333f27e9df"/><use style="fill:#3969ac;stroke:#3969ac" x="348.221" y="278.196" xlink:href="#m333f27e9df"/><use style="fill:#3969ac;stroke:#3969ac" x="373.375" y="277.598" xlink:href="#m333f27e9df"/><use style="fill:#3969ac;stroke:#3969ac" x="398.529" y="277.971" xlink:href="#m333f27e9df"/></g></g><g id="line2d_18"><path d="M 121.834711 297.005247 L 146.98873 351.641718 L 172.14275 367.490529 L 197.296769 369.204728 L 222.450789 358.78633 L 247.604808 338.808774 L 272.758828 316.889196 L 297.912847 301.883862 L 323.066867 295.793929 L 348.220887 293.936785 L 373.374906 293.505712 L 398.528926 294.451569" clip-path="url(#pe68423a9cf)" style="fill:none;stroke:#3969ac;stroke-linecap:square;stroke-width:1.5"/><g clip-path="url(#pe68423a9cf)"><use style="fill:#3969ac;stroke:#3969ac" x="121.835" y="297.005" xlink:href="#m333f27e9df"/><use style="fill:#3969ac;stroke:#3969ac" x="146.989" y="351.642" xlink:href="#m333f27e9df"/><use style="fill:#3969ac;stroke:#3969ac" x="172.143" y="367.491" xlink:href="#m333f27e9df"/><use style="fill:#3969ac;stroke:#3969ac" x="197.297" y="369.205" xlink:href="#m333f27e9df"/><use style="fill:#3969ac;stroke:#3969ac" x="222.451" y="358.786" xlink:href="#m333f27e9df"/><use style="fill:#3969ac;stroke:#3969ac" x="247.605" y="338.809" xlink:href="#m333f27e9df"/><use style="fill:#3969ac;stroke:#3969ac" x="272.759" y="316.889" xlink:href="#m333f27e9df"/><use style="fill:#3969ac;stroke:#3969ac" x="297.913" y="301.884" xlink:href="#m333f27e9df"/><use style="fill:#3969ac;stroke:#3969ac" x="323.067" y="295.794" xlink:href="#m333f27e9df"/><use style="fill:#3969ac;stroke:#3969ac" x="348.221" y="293.937" xlink:href="#m333f27e9df"/><use style="fill:#3969ac;stroke:#3969ac" x="373.375" y="293.506" xlink:href="#m333f27e9df"/><use style="fill:#3969ac;stroke:#3969ac" x="398.529" y="294.452" xlink:href="#m333f27e9df"/></g></g><g id="patch_3"><path d="M 108 384.48 L 108 51.84" style="fill:none;stroke:#000;stroke-linecap:square;stroke-linejoin:miter;stroke-width:.8"/></g><g id="patch_4"><path d="M 412.363636 384.48 L 412.363636 51.84" style="fill:none;stroke:#000;stroke-linecap:square;stroke-linejoin:miter;stroke-width:.8"/></g><g id="patch_5"><path d="M 108 384.48 L 412.363636 384.48" style="fill:none;stroke:#000;stroke-linecap:square;stroke-linejoin:miter;stroke-width:.8"/></g><g id="patch_6"><path d="M 108 51.84 L 412.363636 51.84" style="fill:none;stroke:#000;stroke-linecap:square;stroke-linejoin:miter;stroke-width:.8"/></g><g id="legend_1"><g id="patch_7"><path d="M 314.332386 379.48 L 405.363636 379.48 Q 407.363636 379.48 407.363636 377.48 L 407.363636 334.445625 Q 407.363636 332.445625 405.363636 332.445625 L 314.332386 332.445625 Q 312.332386 332.445625 312.332386 334.445625 L 312.332386 377.48 Q 312.332386 379.48 314.332386 379.48 z" style="fill:#fff;opacity:.8;stroke:#ccc;stroke-linejoin:miter"/></g><g id="line2d_19"><path d="M 316.332386 340.544062 L 336.332386 340.544062" style="fill:none;stroke:#7f3c8d;stroke-linecap:square;stroke-width:1.5"/></g><g id="line2d_20"><g><use style="fill:#7f3c8d;stroke:#7f3c8d" x="326.332" y="340.544" xlink:href="#m4217c3edba"/></g></g><g id="text_16"><text style="font-family:DejaVu Sans;font-size:10px;font-stretch:normal;font-style:normal;font-weight:400;text-anchor:start" x="344.332" y="344.044" transform="rotate(-0, 344.332386, 344.044062)">hmmscan</text></g><g id="line2d_21"><path d="M 316.332386 355.222188 L 336.332386 355.222188" style="fill:none;stroke:#11a579;stroke-linecap:square;stroke-width:1.5"/></g><g id="line2d_22"><g><use style="fill:#11a579;stroke:#11a579" x="326.332" y="355.222" xlink:href="#me9f7ac455c"/></g></g><g id="text_17"><text style="font-family:DejaVu Sans;font-size:10px;font-stretch:normal;font-style:normal;font-weight:400;text-anchor:start" x="344.332" y="358.722" transform="rotate(-0, 344.332386, 358.722188)">hmmsearch</text></g><g id="line2d_23"><path d="M 316.332386 369.900312 L 336.332386 369.900312" style="fill:none;stroke:#3969ac;stroke-linecap:square;stroke-width:1.5"/></g><g id="line2d_24"><g><use style="fill:#3969ac;stroke:#3969ac" x="326.332" y="369.9" xlink:href="#m333f27e9df"/></g></g><g id="text_18"><text style="font-family:DejaVu Sans;font-size:10px;font-stretch:normal;font-style:normal;font-weight:400;text-anchor:start" x="344.332" y="373.4" transform="rotate(-0, 344.332386, 373.400312)">pyhmmer</text></g></g></g><g id="axes_2"><g id="patch_8"><path d="M 473.236364 384.48 L 777.6 384.48 L 777.6 51.84 L 473.236364 51.84 z" style="fill:none"/></g><g id="PolyCollection_6"><defs><path id="m161cbe43e9" d="M 487.071074 -336.205652 L 487.071074 -335.562608 L 512.225094 -270.426179 L 537.379113 -271.572736 L 562.533133 -272.886275 L 587.687153 -274.850017 L 612.841172 -279.938955 L 637.995192 -282.396127 L 663.149211 -284.750533 L 688.303231 -284.809413 L 713.45725 -284.286684 L 738.61127 -283.814821 L 763.765289 -282.742471 L 763.765289 -284.103256 L 763.765289 -284.103256 L 738.61127 -284.239492 L 713.45725 -284.955422 L 688.303231 -285.875147 L 663.149211 -285.328107 L 637.995192 -282.756194 L 612.841172 -280.224151 L 587.687153 -275.127165 L 562.533133 -273.245285 L 537.379113 -271.710767 L 512.225094 -270.65014 L 487.071074 -336.205652 z" style="stroke:#11a579;stroke-opacity:.1"/></defs><g clip-path="url(#p25bfa87249)"><use style="fill:#11a579;fill-opacity:.1;stroke:#11a579;stroke-opacity:.1" x="0" y="432" xlink:href="#m161cbe43e9"/></g></g><g id="PolyCollection_7"><defs><path id="m6fa2c36983" d="M 487.071074 -365.04 L 487.071074 -364.23581 L 512.225094 -183.470939 L 537.379113 -123.843809 L 562.533133 -97.254279 L 587.687153 -84.818288 L 612.841172 -76.161436 L 637.995192 -72.966496 L 663.149211 -70.090354 L 688.303231 -67.602896 L 713.45725 -65.553524 L 738.61127 -63.891492 L 763.765289 -62.64 L 763.765289 -62.793798 L 763.765289 -62.793798 L 738.61127 -64.073136 L 713.45725 -65.95286 L 688.303231 -67.825582 L 663.149211 -70.510431 L 637.995192 -73.44347 L 612.841172 -76.515507 L 587.687153 -84.93646 L 562.533133 -97.544523 L 537.379113 -124.833121 L 512.225094 -183.610839 L 487.071074 -365.04 z" style="stroke:#3969ac;stroke-opacity:.1"/></defs><g clip-path="url(#p25bfa87249)"><use style="fill:#3969ac;fill-opacity:.1;stroke:#3969ac;stroke-opacity:.1" x="0" y="432" xlink:href="#m6fa2c36983"/></g></g><g id="matplotlib.axis_3"><g id="xtick_7"><g id="line2d_25"><g><use style="stroke:#000;stroke-width:.8" x="512.225" y="384.48" xlink:href="#md7b624931a"/></g></g><g id="text_19"><text style="font-family:DejaVu Sans;font-size:10px;font-stretch:normal;font-style:normal;font-weight:400;text-anchor:middle" x="512.225" y="399.078" transform="rotate(-0, 512.225094, 399.078438)">2</text></g></g><g id="xtick_8"><g id="line2d_26"><g><use style="stroke:#000;stroke-width:.8" x="562.533" y="384.48" xlink:href="#md7b624931a"/></g></g><g id="text_20"><text style="font-family:DejaVu Sans;font-size:10px;font-stretch:normal;font-style:normal;font-weight:400;text-anchor:middle" x="562.533" y="399.078" transform="rotate(-0, 562.533133, 399.078438)">4</text></g></g><g id="xtick_9"><g id="line2d_27"><g><use style="stroke:#000;stroke-width:.8" x="612.841" y="384.48" xlink:href="#md7b624931a"/></g></g><g id="text_21"><text style="font-family:DejaVu Sans;font-size:10px;font-stretch:normal;font-style:normal;font-weight:400;text-anchor:middle" x="612.841" y="399.078" transform="rotate(-0, 612.841172, 399.078438)">6</text></g></g><g id="xtick_10"><g id="line2d_28"><g><use style="stroke:#000;stroke-width:.8" x="663.149" y="384.48" xlink:href="#md7b624931a"/></g></g><g id="text_22"><text style="font-family:DejaVu Sans;font-size:10px;font-stretch:normal;font-style:normal;font-weight:400;text-anchor:middle" x="663.149" y="399.078" transform="rotate(-0, 663.149211, 399.078438)">8</text></g></g><g id="xtick_11"><g id="line2d_29"><g><use style="stroke:#000;stroke-width:.8" x="713.457" y="384.48" xlink:href="#md7b624931a"/></g></g><g id="text_23"><text style="font-family:DejaVu Sans;font-size:10px;font-stretch:normal;font-style:normal;font-weight:400;text-anchor:middle" x="713.457" y="399.078" transform="rotate(-0, 713.45725, 399.078438)">10</text></g></g><g id="xtick_12"><g id="line2d_30"><g><use style="stroke:#000;stroke-width:.8" x="763.765" y="384.48" xlink:href="#md7b624931a"/></g></g><g id="text_24"><text style="font-family:DejaVu Sans;font-size:10px;font-stretch:normal;font-style:normal;font-weight:400;text-anchor:middle" x="763.765" y="399.078" transform="rotate(-0, 763.765289, 399.078438)">12</text></g></g><g id="text_25"><text style="font-family:DejaVu Sans;font-size:10px;font-stretch:normal;font-style:normal;font-weight:400;text-anchor:middle" x="625.418" y="412.757" transform="rotate(-0, 625.418182, 412.756563)">CPUs</text></g></g><g id="matplotlib.axis_4"><g id="ytick_8"><g id="line2d_31"><g><use style="stroke:#000;stroke-width:.8" x="473.236" y="372.097" xlink:href="#m635dfca5a6"/></g></g><g id="text_26"><text style="font-family:DejaVu Sans;font-size:10px;font-stretch:normal;font-style:normal;font-weight:400;text-anchor:end" x="466.236" y="375.896" transform="rotate(-0, 466.236364, 375.896305)">20</text></g></g><g id="ytick_9"><g id="line2d_32"><g><use style="stroke:#000;stroke-width:.8" x="473.236" y="308.68" xlink:href="#m635dfca5a6"/></g></g><g id="text_27"><text style="font-family:DejaVu Sans;font-size:10px;font-stretch:normal;font-style:normal;font-weight:400;text-anchor:end" x="466.236" y="312.479" transform="rotate(-0, 466.236364, 312.479098)">40</text></g></g><g id="ytick_10"><g id="line2d_33"><g><use style="stroke:#000;stroke-width:.8" x="473.236" y="245.263" xlink:href="#m635dfca5a6"/></g></g><g id="text_28"><text style="font-family:DejaVu Sans;font-size:10px;font-stretch:normal;font-style:normal;font-weight:400;text-anchor:end" x="466.236" y="249.062" transform="rotate(-0, 466.236364, 249.061892)">60</text></g></g><g id="ytick_11"><g id="line2d_34"><g><use style="stroke:#000;stroke-width:.8" x="473.236" y="181.845" xlink:href="#m635dfca5a6"/></g></g><g id="text_29"><text style="font-family:DejaVu Sans;font-size:10px;font-stretch:normal;font-style:normal;font-weight:400;text-anchor:end" x="466.236" y="185.645" transform="rotate(-0, 466.236364, 185.644686)">80</text></g></g><g id="ytick_12"><g id="line2d_35"><g><use style="stroke:#000;stroke-width:.8" x="473.236" y="118.428" xlink:href="#m635dfca5a6"/></g></g><g id="text_30"><text style="font-family:DejaVu Sans;font-size:10px;font-stretch:normal;font-style:normal;font-weight:400;text-anchor:end" x="466.236" y="122.227" transform="rotate(-0, 466.236364, 122.227479)">100</text></g></g><g id="ytick_13"><g id="line2d_36"><g><use style="stroke:#000;stroke-width:.8" x="473.236" y="55.011" xlink:href="#m635dfca5a6"/></g></g><g id="text_31"><text style="font-family:DejaVu Sans;font-size:10px;font-stretch:normal;font-style:normal;font-weight:400;text-anchor:end" x="466.236" y="58.81" transform="rotate(-0, 466.236364, 58.810273)">120</text></g></g><g id="text_32"><text style="font-family:DejaVu Sans;font-size:10px;font-stretch:normal;font-style:normal;font-weight:400;text-anchor:middle" x="441.069" y="218.16" transform="rotate(-90, 441.069176, 218.16)">Time (s)</text></g></g><g id="line2d_37"><path d="M 487.071074 96.11587 L 512.225094 161.461841 L 537.379113 160.358249 L 562.533133 158.93422 L 587.687153 157.011409 L 612.841172 151.918447 L 637.995192 149.42384 L 663.149211 146.96068 L 688.303231 146.65772 L 713.45725 147.378947 L 738.61127 147.972844 L 763.765289 148.577136" clip-path="url(#p25bfa87249)" style="fill:none;stroke:#11a579;stroke-linecap:square;stroke-width:1.5"/><g clip-path="url(#p25bfa87249)"><use style="fill:#11a579;stroke:#11a579" x="487.071" y="96.116" xlink:href="#me9f7ac455c"/><use style="fill:#11a579;stroke:#11a579" x="512.225" y="161.462" xlink:href="#me9f7ac455c"/><use style="fill:#11a579;stroke:#11a579" x="537.379" y="160.358" xlink:href="#me9f7ac455c"/><use style="fill:#11a579;stroke:#11a579" x="562.533" y="158.934" xlink:href="#me9f7ac455c"/><use style="fill:#11a579;stroke:#11a579" x="587.687" y="157.011" xlink:href="#me9f7ac455c"/><use style="fill:#11a579;stroke:#11a579" x="612.841" y="151.918" xlink:href="#me9f7ac455c"/><use style="fill:#11a579;stroke:#11a579" x="637.995" y="149.424" xlink:href="#me9f7ac455c"/><use style="fill:#11a579;stroke:#11a579" x="663.149" y="146.961" xlink:href="#me9f7ac455c"/><use style="fill:#11a579;stroke:#11a579" x="688.303" y="146.658" xlink:href="#me9f7ac455c"/><use style="fill:#11a579;stroke:#11a579" x="713.457" y="147.379" xlink:href="#me9f7ac455c"/><use style="fill:#11a579;stroke:#11a579" x="738.611" y="147.973" xlink:href="#me9f7ac455c"/><use style="fill:#11a579;stroke:#11a579" x="763.765" y="148.577" xlink:href="#me9f7ac455c"/></g></g><g id="line2d_38"><path d="M 487.071074 67.362095 L 512.225094 248.459111 L 537.379113 307.661535 L 562.533133 334.600599 L 587.687153 347.122626 L 612.841172 355.661529 L 637.995192 358.795017 L 663.149211 361.699608 L 688.303231 364.285761 L 713.45725 366.246808 L 738.61127 368.017686 L 763.765289 369.283101" clip-path="url(#p25bfa87249)" style="fill:none;stroke:#3969ac;stroke-linecap:square;stroke-width:1.5"/><g clip-path="url(#p25bfa87249)"><use style="fill:#3969ac;stroke:#3969ac" x="487.071" y="67.362" xlink:href="#m333f27e9df"/><use style="fill:#3969ac;stroke:#3969ac" x="512.225" y="248.459" xlink:href="#m333f27e9df"/><use style="fill:#3969ac;stroke:#3969ac" x="537.379" y="307.662" xlink:href="#m333f27e9df"/><use style="fill:#3969ac;stroke:#3969ac" x="562.533" y="334.601" xlink:href="#m333f27e9df"/><use style="fill:#3969ac;stroke:#3969ac" x="587.687" y="347.123" xlink:href="#m333f27e9df"/><use style="fill:#3969ac;stroke:#3969ac" x="612.841" y="355.662" xlink:href="#m333f27e9df"/><use style="fill:#3969ac;stroke:#3969ac" x="637.995" y="358.795" xlink:href="#m333f27e9df"/><use style="fill:#3969ac;stroke:#3969ac" x="663.149" y="361.7" xlink:href="#m333f27e9df"/><use style="fill:#3969ac;stroke:#3969ac" x="688.303" y="364.286" xlink:href="#m333f27e9df"/><use style="fill:#3969ac;stroke:#3969ac" x="713.457" y="366.247" xlink:href="#m333f27e9df"/><use style="fill:#3969ac;stroke:#3969ac" x="738.611" y="368.018" xlink:href="#m333f27e9df"/><use style="fill:#3969ac;stroke:#3969ac" x="763.765" y="369.283" xlink:href="#m333f27e9df"/></g></g><g id="patch_9"><path d="M 473.236364 384.48 L 473.236364 51.84" style="fill:none;stroke:#000;stroke-linecap:square;stroke-linejoin:miter;stroke-width:.8"/></g><g id="patch_10"><path d="M 777.6 384.48 L 777.6 51.84" style="fill:none;stroke:#000;stroke-linecap:square;stroke-linejoin:miter;stroke-width:.8"/></g><g id="patch_11"><path d="M 473.236364 384.48 L 777.6 384.48" style="fill:none;stroke:#000;stroke-linecap:square;stroke-linejoin:miter;stroke-width:.8"/></g><g id="patch_12"><path d="M 473.236364 51.84 L 777.6 51.84" style="fill:none;stroke:#000;stroke-linecap:square;stroke-linejoin:miter;stroke-width:.8"/></g><g id="legend_2"><g id="patch_13"><path d="M 690.25 89.19625 L 770.6 89.19625 Q 772.6 89.19625 772.6 87.19625 L 772.6 58.84 Q 772.6 56.84 770.6 56.84 L 690.25 56.84 Q 688.25 56.84 688.25 58.84 L 688.25 87.19625 Q 688.25 89.19625 690.25 89.19625 z" style="fill:#fff;opacity:.8;stroke:#ccc;stroke-linejoin:miter"/></g><g id="line2d_39"><path d="M 692.25 64.938437 L 712.25 64.938437" style="fill:none;stroke:#11a579;stroke-linecap:square;stroke-width:1.5"/></g><g id="line2d_40"><g><use style="fill:#11a579;stroke:#11a579" x="702.25" y="64.938" xlink:href="#me9f7ac455c"/></g></g><g id="text_33"><text style="font-family:DejaVu Sans;font-size:10px;font-stretch:normal;font-style:normal;font-weight:400;text-anchor:start" x="720.25" y="68.438" transform="rotate(-0, 720.25, 68.438437)">phmmer</text></g><g id="line2d_41"><path d="M 692.25 79.616562 L 712.25 79.616562" style="fill:none;stroke:#3969ac;stroke-linecap:square;stroke-width:1.5"/></g><g id="line2d_42"><g><use style="fill:#3969ac;stroke:#3969ac" x="702.25" y="79.617" xlink:href="#m333f27e9df"/></g></g><g id="text_34"><text style="font-family:DejaVu Sans;font-size:10px;font-stretch:normal;font-style:normal;font-weight:400;text-anchor:start" x="720.25" y="83.117" transform="rotate(-0, 720.25, 83.116562)">pyhmmer</text></g></g></g></g><defs><clipPath id="pe68423a9cf"><rect width="304.364" height="332.64" x="108" y="51.84"/></clipPath><clipPath id="p25bfa87249"><rect width="304.364" height="332.64" x="473.236" y="51.84"/></clipPath></defs></svg>