<svg xmlns="http://www.w3.org/2000/svg" xmlns:xlink="http://www.w3.org/1999/xlink" width="1152" height="576" version="1.1" viewBox="0 0 864 432"><metadata><rdf:RDF xmlns:cc="http://creativecommons.org/ns#" xmlns:dc="http://purl.org/dc/elements/1.1/" xmlns:rdf="http://www.w3.org/1999/02/22-rdf-syntax-ns#"><cc:Work><dc:type rdf:resource="http://purl.org/dc/dcmitype/StillImage"/><dc:date>2021-07-23T00:04:01.949429</dc:date><dc:format>image/svg+xml</dc:format><dc:creator><cc:Agent><dc:title>Matplotlib v3.4.2, https://matplotlib.org/</dc:title></cc:Agent></dc:creator></cc:Work></rdf:RDF></metadata><defs><style type="text/css">*{stroke-linecap:butt;stroke-linejoin:round}</style></defs><g id="figure_1"><g id="patch_1"><path d="M 0 432 L 864 432 L 864 0 L 0 0 z" style="fill:none"/></g><g id="axes_1"><g id="patch_2"><path d="M 108 384.48 L 412.363636 384.48 L 412.363636 51.84 L 108 51.84 z" style="fill:none"/></g><g id="PolyCollection_1"><defs><path id="m65d87e6e4d" d="M 121.834711 -365.04 L 121.834711 -362.842505 L 146.98873 -343.391794 L 172.14275 -342.179111 L 197.296769 -340.8422 L 222.450789 -341.063744 L 247.604808 -344.858277 L 272.758828 -347.936895 L 297.912847 -349.356829 L 323.066867 -350.557667 L 348.220887 -353.086718 L 373.374906 -355.991199 L 398.528926 -354.790735 L 398.528926 -355.275133 L 398.528926 -355.275133 L 373.374906 -356.270556 L 348.220887 -353.297899 L 323.066867 -351.341184 L 297.912847 -350.166078 L 272.758828 -348.549246 L 247.604808 -345.514908 L 222.450789 -342.112481 L 197.296769 -342.394706 L 172.14275 -342.639779 L 146.98873 -344.437016 L 121.834711 -365.04 z" style="stroke:#7f3c8d;stroke-opacity:.1"/></defs><g clip-path="url(#p39043aeff7)"><use style="fill:#7f3c8d;fill-opacity:.1;stroke:#7f3c8d;stroke-opacity:.1" x="0" y="432" xlink:href="#m65d87e6e4d"/></g></g><g id="PolyCollection_2"><defs><path id="m548ee34e51" d="M 121.834711 -176.997801 L 121.834711 -176.873435 L 146.98873 -149.993277 L 172.14275 -152.219365 L 197.296769 -153.78165 L 222.450789 -155.890423 L 247.604808 -166.17199 L 272.758828 -167.091845 L 297.912847 -164.196409 L 323.066867 -162.557644 L 348.220887 -161.023323 L 373.374906 -159.891311 L 398.528926 -158.963847 L 398.528926 -160.593399 L 398.528926 -160.593399 L 373.374906 -161.320861 L 348.220887 -161.449315 L 323.066867 -163.80908 L 297.912847 -165.608581 L 272.758828 -168.228091 L 247.604808 -167.773442 L 222.450789 -157.060683 L 197.296769 -154.831033 L 172.14275 -153.217411 L 146.98873 -151.578365 L 121.834711 -176.997801 z" style="stroke:#11a579;stroke-opacity:.1"/></defs><g clip-path="url(#p39043aeff7)"><use style="fill:#11a579;fill-opacity:.1;stroke:#11a579;stroke-opacity:.1" x="0" y="432" xlink:href="#m548ee34e51"/></g></g><g id="PolyCollection_3"><defs><path id="mb156ed1f29" d="M 121.834711 -161.56519 L 121.834711 -160.732579 L 146.98873 -133.995426 L 172.14275 -135.831114 L 197.296769 -138.540058 L 222.450789 -139.17518 L 247.604808 -146.573458 L 272.758828 -146.144641 L 297.912847 -144.993059 L 323.066867 -143.664518 L 348.220887 -142.763498 L 373.374906 -141.952411 L 398.528926 -141.692091 L 398.528926 -141.925449 L 398.528926 -141.925449 L 373.374906 -143.205632 L 348.220887 -142.898357 L 323.066867 -144.834929 L 297.912847 -146.534748 L 272.758828 -146.990668 L 247.604808 -148.13916 L 222.450789 -139.328276 L 197.296769 -138.581569 L 172.14275 -135.957519 L 146.98873 -134.256167 L 121.834711 -161.56519 z" style="stroke:#11a579;stroke-opacity:.1"/></defs><g clip-path="url(#p39043aeff7)"><use style="fill:#11a579;fill-opacity:.1;stroke:#11a579;stroke-opacity:.1" x="0" y="432" xlink:href="#mb156ed1f29"/></g></g><g id="PolyCollection_4"><defs><path id="mb1677667db" d="M 121.834711 -164.15048 L 121.834711 -162.849206 L 146.98873 -105.967099 L 172.14275 -87.720885 L 197.296769 -79.676873 L 222.450789 -77.02154 L 247.604808 -77.416809 L 272.758828 -77.218472 L 297.912847 -76.497345 L 323.066867 -76.016021 L 348.220887 -75.666284 L 373.374906 -75.528988 L 398.528926 -75.659511 L 398.528926 -75.852006 L 398.528926 -75.852006 L 373.374906 -75.759195 L 348.220887 -75.874306 L 323.066867 -76.171327 L 297.912847 -76.716883 L 272.758828 -77.815079 L 247.604808 -77.887338 L 222.450789 -77.60792 L 197.296769 -79.862858 L 172.14275 -87.990015 L 146.98873 -106.319082 L 121.834711 -164.15048 z" style="stroke:#3969ac;stroke-opacity:.1"/></defs><g clip-path="url(#p39043aeff7)"><use style="fill:#3969ac;fill-opacity:.1;stroke:#3969ac;stroke-opacity:.1" x="0" y="432" xlink:href="#mb1677667db"/></g></g><g id="PolyCollection_5"><defs><path id="mf5d6e70b9d" d="M 121.834711 -146.110507 L 121.834711 -145.754281 L 146.98873 -94.307337 L 172.14275 -77.727201 L 197.296769 -71.141115 L 222.450789 -67.316272 L 247.604808 -64.888324 L 272.758828 -64.560453 L 297.912847 -64.230919 L 323.066867 -63.792641 L 348.220887 -63.369009 L 373.374906 -62.920648 L 398.528926 -62.64 L 398.528926 -62.731403 L 398.528926 -62.731403 L 373.374906 -62.981738 L 348.220887 -63.508105 L 323.066867 -63.953192 L 297.912847 -64.371381 L 272.758828 -64.638545 L 247.604808 -64.979584 L 222.450789 -67.395842 L 197.296769 -71.581901 L 172.14275 -78.476903 L 146.98873 -94.491166 L 121.834711 -146.110507 z" style="stroke:#3969ac;stroke-opacity:.1"/></defs><g clip-path="url(#p39043aeff7)"><use style="fill:#3969ac;fill-opacity:.1;stroke:#3969ac;stroke-opacity:.1" x="0" y="432" xlink:href="#mf5d6e70b9d"/></g></g><g id="matplotlib.axis_1"><g id="xtick_1"><g id="line2d_1"><defs><path id="m2f8e94f65d" d="M 0 0 L 0 3.5" style="stroke:#000;stroke-width:.8"/></defs><g><use style="stroke:#000;stroke-width:.8" x="146.989" y="384.48" xlink:href="#m2f8e94f65d"/></g></g><g id="text_1"><text style="font-family:DejaVu Sans;font-size:10px;font-stretch:normal;font-style:normal;font-weight:400;text-anchor:middle" x="146.989" y="399.078" transform="rotate(-0, 146.98873, 399.078438)">2</text></g></g><g id="xtick_2"><g id="line2d_2"><g><use style="stroke:#000;stroke-width:.8" x="197.297" y="384.48" xlink:href="#m2f8e94f65d"/></g></g><g id="text_2"><text style="font-family:DejaVu Sans;font-size:10px;font-stretch:normal;font-style:normal;font-weight:400;text-anchor:middle" x="197.297" y="399.078" transform="rotate(-0, 197.296769, 399.078438)">4</text></g></g><g id="xtick_3"><g id="line2d_3"><g><use style="stroke:#000;stroke-width:.8" x="247.605" y="384.48" xlink:href="#m2f8e94f65d"/></g></g><g id="text_3"><text style="font-family:DejaVu Sans;font-size:10px;font-stretch:normal;font-style:normal;font-weight:400;text-anchor:middle" x="247.605" y="399.078" transform="rotate(-0, 247.604808, 399.078438)">6</text></g></g><g id="xtick_4"><g id="line2d_4"><g><use style="stroke:#000;stroke-width:.8" x="297.913" y="384.48" xlink:href="#m2f8e94f65d"/></g></g><g id="text_4"><text style="font-family:DejaVu Sans;font-size:10px;font-stretch:normal;font-style:normal;font-weight:400;text-anchor:middle" x="297.913" y="399.078" transform="rotate(-0, 297.912847, 399.078438)">8</text></g></g><g id="xtick_5"><g id="line2d_5"><g><use style="stroke:#000;stroke-width:.8" x="348.221" y="384.48" xlink:href="#m2f8e94f65d"/></g></g><g id="text_5"><text style="font-family:DejaVu Sans;font-size:10px;font-stretch:normal;font-style:normal;font-weight:400;text-anchor:middle" x="348.221" y="399.078" transform="rotate(-0, 348.220887, 399.078438)">10</text></g></g><g id="xtick_6"><g id="line2d_6"><g><use style="stroke:#000;stroke-width:.8" x="398.529" y="384.48" xlink:href="#m2f8e94f65d"/></g></g><g id="text_6"><text style="font-family:DejaVu Sans;font-size:10px;font-stretch:normal;font-style:normal;font-weight:400;text-anchor:middle" x="398.529" y="399.078" transform="rotate(-0, 398.528926, 399.078438)">12</text></g></g><g id="text_7"><text style="font-family:DejaVu Sans;font-size:10px;font-stretch:normal;font-style:normal;font-weight:400;text-anchor:middle" x="260.182" y="412.757" transform="rotate(-0, 260.181818, 412.756563)">CPUs</text></g></g><g id="matplotlib.axis_2"><g id="ytick_1"><g id="line2d_7"><defs><path id="m99cb857a5d" d="M 0 0 L -3.5 0" style="stroke:#000;stroke-width:.8"/></defs><g><use style="stroke:#000;stroke-width:.8" x="108" y="348.085" xlink:href="#m99cb857a5d"/></g></g><g id="text_8"><text style="font-family:DejaVu Sans;font-size:10px;font-stretch:normal;font-style:normal;font-weight:400;text-anchor:end" x="101" y="351.884" transform="rotate(-0, 101, 351.884393)">50</text></g></g><g id="ytick_2"><g id="line2d_8"><g><use style="stroke:#000;stroke-width:.8" x="108" y="305.616" xlink:href="#m99cb857a5d"/></g></g><g id="text_9"><text style="font-family:DejaVu Sans;font-size:10px;font-stretch:normal;font-style:normal;font-weight:400;text-anchor:end" x="101" y="309.415" transform="rotate(-0, 101, 309.415348)">100</text></g></g><g id="ytick_3"><g id="line2d_9"><g><use style="stroke:#000;stroke-width:.8" x="108" y="263.147" xlink:href="#m99cb857a5d"/></g></g><g id="text_10"><text style="font-family:DejaVu Sans;font-size:10px;font-stretch:normal;font-style:normal;font-weight:400;text-anchor:end" x="101" y="266.946" transform="rotate(-0, 101, 266.946304)">150</text></g></g><g id="ytick_4"><g id="line2d_10"><g><use style="stroke:#000;stroke-width:.8" x="108" y="220.678" xlink:href="#m99cb857a5d"/></g></g><g id="text_11"><text style="font-family:DejaVu Sans;font-size:10px;font-stretch:normal;font-style:normal;font-weight:400;text-anchor:end" x="101" y="224.477" transform="rotate(-0, 101, 224.477259)">200</text></g></g><g id="ytick_5"><g id="line2d_11"><g><use style="stroke:#000;stroke-width:.8" x="108" y="178.209" xlink:href="#m99cb857a5d"/></g></g><g id="text_12"><text style="font-family:DejaVu Sans;font-size:10px;font-stretch:normal;font-style:normal;font-weight:400;text-anchor:end" x="101" y="182.008" transform="rotate(-0, 101, 182.008215)">250</text></g></g><g id="ytick_6"><g id="line2d_12"><g><use style="stroke:#000;stroke-width:.8" x="108" y="135.74" xlink:href="#m99cb857a5d"/></g></g><g id="text_13"><text style="font-family:DejaVu Sans;font-size:10px;font-stretch:normal;font-style:normal;font-weight:400;text-anchor:end" x="101" y="139.539" transform="rotate(-0, 101, 139.53917)">300</text></g></g><g id="ytick_7"><g id="line2d_13"><g><use style="stroke:#000;stroke-width:.8" x="108" y="93.271" xlink:href="#m99cb857a5d"/></g></g><g id="text_14"><text style="font-family:DejaVu Sans;font-size:10px;font-stretch:normal;font-style:normal;font-weight:400;text-anchor:end" x="101" y="97.07" transform="rotate(-0, 101, 97.070126)">350</text></g></g><g id="text_15"><text style="font-family:DejaVu Sans;font-size:10px;font-stretch:normal;font-style:normal;font-weight:400;text-anchor:middle" x="75.833" y="218.16" transform="rotate(-90, 75.832812, 218.16)">Time (s)</text></g></g><g id="line2d_14"><path d="M 121.834711 68.058748 L 146.98873 88.085595 L 172.14275 89.590555 L 197.296769 90.381547 L 222.450789 90.411888 L 247.604808 86.813408 L 272.758828 83.756929 L 297.912847 82.238547 L 323.066867 81.050575 L 348.220887 78.807692 L 373.374906 75.869123 L 398.528926 76.967066" clip-path="url(#p39043aeff7)" style="fill:none;stroke:#7f3c8d;stroke-linecap:square;stroke-width:1.5"/><defs><path id="mc2c0b37ce5" d="M 0 3 C 0.795609 3 1.55874 2.683901 2.12132 2.12132 C 2.683901 1.55874 3 0.795609 3 0 C 3 -0.795609 2.683901 -1.55874 2.12132 -2.12132 C 1.55874 -2.683901 0.795609 -3 0 -3 C -0.795609 -3 -1.55874 -2.683901 -2.12132 -2.12132 C -2.683901 -1.55874 -3 -0.795609 -3 0 C -3 0.795609 -2.683901 1.55874 -2.12132 2.12132 C -1.55874 2.683901 -0.795609 3 0 3 z" style="stroke:#7f3c8d"/></defs><g clip-path="url(#p39043aeff7)"><use style="fill:#7f3c8d;stroke:#7f3c8d" x="121.835" y="68.059" xlink:href="#mc2c0b37ce5"/><use style="fill:#7f3c8d;stroke:#7f3c8d" x="146.989" y="88.086" xlink:href="#mc2c0b37ce5"/><use style="fill:#7f3c8d;stroke:#7f3c8d" x="172.143" y="89.591" xlink:href="#mc2c0b37ce5"/><use style="fill:#7f3c8d;stroke:#7f3c8d" x="197.297" y="90.382" xlink:href="#mc2c0b37ce5"/><use style="fill:#7f3c8d;stroke:#7f3c8d" x="222.451" y="90.412" xlink:href="#mc2c0b37ce5"/><use style="fill:#7f3c8d;stroke:#7f3c8d" x="247.605" y="86.813" xlink:href="#mc2c0b37ce5"/><use style="fill:#7f3c8d;stroke:#7f3c8d" x="272.759" y="83.757" xlink:href="#mc2c0b37ce5"/><use style="fill:#7f3c8d;stroke:#7f3c8d" x="297.913" y="82.239" xlink:href="#mc2c0b37ce5"/><use style="fill:#7f3c8d;stroke:#7f3c8d" x="323.067" y="81.051" xlink:href="#mc2c0b37ce5"/><use style="fill:#7f3c8d;stroke:#7f3c8d" x="348.221" y="78.808" xlink:href="#mc2c0b37ce5"/><use style="fill:#7f3c8d;stroke:#7f3c8d" x="373.375" y="75.869" xlink:href="#mc2c0b37ce5"/><use style="fill:#7f3c8d;stroke:#7f3c8d" x="398.529" y="76.967" xlink:href="#mc2c0b37ce5"/></g></g><g id="line2d_15"><path d="M 121.834711 255.064382 L 146.98873 281.214179 L 172.14275 279.281612 L 197.296769 277.693659 L 222.450789 275.524447 L 247.604808 265.027284 L 272.758828 264.340032 L 297.912847 267.097505 L 323.066867 268.816638 L 348.220887 270.763681 L 373.374906 271.393914 L 398.528926 272.221377" clip-path="url(#p39043aeff7)" style="fill:none;stroke:#11a579;stroke-dasharray:5.55,2.4;stroke-dashoffset:0;stroke-width:1.5"/><defs><path id="m6cc384c697" d="M 0 3 C 0.795609 3 1.55874 2.683901 2.12132 2.12132 C 2.683901 1.55874 3 0.795609 3 0 C 3 -0.795609 2.683901 -1.55874 2.12132 -2.12132 C 1.55874 -2.683901 0.795609 -3 0 -3 C -0.795609 -3 -1.55874 -2.683901 -2.12132 -2.12132 C -2.683901 -1.55874 -3 -0.795609 -3 0 C -3 0.795609 -2.683901 1.55874 -2.12132 2.12132 C -1.55874 2.683901 -0.795609 3 0 3 z" style="stroke:#11a579"/></defs><g clip-path="url(#p39043aeff7)"><use style="fill:#11a579;stroke:#11a579" x="121.835" y="255.064" xlink:href="#m6cc384c697"/><use style="fill:#11a579;stroke:#11a579" x="146.989" y="281.214" xlink:href="#m6cc384c697"/><use style="fill:#11a579;stroke:#11a579" x="172.143" y="279.282" xlink:href="#m6cc384c697"/><use style="fill:#11a579;stroke:#11a579" x="197.297" y="277.694" xlink:href="#m6cc384c697"/><use style="fill:#11a579;stroke:#11a579" x="222.451" y="275.524" xlink:href="#m6cc384c697"/><use style="fill:#11a579;stroke:#11a579" x="247.605" y="265.027" xlink:href="#m6cc384c697"/><use style="fill:#11a579;stroke:#11a579" x="272.759" y="264.34" xlink:href="#m6cc384c697"/><use style="fill:#11a579;stroke:#11a579" x="297.913" y="267.098" xlink:href="#m6cc384c697"/><use style="fill:#11a579;stroke:#11a579" x="323.067" y="268.817" xlink:href="#m6cc384c697"/><use style="fill:#11a579;stroke:#11a579" x="348.221" y="270.764" xlink:href="#m6cc384c697"/><use style="fill:#11a579;stroke:#11a579" x="373.375" y="271.394" xlink:href="#m6cc384c697"/><use style="fill:#11a579;stroke:#11a579" x="398.529" y="272.221" xlink:href="#m6cc384c697"/></g></g><g id="line2d_16"><path d="M 121.834711 270.851116 L 146.98873 297.874203 L 172.14275 296.105683 L 197.296769 293.439186 L 222.450789 292.748272 L 247.604808 284.643691 L 272.758828 285.432346 L 297.912847 286.236097 L 323.066867 287.750276 L 348.220887 289.169072 L 373.374906 289.420979 L 398.528926 290.19123" clip-path="url(#p39043aeff7)" style="fill:none;stroke:#11a579;stroke-linecap:square;stroke-width:1.5"/><g clip-path="url(#p39043aeff7)"><use style="fill:#11a579;stroke:#11a579" x="121.835" y="270.851" xlink:href="#m6cc384c697"/><use style="fill:#11a579;stroke:#11a579" x="146.989" y="297.874" xlink:href="#m6cc384c697"/><use style="fill:#11a579;stroke:#11a579" x="172.143" y="296.106" xlink:href="#m6cc384c697"/><use style="fill:#11a579;stroke:#11a579" x="197.297" y="293.439" xlink:href="#m6cc384c697"/><use style="fill:#11a579;stroke:#11a579" x="222.451" y="292.748" xlink:href="#m6cc384c697"/><use style="fill:#11a579;stroke:#11a579" x="247.605" y="284.644" xlink:href="#m6cc384c697"/><use style="fill:#11a579;stroke:#11a579" x="272.759" y="285.432" xlink:href="#m6cc384c697"/><use style="fill:#11a579;stroke:#11a579" x="297.913" y="286.236" xlink:href="#m6cc384c697"/><use style="fill:#11a579;stroke:#11a579" x="323.067" y="287.75" xlink:href="#m6cc384c697"/><use style="fill:#11a579;stroke:#11a579" x="348.221" y="289.169" xlink:href="#m6cc384c697"/><use style="fill:#11a579;stroke:#11a579" x="373.375" y="289.421" xlink:href="#m6cc384c697"/><use style="fill:#11a579;stroke:#11a579" x="398.529" y="290.191" xlink:href="#m6cc384c697"/></g></g><g id="line2d_17"><path d="M 121.834711 268.500157 L 146.98873 325.856909 L 172.14275 344.14455 L 197.296769 352.230134 L 222.450789 354.68527 L 247.604808 354.347926 L 272.758828 354.483224 L 297.912847 355.392886 L 323.066867 355.906326 L 348.220887 356.229705 L 373.374906 356.355909 L 398.528926 356.244241" clip-path="url(#p39043aeff7)" style="fill:none;stroke:#3969ac;stroke-dasharray:5.55,2.4;stroke-dashoffset:0;stroke-width:1.5"/><defs><path id="m8565c70840" d="M 0 3 C 0.795609 3 1.55874 2.683901 2.12132 2.12132 C 2.683901 1.55874 3 0.795609 3 0 C 3 -0.795609 2.683901 -1.55874 2.12132 -2.12132 C 1.55874 -2.683901 0.795609 -3 0 -3 C -0.795609 -3 -1.55874 -2.683901 -2.12132 -2.12132 C -2.683901 -1.55874 -3 -0.795609 -3 0 C -3 0.795609 -2.683901 1.55874 -2.12132 2.12132 C -1.55874 2.683901 -0.795609 3 0 3 z" style="stroke:#3969ac"/></defs><g clip-path="url(#p39043aeff7)"><use style="fill:#3969ac;stroke:#3969ac" x="121.835" y="268.5" xlink:href="#m8565c70840"/><use style="fill:#3969ac;stroke:#3969ac" x="146.989" y="325.857" xlink:href="#m8565c70840"/><use style="fill:#3969ac;stroke:#3969ac" x="172.143" y="344.145" xlink:href="#m8565c70840"/><use style="fill:#3969ac;stroke:#3969ac" x="197.297" y="352.23" xlink:href="#m8565c70840"/><use style="fill:#3969ac;stroke:#3969ac" x="222.451" y="354.685" xlink:href="#m8565c70840"/><use style="fill:#3969ac;stroke:#3969ac" x="247.605" y="354.348" xlink:href="#m8565c70840"/><use style="fill:#3969ac;stroke:#3969ac" x="272.759" y="354.483" xlink:href="#m8565c70840"/><use style="fill:#3969ac;stroke:#3969ac" x="297.913" y="355.393" xlink:href="#m8565c70840"/><use style="fill:#3969ac;stroke:#3969ac" x="323.067" y="355.906" xlink:href="#m8565c70840"/><use style="fill:#3969ac;stroke:#3969ac" x="348.221" y="356.23" xlink:href="#m8565c70840"/><use style="fill:#3969ac;stroke:#3969ac" x="373.375" y="356.356" xlink:href="#m8565c70840"/><use style="fill:#3969ac;stroke:#3969ac" x="398.529" y="356.244" xlink:href="#m8565c70840"/></g></g><g id="line2d_18"><path d="M 121.834711 286.067606 L 146.98873 337.600748 L 172.14275 353.897948 L 197.296769 360.638492 L 222.450789 364.643943 L 247.604808 367.066046 L 272.758828 367.400501 L 297.912847 367.69885 L 323.066867 368.127084 L 348.220887 368.561443 L 373.374906 369.048807 L 398.528926 369.314299" clip-path="url(#p39043aeff7)" style="fill:none;stroke:#3969ac;stroke-linecap:square;stroke-width:1.5"/><g clip-path="url(#p39043aeff7)"><use style="fill:#3969ac;stroke:#3969ac" x="121.835" y="286.068" xlink:href="#m8565c70840"/><use style="fill:#3969ac;stroke:#3969ac" x="146.989" y="337.601" xlink:href="#m8565c70840"/><use style="fill:#3969ac;stroke:#3969ac" x="172.143" y="353.898" xlink:href="#m8565c70840"/><use style="fill:#3969ac;stroke:#3969ac" x="197.297" y="360.638" xlink:href="#m8565c70840"/><use style="fill:#3969ac;stroke:#3969ac" x="222.451" y="364.644" xlink:href="#m8565c70840"/><use style="fill:#3969ac;stroke:#3969ac" x="247.605" y="367.066" xlink:href="#m8565c70840"/><use style="fill:#3969ac;stroke:#3969ac" x="272.759" y="367.401" xlink:href="#m8565c70840"/><use style="fill:#3969ac;stroke:#3969ac" x="297.913" y="367.699" xlink:href="#m8565c70840"/><use style="fill:#3969ac;stroke:#3969ac" x="323.067" y="368.127" xlink:href="#m8565c70840"/><use style="fill:#3969ac;stroke:#3969ac" x="348.221" y="368.561" xlink:href="#m8565c70840"/><use style="fill:#3969ac;stroke:#3969ac" x="373.375" y="369.049" xlink:href="#m8565c70840"/><use style="fill:#3969ac;stroke:#3969ac" x="398.529" y="369.314" xlink:href="#m8565c70840"/></g></g><g id="patch_3"><path d="M 108 384.48 L 108 51.84" style="fill:none;stroke:#000;stroke-linecap:square;stroke-linejoin:miter;stroke-width:.8"/></g><g id="patch_4"><path d="M 412.363636 384.48 L 412.363636 51.84" style="fill:none;stroke:#000;stroke-linecap:square;stroke-linejoin:miter;stroke-width:.8"/></g><g id="patch_5"><path d="M 108 384.48 L 412.363636 384.48" style="fill:none;stroke:#000;stroke-linecap:square;stroke-linejoin:miter;stroke-width:.8"/></g><g id="patch_6"><path d="M 108 51.84 L 412.363636 51.84" style="fill:none;stroke:#000;stroke-linecap:square;stroke-linejoin:miter;stroke-width:.8"/></g><g id="legend_1"><g id="patch_7"><path d="M 314.332386 241.677188 L 405.363636 241.677188 Q 407.363636 241.677188 407.363636 239.677188 L 407.363636 196.642812 Q 407.363636 194.642812 405.363636 194.642812 L 314.332386 194.642812 Q 312.332386 194.642812 312.332386 196.642812 L 312.332386 239.677188 Q 312.332386 241.677188 314.332386 241.677188 z" style="fill:#fff;opacity:.8;stroke:#ccc;stroke-linejoin:miter"/></g><g id="line2d_19"><path d="M 316.332386 202.74125 L 336.332386 202.74125" style="fill:none;stroke:#7f3c8d;stroke-linecap:square;stroke-width:1.5"/></g><g id="line2d_20"><g><use style="fill:#7f3c8d;stroke:#7f3c8d" x="326.332" y="202.741" xlink:href="#mc2c0b37ce5"/></g></g><g id="text_16"><text style="font-family:DejaVu Sans;font-size:10px;font-stretch:normal;font-style:normal;font-weight:400;text-anchor:start" x="344.332" y="206.241" transform="rotate(-0, 344.332386, 206.24125)">hmmscan</text></g><g id="line2d_21"><path d="M 316.332386 217.419375 L 336.332386 217.419375" style="fill:none;stroke:#11a579;stroke-linecap:square;stroke-width:1.5"/></g><g id="line2d_22"><g><use style="fill:#11a579;stroke:#11a579" x="326.332" y="217.419" xlink:href="#m6cc384c697"/></g></g><g id="text_17"><text style="font-family:DejaVu Sans;font-size:10px;font-stretch:normal;font-style:normal;font-weight:400;text-anchor:start" x="344.332" y="220.919" transform="rotate(-0, 344.332386, 220.919375)">hmmsearch</text></g><g id="line2d_23"><path d="M 316.332386 232.0975 L 336.332386 232.0975" style="fill:none;stroke:#3969ac;stroke-linecap:square;stroke-width:1.5"/></g><g id="line2d_24"><g><use style="fill:#3969ac;stroke:#3969ac" x="326.332" y="232.097" xlink:href="#m8565c70840"/></g></g><g id="text_18"><text style="font-family:DejaVu Sans;font-size:10px;font-stretch:normal;font-style:normal;font-weight:400;text-anchor:start" x="344.332" y="235.597" transform="rotate(-0, 344.332386, 235.5975)">pyhmmer</text></g></g></g><g id="axes_2"><g id="patch_8"><path d="M 473.236364 384.48 L 777.6 384.48 L 777.6 51.84 L 473.236364 51.84 z" style="fill:none"/></g><g id="PolyCollection_6"><defs><path id="ma7eb8f56ea" d="M 487.071074 -365.04 L 487.071074 -364.784887 L 512.225094 -293.370794 L 537.379113 -293.91736 L 562.533133 -295.447394 L 587.687153 -297.329998 L 612.841172 -302.82527 L 637.995192 -305.119145 L 663.149211 -307.808042 L 688.303231 -309.234524 L 713.45725 -308.631873 L 738.61127 -307.814205 L 763.765289 -307.411928 L 763.765289 -307.680111 L 763.765289 -307.680111 L 738.61127 -308.680856 L 713.45725 -309.336247 L 688.303231 -310.051803 L 663.149211 -308.193577 L 637.995192 -306.340981 L 612.841172 -303.394793 L 587.687153 -297.66822 L 562.533133 -295.717221 L 537.379113 -294.087093 L 512.225094 -293.580639 L 487.071074 -365.04 z" style="stroke:#11a579;stroke-opacity:.1"/></defs><g clip-path="url(#pce19f19a28)"><use style="fill:#11a579;fill-opacity:.1;stroke:#11a579;stroke-opacity:.1" x="0" y="432" xlink:href="#ma7eb8f56ea"/></g></g><g id="PolyCollection_7"><defs><path id="m664fb78b2c" d="M 487.071074 -359.337665 L 487.071074 -358.615501 L 512.225094 -179.428247 L 537.379113 -120.361176 L 562.533133 -96.296422 L 587.687153 -83.686926 L 612.841172 -75.284604 L 637.995192 -72.347708 L 663.149211 -69.568721 L 688.303231 -67.412823 L 713.45725 -65.699084 L 738.61127 -63.969996 L 763.765289 -62.64 L 763.765289 -62.80846 L 763.765289 -62.80846 L 738.61127 -64.51421 L 713.45725 -66.112751 L 688.303231 -67.752198 L 663.149211 -69.730316 L 637.995192 -72.684874 L 612.841172 -75.445876 L 587.687153 -83.85768 L 562.533133 -96.470189 L 537.379113 -121.544338 L 512.225094 -179.590806 L 487.071074 -359.337665 z" style="stroke:#3969ac;stroke-opacity:.1"/></defs><g clip-path="url(#pce19f19a28)"><use style="fill:#3969ac;fill-opacity:.1;stroke:#3969ac;stroke-opacity:.1" x="0" y="432" xlink:href="#m664fb78b2c"/></g></g><g id="matplotlib.axis_3"><g id="xtick_7"><g id="line2d_25"><g><use style="stroke:#000;stroke-width:.8" x="512.225" y="384.48" xlink:href="#m2f8e94f65d"/></g></g><g id="text_19"><text style="font-family:DejaVu Sans;font-size:10px;font-stretch:normal;font-style:normal;font-weight:400;text-anchor:middle" x="512.225" y="399.078" transform="rotate(-0, 512.225094, 399.078438)">2</text></g></g><g id="xtick_8"><g id="line2d_26"><g><use style="stroke:#000;stroke-width:.8" x="562.533" y="384.48" xlink:href="#m2f8e94f65d"/></g></g><g id="text_20"><text style="font-family:DejaVu Sans;font-size:10px;font-stretch:normal;font-style:normal;font-weight:400;text-anchor:middle" x="562.533" y="399.078" transform="rotate(-0, 562.533133, 399.078438)">4</text></g></g><g id="xtick_9"><g id="line2d_27"><g><use style="stroke:#000;stroke-width:.8" x="612.841" y="384.48" xlink:href="#m2f8e94f65d"/></g></g><g id="text_21"><text style="font-family:DejaVu Sans;font-size:10px;font-stretch:normal;font-style:normal;font-weight:400;text-anchor:middle" x="612.841" y="399.078" transform="rotate(-0, 612.841172, 399.078438)">6</text></g></g><g id="xtick_10"><g id="line2d_28"><g><use style="stroke:#000;stroke-width:.8" x="663.149" y="384.48" xlink:href="#m2f8e94f65d"/></g></g><g id="text_22"><text style="font-family:DejaVu Sans;font-size:10px;font-stretch:normal;font-style:normal;font-weight:400;text-anchor:middle" x="663.149" y="399.078" transform="rotate(-0, 663.149211, 399.078438)">8</text></g></g><g id="xtick_11"><g id="line2d_29"><g><use style="stroke:#000;stroke-width:.8" x="713.457" y="384.48" xlink:href="#m2f8e94f65d"/></g></g><g id="text_23"><text style="font-family:DejaVu Sans;font-size:10px;font-stretch:normal;font-style:normal;font-weight:400;text-anchor:middle" x="713.457" y="399.078" transform="rotate(-0, 713.45725, 399.078438)">10</text></g></g><g id="xtick_12"><g id="line2d_30"><g><use style="stroke:#000;stroke-width:.8" x="763.765" y="384.48" xlink:href="#m2f8e94f65d"/></g></g><g id="text_24"><text style="font-family:DejaVu Sans;font-size:10px;font-stretch:normal;font-style:normal;font-weight:400;text-anchor:middle" x="763.765" y="399.078" transform="rotate(-0, 763.765289, 399.078438)">12</text></g></g><g id="text_25"><text style="font-family:DejaVu Sans;font-size:10px;font-stretch:normal;font-style:normal;font-weight:400;text-anchor:middle" x="625.418" y="412.757" transform="rotate(-0, 625.418182, 412.756563)">CPUs</text></g></g><g id="matplotlib.axis_4"><g id="ytick_8"><g id="line2d_31"><g><use style="stroke:#000;stroke-width:.8" x="473.236" y="369.244" xlink:href="#m99cb857a5d"/></g></g><g id="text_26"><text style="font-family:DejaVu Sans;font-size:10px;font-stretch:normal;font-style:normal;font-weight:400;text-anchor:end" x="466.236" y="373.044" transform="rotate(-0, 466.236364, 373.04371)">20</text></g></g><g id="ytick_9"><g id="line2d_32"><g><use style="stroke:#000;stroke-width:.8" x="473.236" y="299.533" xlink:href="#m99cb857a5d"/></g></g><g id="text_27"><text style="font-family:DejaVu Sans;font-size:10px;font-stretch:normal;font-style:normal;font-weight:400;text-anchor:end" x="466.236" y="303.332" transform="rotate(-0, 466.236364, 303.331875)">40</text></g></g><g id="ytick_10"><g id="line2d_33"><g><use style="stroke:#000;stroke-width:.8" x="473.236" y="229.821" xlink:href="#m99cb857a5d"/></g></g><g id="text_28"><text style="font-family:DejaVu Sans;font-size:10px;font-stretch:normal;font-style:normal;font-weight:400;text-anchor:end" x="466.236" y="233.62" transform="rotate(-0, 466.236364, 233.620041)">60</text></g></g><g id="ytick_11"><g id="line2d_34"><g><use style="stroke:#000;stroke-width:.8" x="473.236" y="160.109" xlink:href="#m99cb857a5d"/></g></g><g id="text_29"><text style="font-family:DejaVu Sans;font-size:10px;font-stretch:normal;font-style:normal;font-weight:400;text-anchor:end" x="466.236" y="163.908" transform="rotate(-0, 466.236364, 163.908207)">80</text></g></g><g id="ytick_12"><g id="line2d_35"><g><use style="stroke:#000;stroke-width:.8" x="473.236" y="90.397" xlink:href="#m99cb857a5d"/></g></g><g id="text_30"><text style="font-family:DejaVu Sans;font-size:10px;font-stretch:normal;font-style:normal;font-weight:400;text-anchor:end" x="466.236" y="94.196" transform="rotate(-0, 466.236364, 94.196373)">100</text></g></g><g id="text_31"><text style="font-family:DejaVu Sans;font-size:10px;font-stretch:normal;font-style:normal;font-weight:400;text-anchor:middle" x="441.069" y="218.16" transform="rotate(-90, 441.069176, 218.16)">Time (s)</text></g></g><g id="line2d_36"><path d="M 487.071074 67.087557 L 512.225094 138.524283 L 537.379113 137.997773 L 562.533133 136.417692 L 587.687153 134.500891 L 612.841172 128.889968 L 637.995192 126.269937 L 663.149211 123.999191 L 688.303231 122.356836 L 713.45725 123.01594 L 738.61127 123.75247 L 763.765289 124.45398" clip-path="url(#pce19f19a28)" style="fill:none;stroke:#11a579;stroke-linecap:square;stroke-width:1.5"/><g clip-path="url(#pce19f19a28)"><use style="fill:#11a579;stroke:#11a579" x="487.071" y="67.088" xlink:href="#m6cc384c697"/><use style="fill:#11a579;stroke:#11a579" x="512.225" y="138.524" xlink:href="#m6cc384c697"/><use style="fill:#11a579;stroke:#11a579" x="537.379" y="137.998" xlink:href="#m6cc384c697"/><use style="fill:#11a579;stroke:#11a579" x="562.533" y="136.418" xlink:href="#m6cc384c697"/><use style="fill:#11a579;stroke:#11a579" x="587.687" y="134.501" xlink:href="#m6cc384c697"/><use style="fill:#11a579;stroke:#11a579" x="612.841" y="128.89" xlink:href="#m6cc384c697"/><use style="fill:#11a579;stroke:#11a579" x="637.995" y="126.27" xlink:href="#m6cc384c697"/><use style="fill:#11a579;stroke:#11a579" x="663.149" y="123.999" xlink:href="#m6cc384c697"/><use style="fill:#11a579;stroke:#11a579" x="688.303" y="122.357" xlink:href="#m6cc384c697"/><use style="fill:#11a579;stroke:#11a579" x="713.457" y="123.016" xlink:href="#m6cc384c697"/><use style="fill:#11a579;stroke:#11a579" x="738.611" y="123.752" xlink:href="#m6cc384c697"/><use style="fill:#11a579;stroke:#11a579" x="763.765" y="124.454" xlink:href="#m6cc384c697"/></g></g><g id="line2d_37"><path d="M 487.071074 73.023417 L 512.225094 252.490473 L 537.379113 311.047243 L 562.533133 335.616695 L 587.687153 348.227697 L 612.841172 356.63476 L 637.995192 359.483709 L 663.149211 362.350481 L 688.303231 364.417489 L 713.45725 366.094083 L 738.61127 367.757897 L 763.765289 369.27577" clip-path="url(#pce19f19a28)" style="fill:none;stroke:#3969ac;stroke-linecap:square;stroke-width:1.5"/><g clip-path="url(#pce19f19a28)"><use style="fill:#3969ac;stroke:#3969ac" x="487.071" y="73.023" xlink:href="#m8565c70840"/><use style="fill:#3969ac;stroke:#3969ac" x="512.225" y="252.49" xlink:href="#m8565c70840"/><use style="fill:#3969ac;stroke:#3969ac" x="537.379" y="311.047" xlink:href="#m8565c70840"/><use style="fill:#3969ac;stroke:#3969ac" x="562.533" y="335.617" xlink:href="#m8565c70840"/><use style="fill:#3969ac;stroke:#3969ac" x="587.687" y="348.228" xlink:href="#m8565c70840"/><use style="fill:#3969ac;stroke:#3969ac" x="612.841" y="356.635" xlink:href="#m8565c70840"/><use style="fill:#3969ac;stroke:#3969ac" x="637.995" y="359.484" xlink:href="#m8565c70840"/><use style="fill:#3969ac;stroke:#3969ac" x="663.149" y="362.35" xlink:href="#m8565c70840"/><use style="fill:#3969ac;stroke:#3969ac" x="688.303" y="364.417" xlink:href="#m8565c70840"/><use style="fill:#3969ac;stroke:#3969ac" x="713.457" y="366.094" xlink:href="#m8565c70840"/><use style="fill:#3969ac;stroke:#3969ac" x="738.611" y="367.758" xlink:href="#m8565c70840"/><use style="fill:#3969ac;stroke:#3969ac" x="763.765" y="369.276" xlink:href="#m8565c70840"/></g></g><g id="patch_9"><path d="M 473.236364 384.48 L 473.236364 51.84" style="fill:none;stroke:#000;stroke-linecap:square;stroke-linejoin:miter;stroke-width:.8"/></g><g id="patch_10"><path d="M 777.6 384.48 L 777.6 51.84" style="fill:none;stroke:#000;stroke-linecap:square;stroke-linejoin:miter;stroke-width:.8"/></g><g id="patch_11"><path d="M 473.236364 384.48 L 777.6 384.48" style="fill:none;stroke:#000;stroke-linecap:square;stroke-linejoin:miter;stroke-width:.8"/></g><g id="patch_12"><path d="M 473.236364 51.84 L 777.6 51.84" style="fill:none;stroke:#000;stroke-linecap:square;stroke-linejoin:miter;stroke-width:.8"/></g><g id="legend_2"><g id="patch_13"><path d="M 690.25 89.19625 L 770.6 89.19625 Q 772.6 89.19625 772.6 87.19625 L 772.6 58.84 Q 772.6 56.84 770.6 56.84 L 690.25 56.84 Q 688.25 56.84 688.25 58.84 L 688.25 87.19625 Q 688.25 89.19625 690.25 89.19625 z" style="fill:#fff;opacity:.8;stroke:#ccc;stroke-linejoin:miter"/></g><g id="line2d_38"><path d="M 692.25 64.938437 L 712.25 64.938437" style="fill:none;stroke:#11a579;stroke-linecap:square;stroke-width:1.5"/></g><g id="line2d_39"><g><use style="fill:#11a579;stroke:#11a579" x="702.25" y="64.938" xlink:href="#m6cc384c697"/></g></g><g id="text_32"><text style="font-family:DejaVu Sans;font-size:10px;font-stretch:normal;font-style:normal;font-weight:400;text-anchor:start" x="720.25" y="68.438" transform="rotate(-0, 720.25, 68.438437)">phmmer</text></g><g id="line2d_40"><path d="M 692.25 79.616562 L 712.25 79.616562" style="fill:none;stroke:#3969ac;stroke-linecap:square;stroke-width:1.5"/></g><g id="line2d_41"><g><use style="fill:#3969ac;stroke:#3969ac" x="702.25" y="79.617" xlink:href="#m8565c70840"/></g></g><g id="text_33"><text style="font-family:DejaVu Sans;font-size:10px;font-stretch:normal;font-style:normal;font-weight:400;text-anchor:start" x="720.25" y="83.117" transform="rotate(-0, 720.25, 83.116562)">pyhmmer</text></g></g></g></g><defs><clipPath id="p39043aeff7"><rect width="304.364" height="332.64" x="108" y="51.84"/></clipPath><clipPath id="pce19f19a28"><rect width="304.364" height="332.64" x="473.236" y="51.84"/></clipPath></defs></svg>