<?xml version="1.0" encoding="utf-8" standalone="no"?>
<!DOCTYPE svg PUBLIC "-//W3C//DTD SVG 1.1//EN"
  "http://www.w3.org/Graphics/SVG/1.1/DTD/svg11.dtd">
<!-- Created with matplotlib (https://matplotlib.org/) -->
<svg height="432pt" version="1.1" viewBox="0 0 864 432" width="864pt" xmlns="http://www.w3.org/2000/svg" xmlns:xlink="http://www.w3.org/1999/xlink">
 <metadata>
  <rdf:RDF xmlns:cc="http://creativecommons.org/ns#" xmlns:dc="http://purl.org/dc/elements/1.1/" xmlns:rdf="http://www.w3.org/1999/02/22-rdf-syntax-ns#">
   <cc:Work>
    <dc:type rdf:resource="http://purl.org/dc/dcmitype/StillImage"/>
    <dc:date>2021-01-22T12:00:38.209662</dc:date>
    <dc:format>image/svg+xml</dc:format>
    <dc:creator>
     <cc:Agent>
      <dc:title>Matplotlib v3.3.3, https://matplotlib.org/</dc:title>
     </cc:Agent>
    </dc:creator>
   </cc:Work>
  </rdf:RDF>
 </metadata>
 <defs>
  <style type="text/css">*{stroke-linecap:butt;stroke-linejoin:round;}</style>
 </defs>
 <g id="figure_1">
  <g id="patch_1">
   <path d="M 0 432 
L 864 432 
L 864 0 
L 0 0 
z
" style="fill:none;"/>
  </g>
  <g id="axes_1">
   <g id="patch_2">
    <path d="M 108 384.48 
L 412.363636 384.48 
L 412.363636 51.84 
L 108 51.84 
z
" style="fill:none;"/>
   </g>
   <g id="PolyCollection_1">
    <defs>
     <path d="M 121.834711 -365.04 
L 121.834711 -363.579664 
L 146.98873 -343.425686 
L 172.14275 -340.924143 
L 197.296769 -340.679221 
L 222.450789 -341.134567 
L 247.604808 -341.864339 
L 272.758828 -342.363339 
L 297.912847 -343.959794 
L 323.066867 -344.545824 
L 348.220887 -344.805034 
L 373.374906 -345.422532 
L 398.528926 -344.941936 
L 398.528926 -345.904856 
L 398.528926 -345.904856 
L 373.374906 -346.22203 
L 348.220887 -345.988953 
L 323.066867 -345.727803 
L 297.912847 -344.20327 
L 272.758828 -344.411117 
L 247.604808 -343.609853 
L 222.450789 -343.653052 
L 197.296769 -342.316353 
L 172.14275 -342.497215 
L 146.98873 -345.076425 
L 121.834711 -365.04 
z
" id="m2291bd2d6c" style="stroke:#7f3c8d;stroke-opacity:0.1;"/>
    </defs>
    <g clip-path="url(#pc3c4dc428b)">
     <use style="fill:#7f3c8d;fill-opacity:0.1;stroke:#7f3c8d;stroke-opacity:0.1;" x="0" xlink:href="#m2291bd2d6c" y="432"/>
    </g>
   </g>
   <g id="PolyCollection_2">
    <defs>
     <path d="M 121.834711 -163.249828 
L 121.834711 -161.002712 
L 146.98873 -132.936226 
L 172.14275 -134.665347 
L 197.296769 -136.258999 
L 222.450789 -138.277642 
L 247.604808 -142.576844 
L 272.758828 -143.58675 
L 297.912847 -143.178881 
L 323.066867 -142.846658 
L 348.220887 -142.320859 
L 373.374906 -141.602486 
L 398.528926 -141.901668 
L 398.528926 -142.120704 
L 398.528926 -142.120704 
L 373.374906 -142.064876 
L 348.220887 -142.497106 
L 323.066867 -143.178289 
L 297.912847 -143.922127 
L 272.758828 -143.777817 
L 247.604808 -142.992735 
L 222.450789 -138.503158 
L 197.296769 -136.819712 
L 172.14275 -134.826349 
L 146.98873 -133.139015 
L 121.834711 -163.249828 
z
" id="mdb1fb40372" style="stroke:#11a579;stroke-opacity:0.1;"/>
    </defs>
    <g clip-path="url(#pc3c4dc428b)">
     <use style="fill:#11a579;fill-opacity:0.1;stroke:#11a579;stroke-opacity:0.1;" x="0" xlink:href="#mdb1fb40372" y="432"/>
    </g>
   </g>
   <g id="PolyCollection_3">
    <defs>
     <path d="M 121.834711 -144.72524 
L 121.834711 -144.361211 
L 146.98873 -115.641182 
L 172.14275 -117.376364 
L 197.296769 -119.058296 
L 222.450789 -120.999399 
L 247.604808 -125.12805 
L 272.758828 -125.624779 
L 297.912847 -125.136255 
L 323.066867 -124.705527 
L 348.220887 -124.252953 
L 373.374906 -124.035601 
L 398.528926 -124.095749 
L 398.528926 -124.3351 
L 398.528926 -124.3351 
L 373.374906 -124.474274 
L 348.220887 -124.663046 
L 323.066867 -125.119643 
L 297.912847 -125.602662 
L 272.758828 -126.016981 
L 247.604808 -125.277251 
L 222.450789 -121.179866 
L 197.296769 -119.325309 
L 172.14275 -117.637131 
L 146.98873 -116.675975 
L 121.834711 -144.72524 
z
" id="md7f166e50e" style="stroke:#11a579;stroke-opacity:0.1;"/>
    </defs>
    <g clip-path="url(#pc3c4dc428b)">
     <use style="fill:#11a579;fill-opacity:0.1;stroke:#11a579;stroke-opacity:0.1;" x="0" xlink:href="#md7f166e50e" y="432"/>
    </g>
   </g>
   <g id="PolyCollection_4">
    <defs>
     <path d="M 121.834711 -148.113882 
L 121.834711 -147.191662 
L 146.98873 -92.241797 
L 172.14275 -77.631235 
L 197.296769 -77.844041 
L 222.450789 -92.971798 
L 247.604808 -118.428596 
L 272.758828 -139.487181 
L 297.912847 -150.717724 
L 323.066867 -154.503682 
L 348.220887 -155.053209 
L 373.374906 -154.626595 
L 398.528926 -154.599771 
L 398.528926 -155.735708 
L 398.528926 -155.735708 
L 373.374906 -155.429862 
L 348.220887 -155.671755 
L 323.066867 -155.458317 
L 297.912847 -152.196798 
L 272.758828 -140.483678 
L 247.604808 -120.891541 
L 222.450789 -96.903109 
L 197.296769 -79.025825 
L 172.14275 -78.022257 
L 146.98873 -92.708589 
L 121.834711 -148.113882 
z
" id="m49bb38c73b" style="stroke:#3969ac;stroke-opacity:0.1;"/>
    </defs>
    <g clip-path="url(#pc3c4dc428b)">
     <use style="fill:#3969ac;fill-opacity:0.1;stroke:#3969ac;stroke-opacity:0.1;" x="0" xlink:href="#m49bb38c73b" y="432"/>
    </g>
   </g>
   <g id="PolyCollection_5">
    <defs>
     <path d="M 121.834711 -133.418257 
L 121.834711 -130.246529 
L 146.98873 -75.632997 
L 172.14275 -62.64 
L 197.296769 -64.022156 
L 222.450789 -78.984706 
L 247.604808 -104.101002 
L 272.758828 -126.240769 
L 297.912847 -137.348176 
L 323.066867 -141.103801 
L 348.220887 -140.976768 
L 373.374906 -140.53767 
L 398.528926 -140.586099 
L 398.528926 -140.865918 
L 398.528926 -140.865918 
L 373.374906 -141.073089 
L 348.220887 -141.880532 
L 323.066867 -142.214144 
L 297.912847 -138.333321 
L 272.758828 -128.693498 
L 247.604808 -107.471902 
L 222.450789 -80.662643 
L 197.296769 -64.970749 
L 172.14275 -63.178351 
L 146.98873 -76.175364 
L 121.834711 -133.418257 
z
" id="m0d3ba84eb2" style="stroke:#3969ac;stroke-opacity:0.1;"/>
    </defs>
    <g clip-path="url(#pc3c4dc428b)">
     <use style="fill:#3969ac;fill-opacity:0.1;stroke:#3969ac;stroke-opacity:0.1;" x="0" xlink:href="#m0d3ba84eb2" y="432"/>
    </g>
   </g>
   <g id="matplotlib.axis_1">
    <g id="xtick_1">
     <g id="line2d_1">
      <defs>
       <path d="M 0 0 
L 0 3.5 
" id="mc7d176842d" style="stroke:#000000;stroke-width:0.8;"/>
      </defs>
      <g>
       <use style="stroke:#000000;stroke-width:0.8;" x="146.98873" xlink:href="#mc7d176842d" y="384.48"/>
      </g>
     </g>
     <g id="text_1">
      <text style="font-family:DejaVu Sans;font-size:10px;font-stretch:normal;font-style:normal;font-weight:normal;text-anchor:middle;" transform="rotate(-0, 146.98873, 399.078438)" x="146.98873" y="399.078438">2</text>
     </g>
    </g>
    <g id="xtick_2">
     <g id="line2d_2">
      <g>
       <use style="stroke:#000000;stroke-width:0.8;" x="197.296769" xlink:href="#mc7d176842d" y="384.48"/>
      </g>
     </g>
     <g id="text_2">
      <text style="font-family:DejaVu Sans;font-size:10px;font-stretch:normal;font-style:normal;font-weight:normal;text-anchor:middle;" transform="rotate(-0, 197.296769, 399.078438)" x="197.296769" y="399.078438">4</text>
     </g>
    </g>
    <g id="xtick_3">
     <g id="line2d_3">
      <g>
       <use style="stroke:#000000;stroke-width:0.8;" x="247.604808" xlink:href="#mc7d176842d" y="384.48"/>
      </g>
     </g>
     <g id="text_3">
      <text style="font-family:DejaVu Sans;font-size:10px;font-stretch:normal;font-style:normal;font-weight:normal;text-anchor:middle;" transform="rotate(-0, 247.604808, 399.078438)" x="247.604808" y="399.078438">6</text>
     </g>
    </g>
    <g id="xtick_4">
     <g id="line2d_4">
      <g>
       <use style="stroke:#000000;stroke-width:0.8;" x="297.912847" xlink:href="#mc7d176842d" y="384.48"/>
      </g>
     </g>
     <g id="text_4">
      <text style="font-family:DejaVu Sans;font-size:10px;font-stretch:normal;font-style:normal;font-weight:normal;text-anchor:middle;" transform="rotate(-0, 297.912847, 399.078438)" x="297.912847" y="399.078438">8</text>
     </g>
    </g>
    <g id="xtick_5">
     <g id="line2d_5">
      <g>
       <use style="stroke:#000000;stroke-width:0.8;" x="348.220887" xlink:href="#mc7d176842d" y="384.48"/>
      </g>
     </g>
     <g id="text_5">
      <text style="font-family:DejaVu Sans;font-size:10px;font-stretch:normal;font-style:normal;font-weight:normal;text-anchor:middle;" transform="rotate(-0, 348.220887, 399.078438)" x="348.220887" y="399.078438">10</text>
     </g>
    </g>
    <g id="xtick_6">
     <g id="line2d_6">
      <g>
       <use style="stroke:#000000;stroke-width:0.8;" x="398.528926" xlink:href="#mc7d176842d" y="384.48"/>
      </g>
     </g>
     <g id="text_6">
      <text style="font-family:DejaVu Sans;font-size:10px;font-stretch:normal;font-style:normal;font-weight:normal;text-anchor:middle;" transform="rotate(-0, 398.528926, 399.078438)" x="398.528926" y="399.078438">12</text>
     </g>
    </g>
    <g id="text_7">
     <text style="font-family:DejaVu Sans;font-size:10px;font-stretch:normal;font-style:normal;font-weight:normal;text-anchor:middle;" transform="rotate(-0, 260.181818, 412.756563)" x="260.181818" y="412.756563">CPUs</text>
    </g>
   </g>
   <g id="matplotlib.axis_2">
    <g id="ytick_1">
     <g id="line2d_7">
      <defs>
       <path d="M 0 0 
L -3.5 0 
" id="m25162a7b24" style="stroke:#000000;stroke-width:0.8;"/>
      </defs>
      <g>
       <use style="stroke:#000000;stroke-width:0.8;" x="108" xlink:href="#m25162a7b24" y="372.731838"/>
      </g>
     </g>
     <g id="text_8">
      <text style="font-family:DejaVu Sans;font-size:10px;font-stretch:normal;font-style:normal;font-weight:normal;text-anchor:end;" transform="rotate(-0, 101, 376.531057)" x="101" y="376.531057">50</text>
     </g>
    </g>
    <g id="ytick_2">
     <g id="line2d_8">
      <g>
       <use style="stroke:#000000;stroke-width:0.8;" x="108" xlink:href="#m25162a7b24" y="328.749406"/>
      </g>
     </g>
     <g id="text_9">
      <text style="font-family:DejaVu Sans;font-size:10px;font-stretch:normal;font-style:normal;font-weight:normal;text-anchor:end;" transform="rotate(-0, 101, 332.548625)" x="101" y="332.548625">100</text>
     </g>
    </g>
    <g id="ytick_3">
     <g id="line2d_9">
      <g>
       <use style="stroke:#000000;stroke-width:0.8;" x="108" xlink:href="#m25162a7b24" y="284.766974"/>
      </g>
     </g>
     <g id="text_10">
      <text style="font-family:DejaVu Sans;font-size:10px;font-stretch:normal;font-style:normal;font-weight:normal;text-anchor:end;" transform="rotate(-0, 101, 288.566192)" x="101" y="288.566192">150</text>
     </g>
    </g>
    <g id="ytick_4">
     <g id="line2d_10">
      <g>
       <use style="stroke:#000000;stroke-width:0.8;" x="108" xlink:href="#m25162a7b24" y="240.784541"/>
      </g>
     </g>
     <g id="text_11">
      <text style="font-family:DejaVu Sans;font-size:10px;font-stretch:normal;font-style:normal;font-weight:normal;text-anchor:end;" transform="rotate(-0, 101, 244.58376)" x="101" y="244.58376">200</text>
     </g>
    </g>
    <g id="ytick_5">
     <g id="line2d_11">
      <g>
       <use style="stroke:#000000;stroke-width:0.8;" x="108" xlink:href="#m25162a7b24" y="196.802109"/>
      </g>
     </g>
     <g id="text_12">
      <text style="font-family:DejaVu Sans;font-size:10px;font-stretch:normal;font-style:normal;font-weight:normal;text-anchor:end;" transform="rotate(-0, 101, 200.601327)" x="101" y="200.601327">250</text>
     </g>
    </g>
    <g id="ytick_6">
     <g id="line2d_12">
      <g>
       <use style="stroke:#000000;stroke-width:0.8;" x="108" xlink:href="#m25162a7b24" y="152.819676"/>
      </g>
     </g>
     <g id="text_13">
      <text style="font-family:DejaVu Sans;font-size:10px;font-stretch:normal;font-style:normal;font-weight:normal;text-anchor:end;" transform="rotate(-0, 101, 156.618895)" x="101" y="156.618895">300</text>
     </g>
    </g>
    <g id="ytick_7">
     <g id="line2d_13">
      <g>
       <use style="stroke:#000000;stroke-width:0.8;" x="108" xlink:href="#m25162a7b24" y="108.837244"/>
      </g>
     </g>
     <g id="text_14">
      <text style="font-family:DejaVu Sans;font-size:10px;font-stretch:normal;font-style:normal;font-weight:normal;text-anchor:end;" transform="rotate(-0, 101, 112.636462)" x="101" y="112.636462">350</text>
     </g>
    </g>
    <g id="ytick_8">
     <g id="line2d_14">
      <g>
       <use style="stroke:#000000;stroke-width:0.8;" x="108" xlink:href="#m25162a7b24" y="64.854811"/>
      </g>
     </g>
     <g id="text_15">
      <text style="font-family:DejaVu Sans;font-size:10px;font-stretch:normal;font-style:normal;font-weight:normal;text-anchor:end;" transform="rotate(-0, 101, 68.65403)" x="101" y="68.65403">400</text>
     </g>
    </g>
    <g id="text_16">
     <text style="font-family:DejaVu Sans;font-size:10px;font-stretch:normal;font-style:normal;font-weight:normal;text-anchor:middle;" transform="rotate(-90, 75.832812, 218.16)" x="75.832812" y="218.16">Time (s)</text>
    </g>
   </g>
   <g id="line2d_15">
    <path clip-path="url(#pc3c4dc428b)" d="M 121.834711 67.690168 
L 146.98873 87.748944 
L 172.14275 90.289321 
L 197.296769 90.502213 
L 222.450789 89.60619 
L 247.604808 89.262904 
L 272.758828 88.612772 
L 297.912847 87.918468 
L 323.066867 86.863186 
L 348.220887 86.603007 
L 373.374906 86.177719 
L 398.528926 86.576604 
" style="fill:none;stroke:#7f3c8d;stroke-linecap:square;stroke-width:1.5;"/>
    <defs>
     <path d="M 0 3 
C 0.795609 3 1.55874 2.683901 2.12132 2.12132 
C 2.683901 1.55874 3 0.795609 3 0 
C 3 -0.795609 2.683901 -1.55874 2.12132 -2.12132 
C 1.55874 -2.683901 0.795609 -3 0 -3 
C -0.795609 -3 -1.55874 -2.683901 -2.12132 -2.12132 
C -2.683901 -1.55874 -3 -0.795609 -3 0 
C -3 0.795609 -2.683901 1.55874 -2.12132 2.12132 
C -1.55874 2.683901 -0.795609 3 0 3 
z
" id="m3878b0e598" style="stroke:#7f3c8d;"/>
    </defs>
    <g clip-path="url(#pc3c4dc428b)">
     <use style="fill:#7f3c8d;stroke:#7f3c8d;" x="121.834711" xlink:href="#m3878b0e598" y="67.690168"/>
     <use style="fill:#7f3c8d;stroke:#7f3c8d;" x="146.98873" xlink:href="#m3878b0e598" y="87.748944"/>
     <use style="fill:#7f3c8d;stroke:#7f3c8d;" x="172.14275" xlink:href="#m3878b0e598" y="90.289321"/>
     <use style="fill:#7f3c8d;stroke:#7f3c8d;" x="197.296769" xlink:href="#m3878b0e598" y="90.502213"/>
     <use style="fill:#7f3c8d;stroke:#7f3c8d;" x="222.450789" xlink:href="#m3878b0e598" y="89.60619"/>
     <use style="fill:#7f3c8d;stroke:#7f3c8d;" x="247.604808" xlink:href="#m3878b0e598" y="89.262904"/>
     <use style="fill:#7f3c8d;stroke:#7f3c8d;" x="272.758828" xlink:href="#m3878b0e598" y="88.612772"/>
     <use style="fill:#7f3c8d;stroke:#7f3c8d;" x="297.912847" xlink:href="#m3878b0e598" y="87.918468"/>
     <use style="fill:#7f3c8d;stroke:#7f3c8d;" x="323.066867" xlink:href="#m3878b0e598" y="86.863186"/>
     <use style="fill:#7f3c8d;stroke:#7f3c8d;" x="348.220887" xlink:href="#m3878b0e598" y="86.603007"/>
     <use style="fill:#7f3c8d;stroke:#7f3c8d;" x="373.374906" xlink:href="#m3878b0e598" y="86.177719"/>
     <use style="fill:#7f3c8d;stroke:#7f3c8d;" x="398.528926" xlink:href="#m3878b0e598" y="86.576604"/>
    </g>
   </g>
   <g id="line2d_16">
    <path clip-path="url(#pc3c4dc428b)" d="M 121.834711 269.87373 
L 146.98873 298.962379 
L 172.14275 297.254152 
L 197.296769 295.460644 
L 222.450789 293.6096 
L 247.604808 289.21521 
L 272.758828 288.317717 
L 297.912847 288.449496 
L 323.066867 288.987527 
L 348.220887 289.591017 
L 373.374906 290.166319 
L 398.528926 289.988814 
" style="fill:none;stroke:#11a579;stroke-dasharray:5.55,2.4;stroke-dashoffset:0;stroke-width:1.5;"/>
    <defs>
     <path d="M 0 3 
C 0.795609 3 1.55874 2.683901 2.12132 2.12132 
C 2.683901 1.55874 3 0.795609 3 0 
C 3 -0.795609 2.683901 -1.55874 2.12132 -2.12132 
C 1.55874 -2.683901 0.795609 -3 0 -3 
C -0.795609 -3 -1.55874 -2.683901 -2.12132 -2.12132 
C -2.683901 -1.55874 -3 -0.795609 -3 0 
C -3 0.795609 -2.683901 1.55874 -2.12132 2.12132 
C -1.55874 2.683901 -0.795609 3 0 3 
z
" id="m38a1afe013" style="stroke:#11a579;"/>
    </defs>
    <g clip-path="url(#pc3c4dc428b)">
     <use style="fill:#11a579;stroke:#11a579;" x="121.834711" xlink:href="#m38a1afe013" y="269.87373"/>
     <use style="fill:#11a579;stroke:#11a579;" x="146.98873" xlink:href="#m38a1afe013" y="298.962379"/>
     <use style="fill:#11a579;stroke:#11a579;" x="172.14275" xlink:href="#m38a1afe013" y="297.254152"/>
     <use style="fill:#11a579;stroke:#11a579;" x="197.296769" xlink:href="#m38a1afe013" y="295.460644"/>
     <use style="fill:#11a579;stroke:#11a579;" x="222.450789" xlink:href="#m38a1afe013" y="293.6096"/>
     <use style="fill:#11a579;stroke:#11a579;" x="247.604808" xlink:href="#m38a1afe013" y="289.21521"/>
     <use style="fill:#11a579;stroke:#11a579;" x="272.758828" xlink:href="#m38a1afe013" y="288.317717"/>
     <use style="fill:#11a579;stroke:#11a579;" x="297.912847" xlink:href="#m38a1afe013" y="288.449496"/>
     <use style="fill:#11a579;stroke:#11a579;" x="323.066867" xlink:href="#m38a1afe013" y="288.987527"/>
     <use style="fill:#11a579;stroke:#11a579;" x="348.220887" xlink:href="#m38a1afe013" y="289.591017"/>
     <use style="fill:#11a579;stroke:#11a579;" x="373.374906" xlink:href="#m38a1afe013" y="290.166319"/>
     <use style="fill:#11a579;stroke:#11a579;" x="398.528926" xlink:href="#m38a1afe013" y="289.988814"/>
    </g>
   </g>
   <g id="line2d_17">
    <path clip-path="url(#pc3c4dc428b)" d="M 121.834711 287.456775 
L 146.98873 315.841421 
L 172.14275 314.493253 
L 197.296769 312.808198 
L 222.450789 310.910368 
L 247.604808 306.79735 
L 272.758828 306.17912 
L 297.912847 306.630541 
L 323.066867 307.087415 
L 348.220887 307.542001 
L 373.374906 307.745063 
L 398.528926 307.784575 
" style="fill:none;stroke:#11a579;stroke-linecap:square;stroke-width:1.5;"/>
    <g clip-path="url(#pc3c4dc428b)">
     <use style="fill:#11a579;stroke:#11a579;" x="121.834711" xlink:href="#m38a1afe013" y="287.456775"/>
     <use style="fill:#11a579;stroke:#11a579;" x="146.98873" xlink:href="#m38a1afe013" y="315.841421"/>
     <use style="fill:#11a579;stroke:#11a579;" x="172.14275" xlink:href="#m38a1afe013" y="314.493253"/>
     <use style="fill:#11a579;stroke:#11a579;" x="197.296769" xlink:href="#m38a1afe013" y="312.808198"/>
     <use style="fill:#11a579;stroke:#11a579;" x="222.450789" xlink:href="#m38a1afe013" y="310.910368"/>
     <use style="fill:#11a579;stroke:#11a579;" x="247.604808" xlink:href="#m38a1afe013" y="306.79735"/>
     <use style="fill:#11a579;stroke:#11a579;" x="272.758828" xlink:href="#m38a1afe013" y="306.17912"/>
     <use style="fill:#11a579;stroke:#11a579;" x="297.912847" xlink:href="#m38a1afe013" y="306.630541"/>
     <use style="fill:#11a579;stroke:#11a579;" x="323.066867" xlink:href="#m38a1afe013" y="307.087415"/>
     <use style="fill:#11a579;stroke:#11a579;" x="348.220887" xlink:href="#m38a1afe013" y="307.542001"/>
     <use style="fill:#11a579;stroke:#11a579;" x="373.374906" xlink:href="#m38a1afe013" y="307.745063"/>
     <use style="fill:#11a579;stroke:#11a579;" x="398.528926" xlink:href="#m38a1afe013" y="307.784575"/>
    </g>
   </g>
   <g id="line2d_18">
    <path clip-path="url(#pc3c4dc428b)" d="M 121.834711 284.347228 
L 146.98873 339.524807 
L 172.14275 354.173254 
L 197.296769 353.565067 
L 222.450789 337.062546 
L 247.604808 312.339932 
L 272.758828 292.014571 
L 297.912847 280.542739 
L 323.066867 277.019 
L 348.220887 276.637518 
L 373.374906 276.971771 
L 398.528926 276.832261 
" style="fill:none;stroke:#3969ac;stroke-dasharray:5.55,2.4;stroke-dashoffset:0;stroke-width:1.5;"/>
    <defs>
     <path d="M 0 3 
C 0.795609 3 1.55874 2.683901 2.12132 2.12132 
C 2.683901 1.55874 3 0.795609 3 0 
C 3 -0.795609 2.683901 -1.55874 2.12132 -2.12132 
C 1.55874 -2.683901 0.795609 -3 0 -3 
C -0.795609 -3 -1.55874 -2.683901 -2.12132 -2.12132 
C -2.683901 -1.55874 -3 -0.795609 -3 0 
C -3 0.795609 -2.683901 1.55874 -2.12132 2.12132 
C -1.55874 2.683901 -0.795609 3 0 3 
z
" id="m6a325252e8" style="stroke:#3969ac;"/>
    </defs>
    <g clip-path="url(#pc3c4dc428b)">
     <use style="fill:#3969ac;stroke:#3969ac;" x="121.834711" xlink:href="#m6a325252e8" y="284.347228"/>
     <use style="fill:#3969ac;stroke:#3969ac;" x="146.98873" xlink:href="#m6a325252e8" y="339.524807"/>
     <use style="fill:#3969ac;stroke:#3969ac;" x="172.14275" xlink:href="#m6a325252e8" y="354.173254"/>
     <use style="fill:#3969ac;stroke:#3969ac;" x="197.296769" xlink:href="#m6a325252e8" y="353.565067"/>
     <use style="fill:#3969ac;stroke:#3969ac;" x="222.450789" xlink:href="#m6a325252e8" y="337.062546"/>
     <use style="fill:#3969ac;stroke:#3969ac;" x="247.604808" xlink:href="#m6a325252e8" y="312.339932"/>
     <use style="fill:#3969ac;stroke:#3969ac;" x="272.758828" xlink:href="#m6a325252e8" y="292.014571"/>
     <use style="fill:#3969ac;stroke:#3969ac;" x="297.912847" xlink:href="#m6a325252e8" y="280.542739"/>
     <use style="fill:#3969ac;stroke:#3969ac;" x="323.066867" xlink:href="#m6a325252e8" y="277.019"/>
     <use style="fill:#3969ac;stroke:#3969ac;" x="348.220887" xlink:href="#m6a325252e8" y="276.637518"/>
     <use style="fill:#3969ac;stroke:#3969ac;" x="373.374906" xlink:href="#m6a325252e8" y="276.971771"/>
     <use style="fill:#3969ac;stroke:#3969ac;" x="398.528926" xlink:href="#m6a325252e8" y="276.832261"/>
    </g>
   </g>
   <g id="line2d_19">
    <path clip-path="url(#pc3c4dc428b)" d="M 121.834711 300.167607 
L 146.98873 356.095819 
L 172.14275 369.090825 
L 197.296769 367.503548 
L 222.450789 352.176326 
L 247.604808 326.213548 
L 272.758828 304.532867 
L 297.912847 294.159251 
L 323.066867 290.341028 
L 348.220887 290.57135 
L 373.374906 291.194621 
L 398.528926 291.273992 
" style="fill:none;stroke:#3969ac;stroke-linecap:square;stroke-width:1.5;"/>
    <g clip-path="url(#pc3c4dc428b)">
     <use style="fill:#3969ac;stroke:#3969ac;" x="121.834711" xlink:href="#m6a325252e8" y="300.167607"/>
     <use style="fill:#3969ac;stroke:#3969ac;" x="146.98873" xlink:href="#m6a325252e8" y="356.095819"/>
     <use style="fill:#3969ac;stroke:#3969ac;" x="172.14275" xlink:href="#m6a325252e8" y="369.090825"/>
     <use style="fill:#3969ac;stroke:#3969ac;" x="197.296769" xlink:href="#m6a325252e8" y="367.503548"/>
     <use style="fill:#3969ac;stroke:#3969ac;" x="222.450789" xlink:href="#m6a325252e8" y="352.176326"/>
     <use style="fill:#3969ac;stroke:#3969ac;" x="247.604808" xlink:href="#m6a325252e8" y="326.213548"/>
     <use style="fill:#3969ac;stroke:#3969ac;" x="272.758828" xlink:href="#m6a325252e8" y="304.532867"/>
     <use style="fill:#3969ac;stroke:#3969ac;" x="297.912847" xlink:href="#m6a325252e8" y="294.159251"/>
     <use style="fill:#3969ac;stroke:#3969ac;" x="323.066867" xlink:href="#m6a325252e8" y="290.341028"/>
     <use style="fill:#3969ac;stroke:#3969ac;" x="348.220887" xlink:href="#m6a325252e8" y="290.57135"/>
     <use style="fill:#3969ac;stroke:#3969ac;" x="373.374906" xlink:href="#m6a325252e8" y="291.194621"/>
     <use style="fill:#3969ac;stroke:#3969ac;" x="398.528926" xlink:href="#m6a325252e8" y="291.273992"/>
    </g>
   </g>
   <g id="patch_3">
    <path d="M 108 384.48 
L 108 51.84 
" style="fill:none;stroke:#000000;stroke-linecap:square;stroke-linejoin:miter;stroke-width:0.8;"/>
   </g>
   <g id="patch_4">
    <path d="M 412.363636 384.48 
L 412.363636 51.84 
" style="fill:none;stroke:#000000;stroke-linecap:square;stroke-linejoin:miter;stroke-width:0.8;"/>
   </g>
   <g id="patch_5">
    <path d="M 108 384.48 
L 412.363636 384.48 
" style="fill:none;stroke:#000000;stroke-linecap:square;stroke-linejoin:miter;stroke-width:0.8;"/>
   </g>
   <g id="patch_6">
    <path d="M 108 51.84 
L 412.363636 51.84 
" style="fill:none;stroke:#000000;stroke-linecap:square;stroke-linejoin:miter;stroke-width:0.8;"/>
   </g>
   <g id="legend_1">
    <g id="patch_7">
     <path d="M 314.332386 379.48 
L 405.363636 379.48 
Q 407.363636 379.48 407.363636 377.48 
L 407.363636 334.445625 
Q 407.363636 332.445625 405.363636 332.445625 
L 314.332386 332.445625 
Q 312.332386 332.445625 312.332386 334.445625 
L 312.332386 377.48 
Q 312.332386 379.48 314.332386 379.48 
z
" style="fill:#ffffff;opacity:0.8;stroke:#cccccc;stroke-linejoin:miter;"/>
    </g>
    <g id="line2d_20">
     <path d="M 316.332386 340.544062 
L 336.332386 340.544062 
" style="fill:none;stroke:#7f3c8d;stroke-linecap:square;stroke-width:1.5;"/>
    </g>
    <g id="line2d_21">
     <g>
      <use style="fill:#7f3c8d;stroke:#7f3c8d;" x="326.332386" xlink:href="#m3878b0e598" y="340.544062"/>
     </g>
    </g>
    <g id="text_17">
     <text style="font-family:DejaVu Sans;font-size:10px;font-stretch:normal;font-style:normal;font-weight:normal;text-anchor:start;" transform="rotate(-0, 344.332386, 344.044062)" x="344.332386" y="344.044062">hmmscan</text>
    </g>
    <g id="line2d_22">
     <path d="M 316.332386 355.222188 
L 336.332386 355.222188 
" style="fill:none;stroke:#11a579;stroke-linecap:square;stroke-width:1.5;"/>
    </g>
    <g id="line2d_23">
     <g>
      <use style="fill:#11a579;stroke:#11a579;" x="326.332386" xlink:href="#m38a1afe013" y="355.222188"/>
     </g>
    </g>
    <g id="text_18">
     <text style="font-family:DejaVu Sans;font-size:10px;font-stretch:normal;font-style:normal;font-weight:normal;text-anchor:start;" transform="rotate(-0, 344.332386, 358.722188)" x="344.332386" y="358.722188">hmmsearch</text>
    </g>
    <g id="line2d_24">
     <path d="M 316.332386 369.900312 
L 336.332386 369.900312 
" style="fill:none;stroke:#3969ac;stroke-linecap:square;stroke-width:1.5;"/>
    </g>
    <g id="line2d_25">
     <g>
      <use style="fill:#3969ac;stroke:#3969ac;" x="326.332386" xlink:href="#m6a325252e8" y="369.900312"/>
     </g>
    </g>
    <g id="text_19">
     <text style="font-family:DejaVu Sans;font-size:10px;font-stretch:normal;font-style:normal;font-weight:normal;text-anchor:start;" transform="rotate(-0, 344.332386, 373.400312)" x="344.332386" y="373.400312">pyhmmer</text>
    </g>
   </g>
  </g>
  <g id="axes_2">
   <g id="patch_8">
    <path d="M 473.236364 384.48 
L 777.6 384.48 
L 777.6 51.84 
L 473.236364 51.84 
z
" style="fill:none;"/>
   </g>
   <g id="PolyCollection_6">
    <defs>
     <path d="M 487.071074 -332.866818 
L 487.071074 -329.587675 
L 512.225094 -262.021149 
L 537.379113 -264.105302 
L 562.533133 -266.185878 
L 587.687153 -267.860503 
L 612.841172 -272.376021 
L 637.995192 -274.323837 
L 663.149211 -275.593679 
L 688.303231 -276.07476 
L 713.45725 -275.023829 
L 738.61127 -274.684139 
L 763.765289 -274.219465 
L 763.765289 -274.92798 
L 763.765289 -274.92798 
L 738.61127 -275.611694 
L 713.45725 -276.725671 
L 688.303231 -276.852259 
L 663.149211 -276.278733 
L 637.995192 -274.943077 
L 612.841172 -272.722152 
L 587.687153 -268.258511 
L 562.533133 -266.486895 
L 537.379113 -264.723136 
L 512.225094 -263.701551 
L 487.071074 -332.866818 
z
" id="m7efb16a57c" style="stroke:#11a579;stroke-opacity:0.1;"/>
    </defs>
    <g clip-path="url(#pdb324379c8)">
     <use style="fill:#11a579;fill-opacity:0.1;stroke:#11a579;stroke-opacity:0.1;" x="0" xlink:href="#m7efb16a57c" y="432"/>
    </g>
   </g>
   <g id="PolyCollection_7">
    <defs>
     <path d="M 487.071074 -365.04 
L 487.071074 -359.479344 
L 512.225094 -222.129285 
L 537.379113 -145.105121 
L 562.533133 -112.486688 
L 587.687153 -93.774584 
L 612.841172 -82.569326 
L 637.995192 -77.029481 
L 663.149211 -73.76635 
L 688.303231 -71.475914 
L 713.45725 -67.841827 
L 738.61127 -64.393009 
L 763.765289 -62.64 
L 763.765289 -63.473579 
L 763.765289 -63.473579 
L 738.61127 -65.748596 
L 713.45725 -68.45566 
L 688.303231 -72.342431 
L 663.149211 -74.497615 
L 637.995192 -78.569462 
L 612.841172 -83.492304 
L 587.687153 -96.248707 
L 562.533133 -115.608934 
L 537.379113 -146.701766 
L 512.225094 -225.848688 
L 487.071074 -365.04 
z
" id="m157496a3b3" style="stroke:#3969ac;stroke-opacity:0.1;"/>
    </defs>
    <g clip-path="url(#pdb324379c8)">
     <use style="fill:#3969ac;fill-opacity:0.1;stroke:#3969ac;stroke-opacity:0.1;" x="0" xlink:href="#m157496a3b3" y="432"/>
    </g>
   </g>
   <g id="matplotlib.axis_3">
    <g id="xtick_7">
     <g id="line2d_26">
      <g>
       <use style="stroke:#000000;stroke-width:0.8;" x="512.225094" xlink:href="#mc7d176842d" y="384.48"/>
      </g>
     </g>
     <g id="text_20">
      <text style="font-family:DejaVu Sans;font-size:10px;font-stretch:normal;font-style:normal;font-weight:normal;text-anchor:middle;" transform="rotate(-0, 512.225094, 399.078438)" x="512.225094" y="399.078438">2</text>
     </g>
    </g>
    <g id="xtick_8">
     <g id="line2d_27">
      <g>
       <use style="stroke:#000000;stroke-width:0.8;" x="562.533133" xlink:href="#mc7d176842d" y="384.48"/>
      </g>
     </g>
     <g id="text_21">
      <text style="font-family:DejaVu Sans;font-size:10px;font-stretch:normal;font-style:normal;font-weight:normal;text-anchor:middle;" transform="rotate(-0, 562.533133, 399.078438)" x="562.533133" y="399.078438">4</text>
     </g>
    </g>
    <g id="xtick_9">
     <g id="line2d_28">
      <g>
       <use style="stroke:#000000;stroke-width:0.8;" x="612.841172" xlink:href="#mc7d176842d" y="384.48"/>
      </g>
     </g>
     <g id="text_22">
      <text style="font-family:DejaVu Sans;font-size:10px;font-stretch:normal;font-style:normal;font-weight:normal;text-anchor:middle;" transform="rotate(-0, 612.841172, 399.078438)" x="612.841172" y="399.078438">6</text>
     </g>
    </g>
    <g id="xtick_10">
     <g id="line2d_29">
      <g>
       <use style="stroke:#000000;stroke-width:0.8;" x="663.149211" xlink:href="#mc7d176842d" y="384.48"/>
      </g>
     </g>
     <g id="text_23">
      <text style="font-family:DejaVu Sans;font-size:10px;font-stretch:normal;font-style:normal;font-weight:normal;text-anchor:middle;" transform="rotate(-0, 663.149211, 399.078438)" x="663.149211" y="399.078438">8</text>
     </g>
    </g>
    <g id="xtick_11">
     <g id="line2d_30">
      <g>
       <use style="stroke:#000000;stroke-width:0.8;" x="713.45725" xlink:href="#mc7d176842d" y="384.48"/>
      </g>
     </g>
     <g id="text_24">
      <text style="font-family:DejaVu Sans;font-size:10px;font-stretch:normal;font-style:normal;font-weight:normal;text-anchor:middle;" transform="rotate(-0, 713.45725, 399.078438)" x="713.45725" y="399.078438">10</text>
     </g>
    </g>
    <g id="xtick_12">
     <g id="line2d_31">
      <g>
       <use style="stroke:#000000;stroke-width:0.8;" x="763.765289" xlink:href="#mc7d176842d" y="384.48"/>
      </g>
     </g>
     <g id="text_25">
      <text style="font-family:DejaVu Sans;font-size:10px;font-stretch:normal;font-style:normal;font-weight:normal;text-anchor:middle;" transform="rotate(-0, 763.765289, 399.078438)" x="763.765289" y="399.078438">12</text>
     </g>
    </g>
    <g id="text_26">
     <text style="font-family:DejaVu Sans;font-size:10px;font-stretch:normal;font-style:normal;font-weight:normal;text-anchor:middle;" transform="rotate(-0, 625.418182, 412.756563)" x="625.418182" y="412.756563">CPUs</text>
    </g>
   </g>
   <g id="matplotlib.axis_4">
    <g id="ytick_9">
     <g id="line2d_32">
      <g>
       <use style="stroke:#000000;stroke-width:0.8;" x="473.236364" xlink:href="#m25162a7b24" y="324.696394"/>
      </g>
     </g>
     <g id="text_27">
      <text style="font-family:DejaVu Sans;font-size:10px;font-stretch:normal;font-style:normal;font-weight:normal;text-anchor:end;" transform="rotate(-0, 466.236364, 328.495613)" x="466.236364" y="328.495613">40</text>
     </g>
    </g>
    <g id="ytick_10">
     <g id="line2d_33">
      <g>
       <use style="stroke:#000000;stroke-width:0.8;" x="473.236364" xlink:href="#m25162a7b24" y="259.232128"/>
      </g>
     </g>
     <g id="text_28">
      <text style="font-family:DejaVu Sans;font-size:10px;font-stretch:normal;font-style:normal;font-weight:normal;text-anchor:end;" transform="rotate(-0, 466.236364, 263.031347)" x="466.236364" y="263.031347">60</text>
     </g>
    </g>
    <g id="ytick_11">
     <g id="line2d_34">
      <g>
       <use style="stroke:#000000;stroke-width:0.8;" x="473.236364" xlink:href="#m25162a7b24" y="193.767862"/>
      </g>
     </g>
     <g id="text_29">
      <text style="font-family:DejaVu Sans;font-size:10px;font-stretch:normal;font-style:normal;font-weight:normal;text-anchor:end;" transform="rotate(-0, 466.236364, 197.567081)" x="466.236364" y="197.567081">80</text>
     </g>
    </g>
    <g id="ytick_12">
     <g id="line2d_35">
      <g>
       <use style="stroke:#000000;stroke-width:0.8;" x="473.236364" xlink:href="#m25162a7b24" y="128.303596"/>
      </g>
     </g>
     <g id="text_30">
      <text style="font-family:DejaVu Sans;font-size:10px;font-stretch:normal;font-style:normal;font-weight:normal;text-anchor:end;" transform="rotate(-0, 466.236364, 132.102815)" x="466.236364" y="132.102815">100</text>
     </g>
    </g>
    <g id="ytick_13">
     <g id="line2d_36">
      <g>
       <use style="stroke:#000000;stroke-width:0.8;" x="473.236364" xlink:href="#m25162a7b24" y="62.83933"/>
      </g>
     </g>
     <g id="text_31">
      <text style="font-family:DejaVu Sans;font-size:10px;font-stretch:normal;font-style:normal;font-weight:normal;text-anchor:end;" transform="rotate(-0, 466.236364, 66.638549)" x="466.236364" y="66.638549">120</text>
     </g>
    </g>
    <g id="text_32">
     <text style="font-family:DejaVu Sans;font-size:10px;font-stretch:normal;font-style:normal;font-weight:normal;text-anchor:middle;" transform="rotate(-90, 441.069176, 218.16)" x="441.069176" y="218.16">Time (s)</text>
    </g>
   </g>
   <g id="line2d_37">
    <path clip-path="url(#pdb324379c8)" d="M 487.071074 100.772754 
L 512.225094 169.13865 
L 537.379113 167.585781 
L 562.533133 165.663613 
L 587.687153 163.940493 
L 612.841172 159.450913 
L 637.995192 157.366543 
L 663.149211 156.063794 
L 688.303231 155.536491 
L 713.45725 156.12525 
L 738.61127 156.852083 
L 763.765289 157.426277 
" style="fill:none;stroke:#11a579;stroke-linecap:square;stroke-width:1.5;"/>
    <g clip-path="url(#pdb324379c8)">
     <use style="fill:#11a579;stroke:#11a579;" x="487.071074" xlink:href="#m38a1afe013" y="100.772754"/>
     <use style="fill:#11a579;stroke:#11a579;" x="512.225094" xlink:href="#m38a1afe013" y="169.13865"/>
     <use style="fill:#11a579;stroke:#11a579;" x="537.379113" xlink:href="#m38a1afe013" y="167.585781"/>
     <use style="fill:#11a579;stroke:#11a579;" x="562.533133" xlink:href="#m38a1afe013" y="165.663613"/>
     <use style="fill:#11a579;stroke:#11a579;" x="587.687153" xlink:href="#m38a1afe013" y="163.940493"/>
     <use style="fill:#11a579;stroke:#11a579;" x="612.841172" xlink:href="#m38a1afe013" y="159.450913"/>
     <use style="fill:#11a579;stroke:#11a579;" x="637.995192" xlink:href="#m38a1afe013" y="157.366543"/>
     <use style="fill:#11a579;stroke:#11a579;" x="663.149211" xlink:href="#m38a1afe013" y="156.063794"/>
     <use style="fill:#11a579;stroke:#11a579;" x="688.303231" xlink:href="#m38a1afe013" y="155.536491"/>
     <use style="fill:#11a579;stroke:#11a579;" x="713.45725" xlink:href="#m38a1afe013" y="156.12525"/>
     <use style="fill:#11a579;stroke:#11a579;" x="738.61127" xlink:href="#m38a1afe013" y="156.852083"/>
     <use style="fill:#11a579;stroke:#11a579;" x="763.765289" xlink:href="#m38a1afe013" y="157.426277"/>
    </g>
   </g>
   <g id="line2d_38">
    <path clip-path="url(#pdb324379c8)" d="M 487.071074 69.740328 
L 512.225094 208.011013 
L 537.379113 286.096556 
L 562.533133 317.952189 
L 587.687153 336.988355 
L 612.841172 348.969185 
L 637.995192 354.200528 
L 663.149211 357.868017 
L 688.303231 360.090827 
L 713.45725 363.851257 
L 738.61127 366.929197 
L 763.765289 368.943211 
" style="fill:none;stroke:#3969ac;stroke-linecap:square;stroke-width:1.5;"/>
    <g clip-path="url(#pdb324379c8)">
     <use style="fill:#3969ac;stroke:#3969ac;" x="487.071074" xlink:href="#m6a325252e8" y="69.740328"/>
     <use style="fill:#3969ac;stroke:#3969ac;" x="512.225094" xlink:href="#m6a325252e8" y="208.011013"/>
     <use style="fill:#3969ac;stroke:#3969ac;" x="537.379113" xlink:href="#m6a325252e8" y="286.096556"/>
     <use style="fill:#3969ac;stroke:#3969ac;" x="562.533133" xlink:href="#m6a325252e8" y="317.952189"/>
     <use style="fill:#3969ac;stroke:#3969ac;" x="587.687153" xlink:href="#m6a325252e8" y="336.988355"/>
     <use style="fill:#3969ac;stroke:#3969ac;" x="612.841172" xlink:href="#m6a325252e8" y="348.969185"/>
     <use style="fill:#3969ac;stroke:#3969ac;" x="637.995192" xlink:href="#m6a325252e8" y="354.200528"/>
     <use style="fill:#3969ac;stroke:#3969ac;" x="663.149211" xlink:href="#m6a325252e8" y="357.868017"/>
     <use style="fill:#3969ac;stroke:#3969ac;" x="688.303231" xlink:href="#m6a325252e8" y="360.090827"/>
     <use style="fill:#3969ac;stroke:#3969ac;" x="713.45725" xlink:href="#m6a325252e8" y="363.851257"/>
     <use style="fill:#3969ac;stroke:#3969ac;" x="738.61127" xlink:href="#m6a325252e8" y="366.929197"/>
     <use style="fill:#3969ac;stroke:#3969ac;" x="763.765289" xlink:href="#m6a325252e8" y="368.943211"/>
    </g>
   </g>
   <g id="patch_9">
    <path d="M 473.236364 384.48 
L 473.236364 51.84 
" style="fill:none;stroke:#000000;stroke-linecap:square;stroke-linejoin:miter;stroke-width:0.8;"/>
   </g>
   <g id="patch_10">
    <path d="M 777.6 384.48 
L 777.6 51.84 
" style="fill:none;stroke:#000000;stroke-linecap:square;stroke-linejoin:miter;stroke-width:0.8;"/>
   </g>
   <g id="patch_11">
    <path d="M 473.236364 384.48 
L 777.6 384.48 
" style="fill:none;stroke:#000000;stroke-linecap:square;stroke-linejoin:miter;stroke-width:0.8;"/>
   </g>
   <g id="patch_12">
    <path d="M 473.236364 51.84 
L 777.6 51.84 
" style="fill:none;stroke:#000000;stroke-linecap:square;stroke-linejoin:miter;stroke-width:0.8;"/>
   </g>
   <g id="legend_2">
    <g id="patch_13">
     <path d="M 690.25 89.19625 
L 770.6 89.19625 
Q 772.6 89.19625 772.6 87.19625 
L 772.6 58.84 
Q 772.6 56.84 770.6 56.84 
L 690.25 56.84 
Q 688.25 56.84 688.25 58.84 
L 688.25 87.19625 
Q 688.25 89.19625 690.25 89.19625 
z
" style="fill:#ffffff;opacity:0.8;stroke:#cccccc;stroke-linejoin:miter;"/>
    </g>
    <g id="line2d_39">
     <path d="M 692.25 64.938437 
L 712.25 64.938437 
" style="fill:none;stroke:#11a579;stroke-linecap:square;stroke-width:1.5;"/>
    </g>
    <g id="line2d_40">
     <g>
      <use style="fill:#11a579;stroke:#11a579;" x="702.25" xlink:href="#m38a1afe013" y="64.938437"/>
     </g>
    </g>
    <g id="text_33">
     <text style="font-family:DejaVu Sans;font-size:10px;font-stretch:normal;font-style:normal;font-weight:normal;text-anchor:start;" transform="rotate(-0, 720.25, 68.438437)" x="720.25" y="68.438437">phmmer</text>
    </g>
    <g id="line2d_41">
     <path d="M 692.25 79.616562 
L 712.25 79.616562 
" style="fill:none;stroke:#3969ac;stroke-linecap:square;stroke-width:1.5;"/>
    </g>
    <g id="line2d_42">
     <g>
      <use style="fill:#3969ac;stroke:#3969ac;" x="702.25" xlink:href="#m6a325252e8" y="79.616562"/>
     </g>
    </g>
    <g id="text_34">
     <text style="font-family:DejaVu Sans;font-size:10px;font-stretch:normal;font-style:normal;font-weight:normal;text-anchor:start;" transform="rotate(-0, 720.25, 83.116562)" x="720.25" y="83.116562">pyhmmer</text>
    </g>
   </g>
  </g>
 </g>
 <defs>
  <clipPath id="pc3c4dc428b">
   <rect height="332.64" width="304.363636" x="108" y="51.84"/>
  </clipPath>
  <clipPath id="pdb324379c8">
   <rect height="332.64" width="304.363636" x="473.236364" y="51.84"/>
  </clipPath>
 </defs>
</svg>
