<svg xmlns="http://www.w3.org/2000/svg" xmlns:xlink="http://www.w3.org/1999/xlink" width="1152" height="576" version="1.1" viewBox="0 0 864 432"><metadata><rdf:RDF xmlns:cc="http://creativecommons.org/ns#" xmlns:dc="http://purl.org/dc/elements/1.1/" xmlns:rdf="http://www.w3.org/1999/02/22-rdf-syntax-ns#"><cc:Work><dc:type rdf:resource="http://purl.org/dc/dcmitype/StillImage"/><dc:date>2021-05-10T14:45:20.186065</dc:date><dc:format>image/svg+xml</dc:format><dc:creator><cc:Agent><dc:title>Matplotlib v3.4.1, https://matplotlib.org/</dc:title></cc:Agent></dc:creator></cc:Work></rdf:RDF></metadata><defs><style type="text/css">*{stroke-linecap:butt;stroke-linejoin:round}</style></defs><g id="figure_1"><g id="patch_1"><path d="M 0 432 L 864 432 L 864 0 L 0 0 z" style="fill:none"/></g><g id="axes_1"><g id="patch_2"><path d="M 108 384.48 L 412.363636 384.48 L 412.363636 51.84 L 108 51.84 z" style="fill:none"/></g><g id="PolyCollection_1"><defs><path id="m6dae133659" d="M 121.834711 -365.04 L 121.834711 -363.579664 L 146.98873 -343.425686 L 172.14275 -340.924143 L 197.296769 -340.679221 L 222.450789 -341.134567 L 247.604808 -341.864339 L 272.758828 -342.363339 L 297.912847 -343.959794 L 323.066867 -344.545824 L 348.220887 -344.805034 L 373.374906 -345.422532 L 398.528926 -344.941936 L 398.528926 -345.904856 L 398.528926 -345.904856 L 373.374906 -346.22203 L 348.220887 -345.988953 L 323.066867 -345.727803 L 297.912847 -344.20327 L 272.758828 -344.411117 L 247.604808 -343.609853 L 222.450789 -343.653052 L 197.296769 -342.316353 L 172.14275 -342.497215 L 146.98873 -345.076425 L 121.834711 -365.04 z" style="stroke:#7f3c8d;stroke-opacity:.1"/></defs><g clip-path="url(#p585014c35c)"><use style="fill:#7f3c8d;fill-opacity:.1;stroke:#7f3c8d;stroke-opacity:.1" x="0" y="432" xlink:href="#m6dae133659"/></g></g><g id="PolyCollection_2"><defs><path id="mfd3954d05d" d="M 121.834711 -163.249828 L 121.834711 -161.002712 L 146.98873 -132.936226 L 172.14275 -134.665347 L 197.296769 -136.258999 L 222.450789 -138.277642 L 247.604808 -142.576844 L 272.758828 -143.58675 L 297.912847 -143.178881 L 323.066867 -142.846658 L 348.220887 -142.320859 L 373.374906 -141.602486 L 398.528926 -141.901668 L 398.528926 -142.120704 L 398.528926 -142.120704 L 373.374906 -142.064876 L 348.220887 -142.497106 L 323.066867 -143.178289 L 297.912847 -143.922127 L 272.758828 -143.777817 L 247.604808 -142.992735 L 222.450789 -138.503158 L 197.296769 -136.819712 L 172.14275 -134.826349 L 146.98873 -133.139015 L 121.834711 -163.249828 z" style="stroke:#11a579;stroke-opacity:.1"/></defs><g clip-path="url(#p585014c35c)"><use style="fill:#11a579;fill-opacity:.1;stroke:#11a579;stroke-opacity:.1" x="0" y="432" xlink:href="#mfd3954d05d"/></g></g><g id="PolyCollection_3"><defs><path id="mc20439553f" d="M 121.834711 -144.72524 L 121.834711 -144.361211 L 146.98873 -115.641182 L 172.14275 -117.376364 L 197.296769 -119.058296 L 222.450789 -120.999399 L 247.604808 -125.12805 L 272.758828 -125.624779 L 297.912847 -125.136255 L 323.066867 -124.705527 L 348.220887 -124.252953 L 373.374906 -124.035601 L 398.528926 -124.095749 L 398.528926 -124.3351 L 398.528926 -124.3351 L 373.374906 -124.474274 L 348.220887 -124.663046 L 323.066867 -125.119643 L 297.912847 -125.602662 L 272.758828 -126.016981 L 247.604808 -125.277251 L 222.450789 -121.179866 L 197.296769 -119.325309 L 172.14275 -117.637131 L 146.98873 -116.675975 L 121.834711 -144.72524 z" style="stroke:#11a579;stroke-opacity:.1"/></defs><g clip-path="url(#p585014c35c)"><use style="fill:#11a579;fill-opacity:.1;stroke:#11a579;stroke-opacity:.1" x="0" y="432" xlink:href="#mc20439553f"/></g></g><g id="PolyCollection_4"><defs><path id="m64a9e2190e" d="M 121.834711 -148.113882 L 121.834711 -147.191662 L 146.98873 -92.241797 L 172.14275 -77.631235 L 197.296769 -77.844041 L 222.450789 -92.971798 L 247.604808 -118.428596 L 272.758828 -139.487181 L 297.912847 -150.717724 L 323.066867 -154.503682 L 348.220887 -155.053209 L 373.374906 -154.626595 L 398.528926 -154.599771 L 398.528926 -155.735708 L 398.528926 -155.735708 L 373.374906 -155.429862 L 348.220887 -155.671755 L 323.066867 -155.458317 L 297.912847 -152.196798 L 272.758828 -140.483678 L 247.604808 -120.891541 L 222.450789 -96.903109 L 197.296769 -79.025825 L 172.14275 -78.022257 L 146.98873 -92.708589 L 121.834711 -148.113882 z" style="stroke:#3969ac;stroke-opacity:.1"/></defs><g clip-path="url(#p585014c35c)"><use style="fill:#3969ac;fill-opacity:.1;stroke:#3969ac;stroke-opacity:.1" x="0" y="432" xlink:href="#m64a9e2190e"/></g></g><g id="PolyCollection_5"><defs><path id="m86003782db" d="M 121.834711 -133.418257 L 121.834711 -130.246529 L 146.98873 -75.632997 L 172.14275 -62.64 L 197.296769 -64.022156 L 222.450789 -78.984706 L 247.604808 -104.101002 L 272.758828 -126.240769 L 297.912847 -137.348176 L 323.066867 -141.103801 L 348.220887 -140.976768 L 373.374906 -140.53767 L 398.528926 -140.586099 L 398.528926 -140.865918 L 398.528926 -140.865918 L 373.374906 -141.073089 L 348.220887 -141.880532 L 323.066867 -142.214144 L 297.912847 -138.333321 L 272.758828 -128.693498 L 247.604808 -107.471902 L 222.450789 -80.662643 L 197.296769 -64.970749 L 172.14275 -63.178351 L 146.98873 -76.175364 L 121.834711 -133.418257 z" style="stroke:#3969ac;stroke-opacity:.1"/></defs><g clip-path="url(#p585014c35c)"><use style="fill:#3969ac;fill-opacity:.1;stroke:#3969ac;stroke-opacity:.1" x="0" y="432" xlink:href="#m86003782db"/></g></g><g id="matplotlib.axis_1"><g id="xtick_1"><g id="line2d_1"><defs><path id="mbde63cc991" d="M 0 0 L 0 3.5" style="stroke:#000;stroke-width:.8"/></defs><g><use style="stroke:#000;stroke-width:.8" x="146.989" y="384.48" xlink:href="#mbde63cc991"/></g></g><g id="text_1"><text style="font-family:DejaVu Sans;font-size:10px;font-stretch:normal;font-style:normal;font-weight:400;text-anchor:middle" x="146.989" y="399.078" transform="rotate(-0, 146.98873, 399.078438)">2</text></g></g><g id="xtick_2"><g id="line2d_2"><g><use style="stroke:#000;stroke-width:.8" x="197.297" y="384.48" xlink:href="#mbde63cc991"/></g></g><g id="text_2"><text style="font-family:DejaVu Sans;font-size:10px;font-stretch:normal;font-style:normal;font-weight:400;text-anchor:middle" x="197.297" y="399.078" transform="rotate(-0, 197.296769, 399.078438)">4</text></g></g><g id="xtick_3"><g id="line2d_3"><g><use style="stroke:#000;stroke-width:.8" x="247.605" y="384.48" xlink:href="#mbde63cc991"/></g></g><g id="text_3"><text style="font-family:DejaVu Sans;font-size:10px;font-stretch:normal;font-style:normal;font-weight:400;text-anchor:middle" x="247.605" y="399.078" transform="rotate(-0, 247.604808, 399.078438)">6</text></g></g><g id="xtick_4"><g id="line2d_4"><g><use style="stroke:#000;stroke-width:.8" x="297.913" y="384.48" xlink:href="#mbde63cc991"/></g></g><g id="text_4"><text style="font-family:DejaVu Sans;font-size:10px;font-stretch:normal;font-style:normal;font-weight:400;text-anchor:middle" x="297.913" y="399.078" transform="rotate(-0, 297.912847, 399.078438)">8</text></g></g><g id="xtick_5"><g id="line2d_5"><g><use style="stroke:#000;stroke-width:.8" x="348.221" y="384.48" xlink:href="#mbde63cc991"/></g></g><g id="text_5"><text style="font-family:DejaVu Sans;font-size:10px;font-stretch:normal;font-style:normal;font-weight:400;text-anchor:middle" x="348.221" y="399.078" transform="rotate(-0, 348.220887, 399.078438)">10</text></g></g><g id="xtick_6"><g id="line2d_6"><g><use style="stroke:#000;stroke-width:.8" x="398.529" y="384.48" xlink:href="#mbde63cc991"/></g></g><g id="text_6"><text style="font-family:DejaVu Sans;font-size:10px;font-stretch:normal;font-style:normal;font-weight:400;text-anchor:middle" x="398.529" y="399.078" transform="rotate(-0, 398.528926, 399.078438)">12</text></g></g><g id="text_7"><text style="font-family:DejaVu Sans;font-size:10px;font-stretch:normal;font-style:normal;font-weight:400;text-anchor:middle" x="260.182" y="412.757" transform="rotate(-0, 260.181818, 412.756563)">CPUs</text></g></g><g id="matplotlib.axis_2"><g id="ytick_1"><g id="line2d_7"><defs><path id="m1a1766d132" d="M 0 0 L -3.5 0" style="stroke:#000;stroke-width:.8"/></defs><g><use style="stroke:#000;stroke-width:.8" x="108" y="372.732" xlink:href="#m1a1766d132"/></g></g><g id="text_8"><text style="font-family:DejaVu Sans;font-size:10px;font-stretch:normal;font-style:normal;font-weight:400;text-anchor:end" x="101" y="376.531" transform="rotate(-0, 101, 376.531057)">50</text></g></g><g id="ytick_2"><g id="line2d_8"><g><use style="stroke:#000;stroke-width:.8" x="108" y="328.749" xlink:href="#m1a1766d132"/></g></g><g id="text_9"><text style="font-family:DejaVu Sans;font-size:10px;font-stretch:normal;font-style:normal;font-weight:400;text-anchor:end" x="101" y="332.549" transform="rotate(-0, 101, 332.548625)">100</text></g></g><g id="ytick_3"><g id="line2d_9"><g><use style="stroke:#000;stroke-width:.8" x="108" y="284.767" xlink:href="#m1a1766d132"/></g></g><g id="text_10"><text style="font-family:DejaVu Sans;font-size:10px;font-stretch:normal;font-style:normal;font-weight:400;text-anchor:end" x="101" y="288.566" transform="rotate(-0, 101, 288.566192)">150</text></g></g><g id="ytick_4"><g id="line2d_10"><g><use style="stroke:#000;stroke-width:.8" x="108" y="240.785" xlink:href="#m1a1766d132"/></g></g><g id="text_11"><text style="font-family:DejaVu Sans;font-size:10px;font-stretch:normal;font-style:normal;font-weight:400;text-anchor:end" x="101" y="244.584" transform="rotate(-0, 101, 244.58376)">200</text></g></g><g id="ytick_5"><g id="line2d_11"><g><use style="stroke:#000;stroke-width:.8" x="108" y="196.802" xlink:href="#m1a1766d132"/></g></g><g id="text_12"><text style="font-family:DejaVu Sans;font-size:10px;font-stretch:normal;font-style:normal;font-weight:400;text-anchor:end" x="101" y="200.601" transform="rotate(-0, 101, 200.601327)">250</text></g></g><g id="ytick_6"><g id="line2d_12"><g><use style="stroke:#000;stroke-width:.8" x="108" y="152.82" xlink:href="#m1a1766d132"/></g></g><g id="text_13"><text style="font-family:DejaVu Sans;font-size:10px;font-stretch:normal;font-style:normal;font-weight:400;text-anchor:end" x="101" y="156.619" transform="rotate(-0, 101, 156.618895)">300</text></g></g><g id="ytick_7"><g id="line2d_13"><g><use style="stroke:#000;stroke-width:.8" x="108" y="108.837" xlink:href="#m1a1766d132"/></g></g><g id="text_14"><text style="font-family:DejaVu Sans;font-size:10px;font-stretch:normal;font-style:normal;font-weight:400;text-anchor:end" x="101" y="112.636" transform="rotate(-0, 101, 112.636462)">350</text></g></g><g id="ytick_8"><g id="line2d_14"><g><use style="stroke:#000;stroke-width:.8" x="108" y="64.855" xlink:href="#m1a1766d132"/></g></g><g id="text_15"><text style="font-family:DejaVu Sans;font-size:10px;font-stretch:normal;font-style:normal;font-weight:400;text-anchor:end" x="101" y="68.654" transform="rotate(-0, 101, 68.65403)">400</text></g></g><g id="text_16"><text style="font-family:DejaVu Sans;font-size:10px;font-stretch:normal;font-style:normal;font-weight:400;text-anchor:middle" x="75.833" y="218.16" transform="rotate(-90, 75.832812, 218.16)">Time (s)</text></g></g><g id="line2d_15"><path d="M 121.834711 67.690168 L 146.98873 87.748944 L 172.14275 90.289321 L 197.296769 90.502213 L 222.450789 89.60619 L 247.604808 89.262904 L 272.758828 88.612772 L 297.912847 87.918468 L 323.066867 86.863186 L 348.220887 86.603007 L 373.374906 86.177719 L 398.528926 86.576604" clip-path="url(#p585014c35c)" style="fill:none;stroke:#7f3c8d;stroke-linecap:square;stroke-width:1.5"/><defs><path id="mf75688e0cd" d="M 0 3 C 0.795609 3 1.55874 2.683901 2.12132 2.12132 C 2.683901 1.55874 3 0.795609 3 0 C 3 -0.795609 2.683901 -1.55874 2.12132 -2.12132 C 1.55874 -2.683901 0.795609 -3 0 -3 C -0.795609 -3 -1.55874 -2.683901 -2.12132 -2.12132 C -2.683901 -1.55874 -3 -0.795609 -3 0 C -3 0.795609 -2.683901 1.55874 -2.12132 2.12132 C -1.55874 2.683901 -0.795609 3 0 3 z" style="stroke:#7f3c8d"/></defs><g clip-path="url(#p585014c35c)"><use style="fill:#7f3c8d;stroke:#7f3c8d" x="121.835" y="67.69" xlink:href="#mf75688e0cd"/><use style="fill:#7f3c8d;stroke:#7f3c8d" x="146.989" y="87.749" xlink:href="#mf75688e0cd"/><use style="fill:#7f3c8d;stroke:#7f3c8d" x="172.143" y="90.289" xlink:href="#mf75688e0cd"/><use style="fill:#7f3c8d;stroke:#7f3c8d" x="197.297" y="90.502" xlink:href="#mf75688e0cd"/><use style="fill:#7f3c8d;stroke:#7f3c8d" x="222.451" y="89.606" xlink:href="#mf75688e0cd"/><use style="fill:#7f3c8d;stroke:#7f3c8d" x="247.605" y="89.263" xlink:href="#mf75688e0cd"/><use style="fill:#7f3c8d;stroke:#7f3c8d" x="272.759" y="88.613" xlink:href="#mf75688e0cd"/><use style="fill:#7f3c8d;stroke:#7f3c8d" x="297.913" y="87.918" xlink:href="#mf75688e0cd"/><use style="fill:#7f3c8d;stroke:#7f3c8d" x="323.067" y="86.863" xlink:href="#mf75688e0cd"/><use style="fill:#7f3c8d;stroke:#7f3c8d" x="348.221" y="86.603" xlink:href="#mf75688e0cd"/><use style="fill:#7f3c8d;stroke:#7f3c8d" x="373.375" y="86.178" xlink:href="#mf75688e0cd"/><use style="fill:#7f3c8d;stroke:#7f3c8d" x="398.529" y="86.577" xlink:href="#mf75688e0cd"/></g></g><g id="line2d_16"><path d="M 121.834711 269.87373 L 146.98873 298.962379 L 172.14275 297.254152 L 197.296769 295.460644 L 222.450789 293.6096 L 247.604808 289.21521 L 272.758828 288.317717 L 297.912847 288.449496 L 323.066867 288.987527 L 348.220887 289.591017 L 373.374906 290.166319 L 398.528926 289.988814" clip-path="url(#p585014c35c)" style="fill:none;stroke:#11a579;stroke-dasharray:5.55,2.4;stroke-dashoffset:0;stroke-width:1.5"/><defs><path id="m03c35bb349" d="M 0 3 C 0.795609 3 1.55874 2.683901 2.12132 2.12132 C 2.683901 1.55874 3 0.795609 3 0 C 3 -0.795609 2.683901 -1.55874 2.12132 -2.12132 C 1.55874 -2.683901 0.795609 -3 0 -3 C -0.795609 -3 -1.55874 -2.683901 -2.12132 -2.12132 C -2.683901 -1.55874 -3 -0.795609 -3 0 C -3 0.795609 -2.683901 1.55874 -2.12132 2.12132 C -1.55874 2.683901 -0.795609 3 0 3 z" style="stroke:#11a579"/></defs><g clip-path="url(#p585014c35c)"><use style="fill:#11a579;stroke:#11a579" x="121.835" y="269.874" xlink:href="#m03c35bb349"/><use style="fill:#11a579;stroke:#11a579" x="146.989" y="298.962" xlink:href="#m03c35bb349"/><use style="fill:#11a579;stroke:#11a579" x="172.143" y="297.254" xlink:href="#m03c35bb349"/><use style="fill:#11a579;stroke:#11a579" x="197.297" y="295.461" xlink:href="#m03c35bb349"/><use style="fill:#11a579;stroke:#11a579" x="222.451" y="293.61" xlink:href="#m03c35bb349"/><use style="fill:#11a579;stroke:#11a579" x="247.605" y="289.215" xlink:href="#m03c35bb349"/><use style="fill:#11a579;stroke:#11a579" x="272.759" y="288.318" xlink:href="#m03c35bb349"/><use style="fill:#11a579;stroke:#11a579" x="297.913" y="288.449" xlink:href="#m03c35bb349"/><use style="fill:#11a579;stroke:#11a579" x="323.067" y="288.988" xlink:href="#m03c35bb349"/><use style="fill:#11a579;stroke:#11a579" x="348.221" y="289.591" xlink:href="#m03c35bb349"/><use style="fill:#11a579;stroke:#11a579" x="373.375" y="290.166" xlink:href="#m03c35bb349"/><use style="fill:#11a579;stroke:#11a579" x="398.529" y="289.989" xlink:href="#m03c35bb349"/></g></g><g id="line2d_17"><path d="M 121.834711 287.456775 L 146.98873 315.841421 L 172.14275 314.493253 L 197.296769 312.808198 L 222.450789 310.910368 L 247.604808 306.79735 L 272.758828 306.17912 L 297.912847 306.630541 L 323.066867 307.087415 L 348.220887 307.542001 L 373.374906 307.745063 L 398.528926 307.784575" clip-path="url(#p585014c35c)" style="fill:none;stroke:#11a579;stroke-linecap:square;stroke-width:1.5"/><g clip-path="url(#p585014c35c)"><use style="fill:#11a579;stroke:#11a579" x="121.835" y="287.457" xlink:href="#m03c35bb349"/><use style="fill:#11a579;stroke:#11a579" x="146.989" y="315.841" xlink:href="#m03c35bb349"/><use style="fill:#11a579;stroke:#11a579" x="172.143" y="314.493" xlink:href="#m03c35bb349"/><use style="fill:#11a579;stroke:#11a579" x="197.297" y="312.808" xlink:href="#m03c35bb349"/><use style="fill:#11a579;stroke:#11a579" x="222.451" y="310.91" xlink:href="#m03c35bb349"/><use style="fill:#11a579;stroke:#11a579" x="247.605" y="306.797" xlink:href="#m03c35bb349"/><use style="fill:#11a579;stroke:#11a579" x="272.759" y="306.179" xlink:href="#m03c35bb349"/><use style="fill:#11a579;stroke:#11a579" x="297.913" y="306.631" xlink:href="#m03c35bb349"/><use style="fill:#11a579;stroke:#11a579" x="323.067" y="307.087" xlink:href="#m03c35bb349"/><use style="fill:#11a579;stroke:#11a579" x="348.221" y="307.542" xlink:href="#m03c35bb349"/><use style="fill:#11a579;stroke:#11a579" x="373.375" y="307.745" xlink:href="#m03c35bb349"/><use style="fill:#11a579;stroke:#11a579" x="398.529" y="307.785" xlink:href="#m03c35bb349"/></g></g><g id="line2d_18"><path d="M 121.834711 284.347228 L 146.98873 339.524807 L 172.14275 354.173254 L 197.296769 353.565067 L 222.450789 337.062546 L 247.604808 312.339932 L 272.758828 292.014571 L 297.912847 280.542739 L 323.066867 277.019 L 348.220887 276.637518 L 373.374906 276.971771 L 398.528926 276.832261" clip-path="url(#p585014c35c)" style="fill:none;stroke:#3969ac;stroke-dasharray:5.55,2.4;stroke-dashoffset:0;stroke-width:1.5"/><defs><path id="m43a89947e9" d="M 0 3 C 0.795609 3 1.55874 2.683901 2.12132 2.12132 C 2.683901 1.55874 3 0.795609 3 0 C 3 -0.795609 2.683901 -1.55874 2.12132 -2.12132 C 1.55874 -2.683901 0.795609 -3 0 -3 C -0.795609 -3 -1.55874 -2.683901 -2.12132 -2.12132 C -2.683901 -1.55874 -3 -0.795609 -3 0 C -3 0.795609 -2.683901 1.55874 -2.12132 2.12132 C -1.55874 2.683901 -0.795609 3 0 3 z" style="stroke:#3969ac"/></defs><g clip-path="url(#p585014c35c)"><use style="fill:#3969ac;stroke:#3969ac" x="121.835" y="284.347" xlink:href="#m43a89947e9"/><use style="fill:#3969ac;stroke:#3969ac" x="146.989" y="339.525" xlink:href="#m43a89947e9"/><use style="fill:#3969ac;stroke:#3969ac" x="172.143" y="354.173" xlink:href="#m43a89947e9"/><use style="fill:#3969ac;stroke:#3969ac" x="197.297" y="353.565" xlink:href="#m43a89947e9"/><use style="fill:#3969ac;stroke:#3969ac" x="222.451" y="337.063" xlink:href="#m43a89947e9"/><use style="fill:#3969ac;stroke:#3969ac" x="247.605" y="312.34" xlink:href="#m43a89947e9"/><use style="fill:#3969ac;stroke:#3969ac" x="272.759" y="292.015" xlink:href="#m43a89947e9"/><use style="fill:#3969ac;stroke:#3969ac" x="297.913" y="280.543" xlink:href="#m43a89947e9"/><use style="fill:#3969ac;stroke:#3969ac" x="323.067" y="277.019" xlink:href="#m43a89947e9"/><use style="fill:#3969ac;stroke:#3969ac" x="348.221" y="276.638" xlink:href="#m43a89947e9"/><use style="fill:#3969ac;stroke:#3969ac" x="373.375" y="276.972" xlink:href="#m43a89947e9"/><use style="fill:#3969ac;stroke:#3969ac" x="398.529" y="276.832" xlink:href="#m43a89947e9"/></g></g><g id="line2d_19"><path d="M 121.834711 300.167607 L 146.98873 356.095819 L 172.14275 369.090825 L 197.296769 367.503548 L 222.450789 352.176326 L 247.604808 326.213548 L 272.758828 304.532867 L 297.912847 294.159251 L 323.066867 290.341028 L 348.220887 290.57135 L 373.374906 291.194621 L 398.528926 291.273992" clip-path="url(#p585014c35c)" style="fill:none;stroke:#3969ac;stroke-linecap:square;stroke-width:1.5"/><g clip-path="url(#p585014c35c)"><use style="fill:#3969ac;stroke:#3969ac" x="121.835" y="300.168" xlink:href="#m43a89947e9"/><use style="fill:#3969ac;stroke:#3969ac" x="146.989" y="356.096" xlink:href="#m43a89947e9"/><use style="fill:#3969ac;stroke:#3969ac" x="172.143" y="369.091" xlink:href="#m43a89947e9"/><use style="fill:#3969ac;stroke:#3969ac" x="197.297" y="367.504" xlink:href="#m43a89947e9"/><use style="fill:#3969ac;stroke:#3969ac" x="222.451" y="352.176" xlink:href="#m43a89947e9"/><use style="fill:#3969ac;stroke:#3969ac" x="247.605" y="326.214" xlink:href="#m43a89947e9"/><use style="fill:#3969ac;stroke:#3969ac" x="272.759" y="304.533" xlink:href="#m43a89947e9"/><use style="fill:#3969ac;stroke:#3969ac" x="297.913" y="294.159" xlink:href="#m43a89947e9"/><use style="fill:#3969ac;stroke:#3969ac" x="323.067" y="290.341" xlink:href="#m43a89947e9"/><use style="fill:#3969ac;stroke:#3969ac" x="348.221" y="290.571" xlink:href="#m43a89947e9"/><use style="fill:#3969ac;stroke:#3969ac" x="373.375" y="291.195" xlink:href="#m43a89947e9"/><use style="fill:#3969ac;stroke:#3969ac" x="398.529" y="291.274" xlink:href="#m43a89947e9"/></g></g><g id="patch_3"><path d="M 108 384.48 L 108 51.84" style="fill:none;stroke:#000;stroke-linecap:square;stroke-linejoin:miter;stroke-width:.8"/></g><g id="patch_4"><path d="M 412.363636 384.48 L 412.363636 51.84" style="fill:none;stroke:#000;stroke-linecap:square;stroke-linejoin:miter;stroke-width:.8"/></g><g id="patch_5"><path d="M 108 384.48 L 412.363636 384.48" style="fill:none;stroke:#000;stroke-linecap:square;stroke-linejoin:miter;stroke-width:.8"/></g><g id="patch_6"><path d="M 108 51.84 L 412.363636 51.84" style="fill:none;stroke:#000;stroke-linecap:square;stroke-linejoin:miter;stroke-width:.8"/></g><g id="legend_1"><g id="patch_7"><path d="M 314.332386 379.48 L 405.363636 379.48 Q 407.363636 379.48 407.363636 377.48 L 407.363636 334.445625 Q 407.363636 332.445625 405.363636 332.445625 L 314.332386 332.445625 Q 312.332386 332.445625 312.332386 334.445625 L 312.332386 377.48 Q 312.332386 379.48 314.332386 379.48 z" style="fill:#fff;opacity:.8;stroke:#ccc;stroke-linejoin:miter"/></g><g id="line2d_20"><path d="M 316.332386 340.544062 L 336.332386 340.544062" style="fill:none;stroke:#7f3c8d;stroke-linecap:square;stroke-width:1.5"/></g><g id="line2d_21"><g><use style="fill:#7f3c8d;stroke:#7f3c8d" x="326.332" y="340.544" xlink:href="#mf75688e0cd"/></g></g><g id="text_17"><text style="font-family:DejaVu Sans;font-size:10px;font-stretch:normal;font-style:normal;font-weight:400;text-anchor:start" x="344.332" y="344.044" transform="rotate(-0, 344.332386, 344.044062)">hmmscan</text></g><g id="line2d_22"><path d="M 316.332386 355.222188 L 336.332386 355.222188" style="fill:none;stroke:#11a579;stroke-linecap:square;stroke-width:1.5"/></g><g id="line2d_23"><g><use style="fill:#11a579;stroke:#11a579" x="326.332" y="355.222" xlink:href="#m03c35bb349"/></g></g><g id="text_18"><text style="font-family:DejaVu Sans;font-size:10px;font-stretch:normal;font-style:normal;font-weight:400;text-anchor:start" x="344.332" y="358.722" transform="rotate(-0, 344.332386, 358.722188)">hmmsearch</text></g><g id="line2d_24"><path d="M 316.332386 369.900312 L 336.332386 369.900312" style="fill:none;stroke:#3969ac;stroke-linecap:square;stroke-width:1.5"/></g><g id="line2d_25"><g><use style="fill:#3969ac;stroke:#3969ac" x="326.332" y="369.9" xlink:href="#m43a89947e9"/></g></g><g id="text_19"><text style="font-family:DejaVu Sans;font-size:10px;font-stretch:normal;font-style:normal;font-weight:400;text-anchor:start" x="344.332" y="373.4" transform="rotate(-0, 344.332386, 373.400312)">pyhmmer</text></g></g></g><g id="axes_2"><g id="patch_8"><path d="M 473.236364 384.48 L 777.6 384.48 L 777.6 51.84 L 473.236364 51.84 z" style="fill:none"/></g><g id="PolyCollection_6"><defs><path id="mee8681da9d" d="M 487.071074 -332.866818 L 487.071074 -329.587675 L 512.225094 -262.021149 L 537.379113 -264.105302 L 562.533133 -266.185878 L 587.687153 -267.860503 L 612.841172 -272.376021 L 637.995192 -274.323837 L 663.149211 -275.593679 L 688.303231 -276.07476 L 713.45725 -275.023829 L 738.61127 -274.684139 L 763.765289 -274.219465 L 763.765289 -274.92798 L 763.765289 -274.92798 L 738.61127 -275.611694 L 713.45725 -276.725671 L 688.303231 -276.852259 L 663.149211 -276.278733 L 637.995192 -274.943077 L 612.841172 -272.722152 L 587.687153 -268.258511 L 562.533133 -266.486895 L 537.379113 -264.723136 L 512.225094 -263.701551 L 487.071074 -332.866818 z" style="stroke:#11a579;stroke-opacity:.1"/></defs><g clip-path="url(#pda6082c049)"><use style="fill:#11a579;fill-opacity:.1;stroke:#11a579;stroke-opacity:.1" x="0" y="432" xlink:href="#mee8681da9d"/></g></g><g id="PolyCollection_7"><defs><path id="maa1f5071e5" d="M 487.071074 -365.04 L 487.071074 -359.479344 L 512.225094 -222.129285 L 537.379113 -145.105121 L 562.533133 -112.486688 L 587.687153 -93.774584 L 612.841172 -82.569326 L 637.995192 -77.029481 L 663.149211 -73.76635 L 688.303231 -71.475914 L 713.45725 -67.841827 L 738.61127 -64.393009 L 763.765289 -62.64 L 763.765289 -63.473579 L 763.765289 -63.473579 L 738.61127 -65.748596 L 713.45725 -68.45566 L 688.303231 -72.342431 L 663.149211 -74.497615 L 637.995192 -78.569462 L 612.841172 -83.492304 L 587.687153 -96.248707 L 562.533133 -115.608934 L 537.379113 -146.701766 L 512.225094 -225.848688 L 487.071074 -365.04 z" style="stroke:#3969ac;stroke-opacity:.1"/></defs><g clip-path="url(#pda6082c049)"><use style="fill:#3969ac;fill-opacity:.1;stroke:#3969ac;stroke-opacity:.1" x="0" y="432" xlink:href="#maa1f5071e5"/></g></g><g id="matplotlib.axis_3"><g id="xtick_7"><g id="line2d_26"><g><use style="stroke:#000;stroke-width:.8" x="512.225" y="384.48" xlink:href="#mbde63cc991"/></g></g><g id="text_20"><text style="font-family:DejaVu Sans;font-size:10px;font-stretch:normal;font-style:normal;font-weight:400;text-anchor:middle" x="512.225" y="399.078" transform="rotate(-0, 512.225094, 399.078438)">2</text></g></g><g id="xtick_8"><g id="line2d_27"><g><use style="stroke:#000;stroke-width:.8" x="562.533" y="384.48" xlink:href="#mbde63cc991"/></g></g><g id="text_21"><text style="font-family:DejaVu Sans;font-size:10px;font-stretch:normal;font-style:normal;font-weight:400;text-anchor:middle" x="562.533" y="399.078" transform="rotate(-0, 562.533133, 399.078438)">4</text></g></g><g id="xtick_9"><g id="line2d_28"><g><use style="stroke:#000;stroke-width:.8" x="612.841" y="384.48" xlink:href="#mbde63cc991"/></g></g><g id="text_22"><text style="font-family:DejaVu Sans;font-size:10px;font-stretch:normal;font-style:normal;font-weight:400;text-anchor:middle" x="612.841" y="399.078" transform="rotate(-0, 612.841172, 399.078438)">6</text></g></g><g id="xtick_10"><g id="line2d_29"><g><use style="stroke:#000;stroke-width:.8" x="663.149" y="384.48" xlink:href="#mbde63cc991"/></g></g><g id="text_23"><text style="font-family:DejaVu Sans;font-size:10px;font-stretch:normal;font-style:normal;font-weight:400;text-anchor:middle" x="663.149" y="399.078" transform="rotate(-0, 663.149211, 399.078438)">8</text></g></g><g id="xtick_11"><g id="line2d_30"><g><use style="stroke:#000;stroke-width:.8" x="713.457" y="384.48" xlink:href="#mbde63cc991"/></g></g><g id="text_24"><text style="font-family:DejaVu Sans;font-size:10px;font-stretch:normal;font-style:normal;font-weight:400;text-anchor:middle" x="713.457" y="399.078" transform="rotate(-0, 713.45725, 399.078438)">10</text></g></g><g id="xtick_12"><g id="line2d_31"><g><use style="stroke:#000;stroke-width:.8" x="763.765" y="384.48" xlink:href="#mbde63cc991"/></g></g><g id="text_25"><text style="font-family:DejaVu Sans;font-size:10px;font-stretch:normal;font-style:normal;font-weight:400;text-anchor:middle" x="763.765" y="399.078" transform="rotate(-0, 763.765289, 399.078438)">12</text></g></g><g id="text_26"><text style="font-family:DejaVu Sans;font-size:10px;font-stretch:normal;font-style:normal;font-weight:400;text-anchor:middle" x="625.418" y="412.757" transform="rotate(-0, 625.418182, 412.756563)">CPUs</text></g></g><g id="matplotlib.axis_4"><g id="ytick_9"><g id="line2d_32"><g><use style="stroke:#000;stroke-width:.8" x="473.236" y="324.696" xlink:href="#m1a1766d132"/></g></g><g id="text_27"><text style="font-family:DejaVu Sans;font-size:10px;font-stretch:normal;font-style:normal;font-weight:400;text-anchor:end" x="466.236" y="328.496" transform="rotate(-0, 466.236364, 328.495613)">40</text></g></g><g id="ytick_10"><g id="line2d_33"><g><use style="stroke:#000;stroke-width:.8" x="473.236" y="259.232" xlink:href="#m1a1766d132"/></g></g><g id="text_28"><text style="font-family:DejaVu Sans;font-size:10px;font-stretch:normal;font-style:normal;font-weight:400;text-anchor:end" x="466.236" y="263.031" transform="rotate(-0, 466.236364, 263.031347)">60</text></g></g><g id="ytick_11"><g id="line2d_34"><g><use style="stroke:#000;stroke-width:.8" x="473.236" y="193.768" xlink:href="#m1a1766d132"/></g></g><g id="text_29"><text style="font-family:DejaVu Sans;font-size:10px;font-stretch:normal;font-style:normal;font-weight:400;text-anchor:end" x="466.236" y="197.567" transform="rotate(-0, 466.236364, 197.567081)">80</text></g></g><g id="ytick_12"><g id="line2d_35"><g><use style="stroke:#000;stroke-width:.8" x="473.236" y="128.304" xlink:href="#m1a1766d132"/></g></g><g id="text_30"><text style="font-family:DejaVu Sans;font-size:10px;font-stretch:normal;font-style:normal;font-weight:400;text-anchor:end" x="466.236" y="132.103" transform="rotate(-0, 466.236364, 132.102815)">100</text></g></g><g id="ytick_13"><g id="line2d_36"><g><use style="stroke:#000;stroke-width:.8" x="473.236" y="62.839" xlink:href="#m1a1766d132"/></g></g><g id="text_31"><text style="font-family:DejaVu Sans;font-size:10px;font-stretch:normal;font-style:normal;font-weight:400;text-anchor:end" x="466.236" y="66.639" transform="rotate(-0, 466.236364, 66.638549)">120</text></g></g><g id="text_32"><text style="font-family:DejaVu Sans;font-size:10px;font-stretch:normal;font-style:normal;font-weight:400;text-anchor:middle" x="441.069" y="218.16" transform="rotate(-90, 441.069176, 218.16)">Time (s)</text></g></g><g id="line2d_37"><path d="M 487.071074 100.772754 L 512.225094 169.13865 L 537.379113 167.585781 L 562.533133 165.663613 L 587.687153 163.940493 L 612.841172 159.450913 L 637.995192 157.366543 L 663.149211 156.063794 L 688.303231 155.536491 L 713.45725 156.12525 L 738.61127 156.852083 L 763.765289 157.426277" clip-path="url(#pda6082c049)" style="fill:none;stroke:#11a579;stroke-linecap:square;stroke-width:1.5"/><g clip-path="url(#pda6082c049)"><use style="fill:#11a579;stroke:#11a579" x="487.071" y="100.773" xlink:href="#m03c35bb349"/><use style="fill:#11a579;stroke:#11a579" x="512.225" y="169.139" xlink:href="#m03c35bb349"/><use style="fill:#11a579;stroke:#11a579" x="537.379" y="167.586" xlink:href="#m03c35bb349"/><use style="fill:#11a579;stroke:#11a579" x="562.533" y="165.664" xlink:href="#m03c35bb349"/><use style="fill:#11a579;stroke:#11a579" x="587.687" y="163.94" xlink:href="#m03c35bb349"/><use style="fill:#11a579;stroke:#11a579" x="612.841" y="159.451" xlink:href="#m03c35bb349"/><use style="fill:#11a579;stroke:#11a579" x="637.995" y="157.367" xlink:href="#m03c35bb349"/><use style="fill:#11a579;stroke:#11a579" x="663.149" y="156.064" xlink:href="#m03c35bb349"/><use style="fill:#11a579;stroke:#11a579" x="688.303" y="155.536" xlink:href="#m03c35bb349"/><use style="fill:#11a579;stroke:#11a579" x="713.457" y="156.125" xlink:href="#m03c35bb349"/><use style="fill:#11a579;stroke:#11a579" x="738.611" y="156.852" xlink:href="#m03c35bb349"/><use style="fill:#11a579;stroke:#11a579" x="763.765" y="157.426" xlink:href="#m03c35bb349"/></g></g><g id="line2d_38"><path d="M 487.071074 69.740328 L 512.225094 208.011013 L 537.379113 286.096556 L 562.533133 317.952189 L 587.687153 336.988355 L 612.841172 348.969185 L 637.995192 354.200528 L 663.149211 357.868017 L 688.303231 360.090827 L 713.45725 363.851257 L 738.61127 366.929197 L 763.765289 368.943211" clip-path="url(#pda6082c049)" style="fill:none;stroke:#3969ac;stroke-linecap:square;stroke-width:1.5"/><g clip-path="url(#pda6082c049)"><use style="fill:#3969ac;stroke:#3969ac" x="487.071" y="69.74" xlink:href="#m43a89947e9"/><use style="fill:#3969ac;stroke:#3969ac" x="512.225" y="208.011" xlink:href="#m43a89947e9"/><use style="fill:#3969ac;stroke:#3969ac" x="537.379" y="286.097" xlink:href="#m43a89947e9"/><use style="fill:#3969ac;stroke:#3969ac" x="562.533" y="317.952" xlink:href="#m43a89947e9"/><use style="fill:#3969ac;stroke:#3969ac" x="587.687" y="336.988" xlink:href="#m43a89947e9"/><use style="fill:#3969ac;stroke:#3969ac" x="612.841" y="348.969" xlink:href="#m43a89947e9"/><use style="fill:#3969ac;stroke:#3969ac" x="637.995" y="354.201" xlink:href="#m43a89947e9"/><use style="fill:#3969ac;stroke:#3969ac" x="663.149" y="357.868" xlink:href="#m43a89947e9"/><use style="fill:#3969ac;stroke:#3969ac" x="688.303" y="360.091" xlink:href="#m43a89947e9"/><use style="fill:#3969ac;stroke:#3969ac" x="713.457" y="363.851" xlink:href="#m43a89947e9"/><use style="fill:#3969ac;stroke:#3969ac" x="738.611" y="366.929" xlink:href="#m43a89947e9"/><use style="fill:#3969ac;stroke:#3969ac" x="763.765" y="368.943" xlink:href="#m43a89947e9"/></g></g><g id="patch_9"><path d="M 473.236364 384.48 L 473.236364 51.84" style="fill:none;stroke:#000;stroke-linecap:square;stroke-linejoin:miter;stroke-width:.8"/></g><g id="patch_10"><path d="M 777.6 384.48 L 777.6 51.84" style="fill:none;stroke:#000;stroke-linecap:square;stroke-linejoin:miter;stroke-width:.8"/></g><g id="patch_11"><path d="M 473.236364 384.48 L 777.6 384.48" style="fill:none;stroke:#000;stroke-linecap:square;stroke-linejoin:miter;stroke-width:.8"/></g><g id="patch_12"><path d="M 473.236364 51.84 L 777.6 51.84" style="fill:none;stroke:#000;stroke-linecap:square;stroke-linejoin:miter;stroke-width:.8"/></g><g id="legend_2"><g id="patch_13"><path d="M 690.25 89.19625 L 770.6 89.19625 Q 772.6 89.19625 772.6 87.19625 L 772.6 58.84 Q 772.6 56.84 770.6 56.84 L 690.25 56.84 Q 688.25 56.84 688.25 58.84 L 688.25 87.19625 Q 688.25 89.19625 690.25 89.19625 z" style="fill:#fff;opacity:.8;stroke:#ccc;stroke-linejoin:miter"/></g><g id="line2d_39"><path d="M 692.25 64.938437 L 712.25 64.938437" style="fill:none;stroke:#11a579;stroke-linecap:square;stroke-width:1.5"/></g><g id="line2d_40"><g><use style="fill:#11a579;stroke:#11a579" x="702.25" y="64.938" xlink:href="#m03c35bb349"/></g></g><g id="text_33"><text style="font-family:DejaVu Sans;font-size:10px;font-stretch:normal;font-style:normal;font-weight:400;text-anchor:start" x="720.25" y="68.438" transform="rotate(-0, 720.25, 68.438437)">phmmer</text></g><g id="line2d_41"><path d="M 692.25 79.616562 L 712.25 79.616562" style="fill:none;stroke:#3969ac;stroke-linecap:square;stroke-width:1.5"/></g><g id="line2d_42"><g><use style="fill:#3969ac;stroke:#3969ac" x="702.25" y="79.617" xlink:href="#m43a89947e9"/></g></g><g id="text_34"><text style="font-family:DejaVu Sans;font-size:10px;font-stretch:normal;font-style:normal;font-weight:400;text-anchor:start" x="720.25" y="83.117" transform="rotate(-0, 720.25, 83.116562)">pyhmmer</text></g></g></g></g><defs><clipPath id="p585014c35c"><rect width="304.364" height="332.64" x="108" y="51.84"/></clipPath><clipPath id="pda6082c049"><rect width="304.364" height="332.64" x="473.236" y="51.84"/></clipPath></defs></svg>